<?xml version="1.0" encoding="UTF-8"?>
<svg width="130px" height="130px" viewBox="0 0 130 130" version="1.1" xmlns="http://www.w3.org/2000/svg" xmlns:xlink="http://www.w3.org/1999/xlink">
    <!-- Generator: Sketch 47.1 (45422) - http://www.bohemiancoding.com/sketch -->
    <title>Icon: Innovative strategies</title>
    <desc>Created with Sketch.</desc>
    <defs></defs>
    <g id="Symbols" stroke="none" stroke-width="1" fill="none" fill-rule="evenodd">
        <g id="Icon:-Innovative-strategies">
            <g id="Group-2" transform="translate(5.000000, 5.000000)">
                <polygon id="Fill-80" fill="#FFFFFF" points="0.5 68.5 98.508 68.5 98.508 0.5 0.5 0.5"></polygon>
                <path d="M0,69 L99.008,69 L99.008,0 L0,0 L0,69 Z M1,68 L98.008,68 L98.008,1 L1,1 L1,68 Z" id="Fill-81" fill="#9B9A9A"></path>
                <polygon id="Fill-82" fill="#FFFFFF" points="49.2724 34.4993 49.4254 119.9993 119.9214 119.9993 119.9214 34.4993"></polygon>
                <polygon id="Stroke-83" stroke="#9B9A9A" points="49.2724 34.4993 49.4254 119.9993 119.9214 119.9993 119.9214 34.4993"></polygon>
                <polyline id="Stroke-84" stroke="#9B9A9A" points="8.7566 54.9993 8.7566 54.9993 27.2626 54.9993 27.2896 14.3423 60.6866 14.3433"></polyline>
                <polyline id="Stroke-85" stroke="#9B9A9A" points="74.7705 14.3424 74.7705 28.0594 38.2795 28.0594 38.2795 47.3934"></polyline>
                <g id="Group-88" transform="translate(5.462000, 5.649000)">
                    <path d="M0.7025,0.7444 L11.7845,11.8264" id="Fill-86" fill="#FFFFFF"></path>
                    <path d="M0.7025,0.7444 L11.7845,11.8264" id="Stroke-87" stroke="#9B9A9A"></path>
                </g>
                <g id="Group-91" transform="translate(5.462000, 5.649000)">
                    <path d="M0.7025,11.8267 L11.7845,0.7447" id="Fill-89" fill="#FFFFFF"></path>
                    <path d="M0.7025,11.8267 L11.7845,0.7447" id="Stroke-90" stroke="#9B9A9A"></path>
                </g>
                <path d="M91.2089,24.2249 C91.2089,26.9859 88.9699,29.2249 86.2089,29.2249 C83.4479,29.2249 81.2089,26.9859 81.2089,24.2249 C81.2089,21.4639 83.4479,19.2249 86.2089,19.2249 C88.9699,19.2249 91.2089,21.4639 91.2089,24.2249" id="Fill-92" fill="#ED0F34"></path>
                <path d="M74.7705,16.3424 C73.6675,16.3424 72.7705,15.4454 72.7705,14.3424 C72.7705,13.2394 73.6675,12.3424 74.7705,12.3424 C75.8735,12.3424 76.7705,13.2394 76.7705,14.3424 C76.7705,15.4454 75.8735,16.3424 74.7705,16.3424" id="Fill-93" fill="#FFFAF3"></path>
                <path d="M74.7705,11.8424 C73.3895,11.8424 72.2705,12.9614 72.2705,14.3424 C72.2705,15.7234 73.3895,16.8424 74.7705,16.8424 C76.1515,16.8424 77.2705,15.7234 77.2705,14.3424 C77.2705,12.9614 76.1515,11.8424 74.7705,11.8424 M74.7705,12.8424 C75.5975,12.8424 76.2705,13.5154 76.2705,14.3424 C76.2705,15.1694 75.5975,15.8424 74.7705,15.8424 C73.9435,15.8424 73.2705,15.1694 73.2705,14.3424 C73.2705,13.5154 73.9435,12.8424 74.7705,12.8424" id="Fill-94" fill="#9B9A9A"></path>
                <path d="M49.2724,96.7296 C51.7844,96.7006 54.3034,97.4576 56.4394,98.9986 C60.5894,101.9916 66.1794,102.0276 70.3674,99.0886 L70.6854,98.8656 C74.8454,95.9466 80.3924,95.9606 84.5374,98.9006 L84.7344,99.0406 C88.9164,102.0066 94.5194,101.9926 98.6864,99.0046 L98.7064,98.9896 C102.8724,96.0026 108.4764,95.9876 112.6584,98.9546 L112.8554,99.0936 C114.9274,100.5636 117.3504,101.3026 119.7754,101.3086 L119.7754,119.9996 L49.4254,119.9996 L49.2724,96.7296 Z" id="Fill-95" fill="#FFF3E0"></path>
                <path d="M49.2724,96.7296 C51.7844,96.7006 54.3034,97.4576 56.4394,98.9986 C60.5894,101.9916 66.1794,102.0276 70.3674,99.0886 L70.6854,98.8656 C74.8454,95.9466 80.3924,95.9606 84.5374,98.9006 L84.7344,99.0406 C88.9164,102.0066 94.5194,101.9926 98.6864,99.0046 L98.7064,98.9896 C102.8724,96.0026 108.4764,95.9876 112.6584,98.9546 L112.8554,99.0936 C114.9274,100.5636 117.3504,101.3026 119.7754,101.3086 L119.7754,119.9996 L49.4254,119.9996 L49.2724,96.7296 Z" id="Stroke-96" stroke="#9B9A9A"></path>
                <path d="M8.7566,56.9996 C7.6536,56.9996 6.7566,56.1026 6.7566,54.9996 C6.7566,53.8966 7.6536,52.9996 8.7566,52.9996 C9.8596,52.9996 10.7566,53.8966 10.7566,54.9996 C10.7566,56.1026 9.8596,56.9996 8.7566,56.9996" id="Fill-97" fill="#FFFAF3"></path>
                <path d="M8.7566,52.4996 C7.3756,52.4996 6.2566,53.6186 6.2566,54.9996 C6.2566,56.3796 7.3756,57.4996 8.7566,57.4996 C10.1376,57.4996 11.2566,56.3796 11.2566,54.9996 C11.2566,53.6186 10.1376,52.4996 8.7566,52.4996 M8.7566,53.4996 C9.5836,53.4996 10.2566,54.1726 10.2566,54.9996 C10.2566,55.8266 9.5836,56.4996 8.7566,56.4996 C7.9296,56.4996 7.2566,55.8266 7.2566,54.9996 C7.2566,54.1726 7.9296,53.4996 8.7566,53.4996" id="Fill-98" fill="#9B9A9A"></path>
                <path d="M119.7754,101.3087 C117.3504,101.3027 114.9274,100.5637 112.8554,99.0937 L112.6584,98.9547 C108.4764,95.9877 102.8724,96.0027 98.7064,98.9897 L98.6864,99.0047 C94.5194,101.9927 88.9164,102.0067 84.7344,99.0407 L84.5374,98.9007 C80.3924,95.9607 74.8454,95.9467 70.6854,98.8657 L70.3684,99.0887 C66.1794,102.0277 60.5894,101.9917 56.4394,98.9987 C54.3344,97.4807 51.8594,96.7237 49.3844,96.7287 L49.2724,76.7277 C51.7844,76.6987 54.3034,77.4557 56.4394,78.9967 C60.5894,81.9897 66.1794,82.0257 70.3684,79.0867 L70.6854,78.8637 C74.8454,75.9447 80.3924,75.9587 84.5374,78.8987 L84.7344,79.0377 C88.9164,82.0047 94.5194,81.9907 98.6864,79.0027 L98.7064,78.9877 C102.8724,76.0007 108.4764,75.9857 112.6584,78.9527 L112.8554,79.0917 C114.9274,80.5617 117.3504,81.3007 119.7754,81.3067 L119.7754,101.3087 Z" id="Fill-99" fill="#FFFAF3"></path>
                <path d="M119.7754,101.3087 C117.3504,101.3027 114.9274,100.5637 112.8554,99.0937 L112.6584,98.9547 C108.4764,95.9877 102.8724,96.0027 98.7064,98.9897 L98.6864,99.0047 C94.5194,101.9927 88.9164,102.0067 84.7344,99.0407 L84.5374,98.9007 C80.3924,95.9607 74.8454,95.9467 70.6854,98.8657 L70.3684,99.0887 C66.1794,102.0277 60.5894,101.9917 56.4394,98.9987 C54.3344,97.4807 51.8594,96.7237 49.3844,96.7287 L49.2724,76.7277 C51.7844,76.6987 54.3034,77.4557 56.4394,78.9967 C60.5894,81.9897 66.1794,82.0257 70.3684,79.0867 L70.6854,78.8637 C74.8454,75.9447 80.3924,75.9587 84.5374,78.8987 L84.7344,79.0377 C88.9164,82.0047 94.5194,81.9907 98.6864,79.0027 L98.7064,78.9877 C102.8724,76.0007 108.4764,75.9857 112.6584,78.9527 L112.8554,79.0917 C114.9274,80.5617 117.3504,81.3007 119.7754,81.3067 L119.7754,101.3087 Z" id="Stroke-100" stroke="#9B9A9A"></path>
                <polygon id="Fill-101" fill="#FFFAF3" points="38.279 56.0531 43.279 47.3931 33.279 47.3931"></polygon>
                <polygon id="Stroke-102" stroke="#9B9A9A" points="38.279 56.0531 43.279 47.3931 33.279 47.3931"></polygon>
                <path d="M49.3662,86.7279 C51.8472,86.7189 54.3292,87.4759 56.4392,88.9979 C60.5892,91.9899 66.1792,92.0269 70.3682,89.0879 L70.6852,88.8649 C74.8452,85.9459 80.3922,85.9599 84.5372,88.8999 L84.7342,89.0399 C88.9162,92.0059 94.5202,91.9909 98.6862,89.0029 L98.7062,88.9889 C102.8732,86.0009 108.4762,85.9869 112.6582,88.9529 L112.8552,89.0929 C114.9282,90.5629 117.3512,91.3009 119.7752,91.3079" id="Stroke-103" stroke="#9B9A9A"></path>
                <path d="M49.4011,106.7298 C51.8701,106.7278 54.3391,107.4848 56.4391,108.9998 C60.5891,111.9918 66.1801,112.0288 70.3681,109.0898 L70.6851,108.8668 C74.8451,105.9478 80.3921,105.9618 84.5371,108.9018 L84.7341,109.0418 C88.9161,112.0078 94.5201,111.9928 98.6861,109.0048 L98.7061,108.9908 C102.8731,106.0028 108.4761,105.9888 112.6581,108.9548 L112.8551,109.0948 C114.9281,110.5648 117.3511,111.3038 119.7761,111.3098" id="Stroke-104" stroke="#9B9A9A"></path>
                <polyline id="Stroke-105" stroke="#9B9A9A" points="119.9216 34.4993 85.8246 68.5963 49.5036 68.5963"></polyline>
                <path d="M90.7238,68.596 C90.7238,71.357 88.4848,73.596 85.7238,73.596 C82.9628,73.596 80.7238,71.357 80.7238,68.596 C80.7238,65.835 82.9628,63.596 85.7238,63.596 C88.4848,63.596 90.7238,65.835 90.7238,68.596" id="Fill-106" fill="#FFFAF3"></path>
                <path d="M90.7238,68.596 C90.7238,71.357 88.4848,73.596 85.7238,73.596 C82.9628,73.596 80.7238,71.357 80.7238,68.596 C80.7238,65.835 82.9628,63.596 85.7238,63.596 C88.4848,63.596 90.7238,65.835 90.7238,68.596 Z" id="Stroke-107" stroke="#9B9A9A"></path>
                <path d="M65.4084,91.3077 C65.4084,92.6887 64.2894,93.8077 62.9084,93.8077 C61.5274,93.8077 60.4084,92.6887 60.4084,91.3077 C60.4084,89.9267 61.5274,88.8077 62.9084,88.8077 C64.2894,88.8077 65.4084,89.9267 65.4084,91.3077" id="Fill-108" fill="#FFFFFF"></path>
                <path d="M65.4084,91.3077 C65.4084,92.6887 64.2894,93.8077 62.9084,93.8077 C61.5274,93.8077 60.4084,92.6887 60.4084,91.3077 C60.4084,89.9267 61.5274,88.8077 62.9084,88.8077 C64.2894,88.8077 65.4084,89.9267 65.4084,91.3077 Z" id="Stroke-109" stroke="#9B9A9A"></path>
                <path d="M108.1567,76.6837 C108.1567,78.0647 107.0377,79.1837 105.6567,79.1837 C104.2757,79.1837 103.1567,78.0647 103.1567,76.6837 C103.1567,75.3027 104.2757,74.1837 105.6567,74.1837 C107.0377,74.1837 108.1567,75.3027 108.1567,76.6837" id="Fill-110" fill="#FFFFFF"></path>
                <path d="M108.1567,76.6837 C108.1567,78.0647 107.0377,79.1837 105.6567,79.1837 C104.2757,79.1837 103.1567,78.0647 103.1567,76.6837 C103.1567,75.3027 104.2757,74.1837 105.6567,74.1837 C107.0377,74.1837 108.1567,75.3027 108.1567,76.6837 Z" id="Stroke-111" stroke="#9B9A9A"></path>
                <path d="M93.7089,101.3087 C93.7089,102.6897 92.5899,103.8087 91.2089,103.8087 C89.8279,103.8087 88.7089,102.6897 88.7089,101.3087 C88.7089,99.9277 89.8279,98.8087 91.2089,98.8087 C92.5899,98.8087 93.7089,99.9277 93.7089,101.3087" id="Fill-112" fill="#FFFFFF"></path>
                <path d="M93.7089,101.3087 C93.7089,102.6897 92.5899,103.8087 91.2089,103.8087 C89.8279,103.8087 88.7089,102.6897 88.7089,101.3087 C88.7089,99.9277 89.8279,98.8087 91.2089,98.8087 C92.5899,98.8087 93.7089,99.9277 93.7089,101.3087 Z" id="Stroke-113" stroke="#9B9A9A"></path>
                <polygon id="Fill-114" fill="#FFEECC" points="119.9216 34.4993 49.2726 34.4993 49.5036 51.5473 102.8736 51.5473"></polygon>
                <polyline id="Stroke-115" stroke="#9B9A9A" points="119.9216 34.4993 49.2726 34.4993 49.5036 51.5473 102.8736 51.5473 119.9216 34.4993"></polyline>
            </g>
        </g>
    </g>
</svg>