<?xml version="1.0" encoding="UTF-8"?>
<svg width="130px" height="130px" viewBox="0 0 130 130" version="1.1" xmlns="http://www.w3.org/2000/svg" xmlns:xlink="http://www.w3.org/1999/xlink">
    <!-- Generator: Sketch 47.1 (45422) - http://www.bohemiancoding.com/sketch -->
    <title>Icon: Local Knowledge</title>
    <desc>Created with Sketch.</desc>
    <defs></defs>
    <g id="Symbols" stroke="none" stroke-width="1" fill="none" fill-rule="evenodd">
        <g id="Icon:-Local-Knowledge">
            <g id="Group-2" transform="translate(5.000000, 5.000000)">
                <polyline id="Stroke-49" stroke="#9B9A9A" points="119.9999 50.9168 119.8259 120.9168 49.8259 120.7428"></polyline>
                <g id="Group-54" transform="translate(49.574100, 50.000000)">
                    <path d="M0.252,70.7425 L0.426,0.7425 L70.426,0.9165 C70.33,39.5765 38.912,70.8385 0.252,70.7425" id="Fill-51" fill="#FFFAF3"></path>
                    <path d="M0.252,70.7425 L0.426,0.7425 L70.426,0.9165 C70.33,39.5765 38.912,70.8385 0.252,70.7425" id="Stroke-53" stroke="#9B9A9A"></path>
                </g>
                <path d="M100.0001,50.7427 C100.0001,78.3567 77.6141,100.7427 50.0001,100.7427 C22.3861,100.7427 0.0001,78.3567 0.0001,50.7427 C0.0001,23.1287 22.3861,0.7427 50.0001,0.7427 C77.6141,0.7427 100.0001,23.1287 100.0001,50.7427" id="Fill-55" fill="#FFFFFF"></path>
                <path d="M100.0001,50.7427 C100.0001,78.3567 77.6141,100.7427 50.0001,100.7427 C22.3861,100.7427 0.0001,78.3567 0.0001,50.7427 C0.0001,23.1287 22.3861,0.7427 50.0001,0.7427 C77.6141,0.7427 100.0001,23.1287 100.0001,50.7427 Z" id="Stroke-57" stroke="#9B9A9A"></path>
                <path d="M0,50.7427 C0,59.4677 2.24,67.6667 6.167,74.8067 L93.833,74.8067 C97.761,67.6667 100,59.4677 100,50.7427 C100,41.5877 97.528,33.0147 93.232,25.6347 L6.768,25.6347 C2.472,33.0147 0,41.5877 0,50.7427" id="Fill-59" fill="#FFF3E0"></path>
                <path d="M100.0001,50.7427 C100.0001,78.3567 77.6141,100.7427 50.0001,100.7427 C22.3861,100.7427 0.0001,78.3567 0.0001,50.7427 C0.0001,23.1287 22.3861,0.7427 50.0001,0.7427 C77.6141,0.7427 100.0001,23.1287 100.0001,50.7427 Z" id="Stroke-61" stroke="#9B9A9A"></path>
                <path d="M49.8757,100.7425 L50.1247,0.7425" id="Stroke-63" stroke="#9B9A9A"></path>
                <path d="M50.1245,0.743 C36.3175,0.709 25.0685,23.066 24.9995,50.681 C24.9315,78.295 36.0685,100.708 49.8755,100.743 C63.6825,100.777 74.9315,78.419 74.9995,50.805 C75.0685,23.191 63.9315,0.777 50.1245,0.743" id="Fill-65" fill="#FFFAF3"></path>
                <path d="M71.6631,25.6351 L50.0621,25.6351 L28.4621,25.6351 C26.3231,33.0331 25.1021,41.6281 25.1251,50.8051 C25.1471,59.5611 26.2961,67.7841 28.2901,74.9371 L49.9401,74.9371 L50.1851,74.9371 L71.8341,74.9371 C73.8291,67.7841 74.9781,59.5611 75.0001,50.8051 C75.0231,41.6281 73.8021,33.0331 71.6631,25.6351" id="Fill-67" fill="#FFEECC"></path>
                <path d="M50.1245,0.743 C36.3175,0.709 25.0685,23.066 24.9995,50.681 C24.9315,78.295 36.0685,100.708 49.8755,100.743 C63.6825,100.777 74.9315,78.419 74.9995,50.805 C75.0685,23.191 63.9315,0.777 50.1245,0.743 Z" id="Stroke-69" stroke="#9B9A9A"></path>
                <path d="M100,50.867 L0,50.618" id="Stroke-71" stroke="#9B9A9A"></path>
                <path d="M6.1625,74.8067 L93.7255,74.8067" id="Stroke-73" stroke="#9B9A9A"></path>
                <path d="M6.7555,25.6351 L93.3955,25.8511" id="Stroke-75" stroke="#9B9A9A"></path>
                <polygon id="Fill-77" fill="#ED0F34" points="101.7256 25.8123 93.7056 33.7923 85.7256 25.7723 93.7456 17.7923"></polygon>
                <path d="M30.0512,30.1929 C28.8492,30.1899 27.7202,29.7189 26.8722,28.8669 C26.0252,28.0149 25.5592,26.8839 25.5622,25.6819 C25.5682,23.2069 27.5872,21.1929 30.0622,21.1929 C32.5552,21.1989 34.5682,23.2229 34.5622,25.7039 C34.5562,28.1789 32.5372,30.1929 30.0622,30.1929 L30.0512,30.1929 Z" id="Fill-79" fill="#FFFFFF"></path>
                <path d="M30.0621,20.6932 C27.3071,20.6932 25.0691,22.9232 25.0621,25.6802 C25.0551,28.4422 27.2891,30.6862 30.0501,30.6932 L30.0621,30.6932 C32.8181,30.6932 35.0551,28.4632 35.0621,25.7052 C35.0691,22.9442 32.8361,20.7002 30.0751,20.6932 L30.0621,20.6932 Z M30.0621,20.6932 L30.0721,21.6932 C32.2781,21.6982 34.0671,23.4972 34.0621,25.7032 C34.0571,27.9032 32.2621,29.6932 30.0521,29.6932 C27.8471,29.6882 26.0571,27.8892 26.0621,25.6832 C26.0681,23.4832 27.8621,21.6932 30.0621,21.6932 L30.0621,20.6932 L30.0621,20.6932 Z" id="Fill-81" fill="#9B9A9A"></path>
                <path d="M28.8358,79.2066 C27.6338,79.2036 26.5048,78.7326 25.6568,77.8806 C24.8098,77.0286 24.3438,75.8976 24.3468,74.6956 C24.3528,72.2206 26.3718,70.2066 28.8468,70.2066 C31.3398,70.2126 33.3528,72.2366 33.3468,74.7176 C33.3408,77.1926 31.3218,79.2066 28.8468,79.2066 L28.8358,79.2066 Z" id="Fill-83" fill="#FFFFFF"></path>
                <path d="M28.8458,69.7068 C26.0908,69.7068 23.8538,71.9368 23.8468,74.6938 C23.8398,77.4558 26.0738,79.6998 28.8348,79.7068 L28.8478,79.7068 C31.6028,79.7068 33.8398,77.4758 33.8468,74.7188 C33.8538,71.9578 31.6208,69.7138 28.8598,69.7068 L28.8458,69.7068 Z M28.8458,69.7068 L28.8568,70.7068 C31.0628,70.7118 32.8518,72.5108 32.8468,74.7168 C32.8418,76.9158 31.0478,78.7068 28.8368,78.7068 C27.7688,78.7038 26.7648,78.2848 26.0118,77.5278 C25.2578,76.7698 24.8448,75.7648 24.8468,74.6968 C24.8528,72.4968 26.6468,70.7068 28.8458,70.7068 L28.8458,69.7068 L28.8458,69.7068 Z" id="Fill-85" fill="#9B9A9A"></path>
                <path d="M74.9888,55.3047 C73.7868,55.3017 72.6578,54.8307 71.8098,53.9787 C70.9628,53.1267 70.4968,51.9957 70.4998,50.7937 C70.5058,48.3187 72.5248,46.3047 74.9998,46.3047 C76.2128,46.3077 77.3418,46.7787 78.1898,47.6307 C79.0378,48.4827 79.5028,49.6137 79.4998,50.8157 C79.4938,53.2907 77.4758,55.3047 75.0008,55.3047 L74.9888,55.3047 Z" id="Fill-87" fill="#FFFFFF"></path>
                <path d="M74.9996,45.805 C72.2446,45.805 70.0066,48.035 69.9996,50.792 C69.9936,53.554 72.2266,55.798 74.9876,55.805 L74.9996,55.805 C77.7556,55.805 79.9936,53.575 79.9996,50.817 C80.0066,48.056 77.7736,45.812 75.0126,45.805 L74.9996,45.805 Z M74.9996,45.805 L75.0096,46.805 C76.0786,46.807 77.0826,47.226 77.8356,47.984 C78.5886,48.741 79.0026,49.746 78.9996,50.815 C78.9946,53.015 77.2006,54.805 74.9896,54.805 C72.7846,54.8 70.9946,53.001 70.9996,50.795 C71.0056,48.595 72.7996,46.805 74.9996,46.805 L74.9996,45.805 L74.9996,45.805 Z" id="Fill-89" fill="#9B9A9A"></path>
                <g id="Group-94" transform="translate(49.574100, 0.000000)">
                    <path d="M0.5504,0.7427 L0.3014,100.7427" id="Fill-91" fill="#FFFAF3"></path>
                    <path d="M0.5504,0.7427 L0.3014,100.7427" id="Stroke-93" stroke="#9B9A9A"></path>
                </g>
                <path d="M49.8645,105.2425 C47.3835,105.2365 45.3695,103.2125 45.3755,100.7315 C45.3815,98.2565 47.4005,96.2425 49.8755,96.2425 C51.0885,96.2455 52.2175,96.7165 53.0655,97.5685 C53.9135,98.4205 54.3785,99.5515 54.3755,100.7535 C54.3695,103.2285 52.3505,105.2425 49.8755,105.2425 L49.8645,105.2425 Z" id="Fill-95" fill="#FFFFFF"></path>
                <path d="M49.8756,95.7425 C47.1196,95.7425 44.8826,97.9725 44.8756,100.7305 C44.8686,103.4915 47.1016,105.7355 49.8636,105.7425 L49.8756,105.7425 C52.6316,105.7425 54.8686,103.5125 54.8756,100.7555 C54.8826,97.9935 52.6496,95.7495 49.8886,95.7425 L49.8756,95.7425 Z M49.8756,95.7425 L49.8856,96.7425 C52.0916,96.7475 53.8806,98.5465 53.8756,100.7525 C53.8706,102.9525 52.0756,104.7425 49.8656,104.7425 C48.7976,104.7405 47.7936,104.3215 47.0406,103.5635 C46.2866,102.8065 45.8736,101.8015 45.8756,100.7325 C45.8806,98.5325 47.6756,96.7425 49.8756,96.7425 L49.8756,95.7425 L49.8756,95.7425 Z" id="Fill-97" fill="#9B9A9A"></path>
            </g>
        </g>
    </g>
</svg>