<?xml version="1.0" encoding="UTF-8"?>
<svg width="130px" height="130px" viewBox="0 0 130 130" version="1.1" xmlns="http://www.w3.org/2000/svg" xmlns:xlink="http://www.w3.org/1999/xlink">
    <!-- Generator: Sketch 47.1 (45422) - http://www.bohemiancoding.com/sketch -->
    <title>Icon: Creative Solutions</title>
    <desc>Created with Sketch.</desc>
    <defs></defs>
    <g id="Symbols" stroke="none" stroke-width="1" fill="none" fill-rule="evenodd">
        <g id="Icon:-Creative-Solutions">
            <g id="Group-2" transform="translate(5.000000, 5.000000)">
                <path d="M93.74,30.1089 C91.862,18.1609 81.522,9.0219 69.047,9.0219 C67.216,9.0219 65.433,9.2239 63.714,9.5979 C59.137,3.7699 52.032,0.0219 44.047,0.0219 C30.24,0.0219 19.047,11.2149 19.047,25.0219 C19.047,25.9299 19.098,26.8249 19.192,27.7079 C8.188,30.3269 0,40.2149 0,52.0219 C0,65.8289 11.193,77.0219 25,77.0219 C30.319,77.0219 35.245,75.3569 39.297,72.5259 C43.031,74.7439 47.389,76.0219 52.047,76.0219 C57.234,76.0219 62.053,74.4419 66.047,71.7359 C70.041,74.4419 74.859,76.0219 80.047,76.0219 C93.854,76.0219 105.047,64.8289 105.047,51.0219 C105.047,42.2719 100.548,34.5759 93.74,30.1089" id="Fill-40" fill="#FFFFFF"></path>
                <path d="M93.74,30.1089 C91.862,18.1609 81.522,9.0219 69.047,9.0219 C67.216,9.0219 65.433,9.2239 63.714,9.5979 C59.137,3.7699 52.032,0.0219 44.047,0.0219 C30.24,0.0219 19.047,11.2149 19.047,25.0219 C19.047,25.9299 19.098,26.8249 19.192,27.7079 C8.188,30.3269 0,40.2149 0,52.0219 C0,65.8289 11.193,77.0219 25,77.0219 C30.319,77.0219 35.245,75.3569 39.297,72.5259 C43.031,74.7439 47.389,76.0219 52.047,76.0219 C57.234,76.0219 62.053,74.4419 66.047,71.7359 C70.041,74.4419 74.859,76.0219 80.047,76.0219 C93.854,76.0219 105.047,64.8289 105.047,51.0219 C105.047,42.2719 100.548,34.5759 93.74,30.1089 Z" id="Stroke-41" stroke="#9B9A9A"></path>
                <g id="Group-44" transform="translate(0.000600, 0.000000)">
                    <path d="M69.1671,9.022 L69.0461,9.022 C67.2151,9.022 65.4321,9.224 63.7131,9.598 C59.1361,3.77 52.0311,0.022 44.0461,0.022 C30.2391,0.022 19.0461,11.215 19.0461,25.022 C19.0461,25.93 19.0971,26.825 19.1921,27.708 C8.1871,30.327 0.0001,40.215 0.0001,52.022 C0.0001,65.829 11.1931,77.022 25.0001,77.022 C30.3181,77.022 35.2301,75.381 39.2821,72.55 C35.7501,70.459 32.7771,67.523 30.6411,64.022" id="Fill-42" fill="#FFFFFF"></path>
                    <path d="M69.1671,9.022 L69.0461,9.022 C67.2151,9.022 65.4321,9.224 63.7131,9.598 C59.1361,3.77 52.0311,0.022 44.0461,0.022 C30.2391,0.022 19.0461,11.215 19.0461,25.022 C19.0461,25.93 19.0971,26.825 19.1921,27.708 C8.1871,30.327 0.0001,40.215 0.0001,52.022 C0.0001,65.829 11.1931,77.022 25.0001,77.022 C30.3181,77.022 35.2301,75.381 39.2821,72.55 C35.7501,70.459 32.7771,67.523 30.6411,64.022" id="Stroke-43" stroke="#9B9A9A"></path>
                </g>
                <path d="M76.6821,55.022 C74.9221,65.963 66.0631,74.53 54.9791,75.846 L55.0001,76.022 L55.0001,120.022 L120.0001,120.022 L120.0001,55.022 L77.0011,55.022" id="Fill-45" fill="#FFFFFF"></path>
                <polygon id="Fill-46" fill="#FFFAF3" points="120.0005 108.022 120.0005 120.022 55.0005 120.022 55.0005 76.022 54.9795 108.022 75.6505 87.351 99.3195 87.351"></polygon>
                <g id="Group-49" transform="translate(69.000600, 55.000000)">
                    <path d="M7.6815,0.022 C7.5665,0.738 7.4175,1.442 7.2435,2.136 C7.1855,2.366 7.1095,2.587 7.0455,2.814 C6.9155,3.273 6.7855,3.733 6.6305,4.181 C6.5395,4.446 6.4315,4.702 6.3325,4.961 C6.1785,5.361 6.0255,5.76 5.8525,6.149 C5.7325,6.42 5.5995,6.682 5.4705,6.947 C5.2925,7.313 5.1125,7.677 4.9175,8.032 C4.7715,8.297 4.6165,8.556 4.4615,8.815 C4.2575,9.156 4.0505,9.494 3.8305,9.824 C3.6625,10.078 3.4875,10.326 3.3095,10.574 C3.0805,10.893 2.8455,11.207 2.6015,11.514 C2.4125,11.753 2.2205,11.989 2.0225,12.222 C1.7675,12.521 1.5045,12.811 1.2355,13.098 C1.0285,13.318 0.8225,13.538 0.6075,13.751 C0.4595,13.898 0.3135,14.047 0.1615,14.19 L8.0045,22.033 L33.5455,17.477 L50.9995,0.022" id="Fill-47" fill="#FFEECC"></path>
                    <path d="M7.6815,0.022 C7.5665,0.738 7.4175,1.442 7.2435,2.136 C7.1855,2.366 7.1095,2.587 7.0455,2.814 C6.9155,3.273 6.7855,3.733 6.6305,4.181 C6.5395,4.446 6.4315,4.702 6.3325,4.961 C6.1785,5.361 6.0255,5.76 5.8525,6.149 C5.7325,6.42 5.5995,6.682 5.4705,6.947 C5.2925,7.313 5.1125,7.677 4.9175,8.032 C4.7715,8.297 4.6165,8.556 4.4615,8.815 C4.2575,9.156 4.0505,9.494 3.8305,9.824 C3.6625,10.078 3.4875,10.326 3.3095,10.574 C3.0805,10.893 2.8455,11.207 2.6015,11.514 C2.4125,11.753 2.2205,11.989 2.0225,12.222 C1.7675,12.521 1.5045,12.811 1.2355,13.098 C1.0285,13.318 0.8225,13.538 0.6075,13.751 C0.4595,13.898 0.3135,14.047 0.1615,14.19 L8.0045,22.033 L33.5455,17.477 L50.9995,0.022" id="Stroke-48" stroke="#9B9A9A"></path>
                </g>
                <path d="M39.0007,72.7371 C35.0067,75.4421 30.1877,77.0221 25.0007,77.0221 C11.1937,77.0221 0.0007,65.8291 0.0007,52.0221 C0.0007,40.2831 8.0917,30.4331 19.0007,27.7461" id="Stroke-50" stroke="#9B9A9A"></path>
                <g id="Group-53" transform="translate(102.000600, 55.000000)">
                    <polyline id="Fill-51" fill="#FFF3E0" points="17.9999 53.022 0.5449 35.567 0.5449 17.477 17.9999 0.022"></polyline>
                    <polyline id="Stroke-52" stroke="#9B9A9A" points="17.9999 53.022 0.5449 35.567 0.5449 17.477 17.9999 0.022"></polyline>
                </g>
                <path d="M72.4551,72.4766 L69.1661,69.1866 C65.3711,72.7736 60.4581,75.1896 55.0001,75.8426 L55.0001,108.0216 L72.4551,90.5676 L72.4551,72.4766 Z" id="Fill-54" fill="#FFF3E0"></path>
                <path d="M72.4551,72.4766 L69.1661,69.1866 C65.3711,72.7736 60.4581,75.1896 55.0001,75.8426 L55.0001,108.0216 L72.4551,90.5676 L72.4551,72.4766 Z" id="Stroke-55" stroke="#9B9A9A"></path>
                <path d="M64.001,9.9585 C59.437,3.9225 52.198,0.0215 44.047,0.0215 C30.24,0.0215 19.047,11.2145 19.047,25.0215 C19.047,30.0245 20.516,34.6835 23.047,38.5915 L31.116,50.5255" id="Stroke-56" stroke="#9B9A9A"></path>
                <path d="M87.5005,99.022 L87.5005,99.022 C77.8355,99.022 70.0005,91.187 70.0005,81.522 C70.0005,71.857 77.8355,64.022 87.5005,64.022 C97.1655,64.022 105.0005,71.857 105.0005,81.522 C105.0005,91.187 97.1655,99.022 87.5005,99.022" id="Fill-57" fill="#FFFFFF"></path>
                <path d="M87.5005,99.022 L87.5005,99.022 C77.8355,99.022 70.0005,91.187 70.0005,81.522 C70.0005,71.857 77.8355,64.022 87.5005,64.022 C97.1655,64.022 105.0005,71.857 105.0005,81.522 C105.0005,91.187 97.1655,99.022 87.5005,99.022 Z" id="Stroke-58" stroke="#9B9A9A"></path>
                <path d="M80.5005,102.022 L94.5005,102.022" id="Stroke-59" stroke="#9B9A9A"></path>
                <path d="M80.5005,105.022 L94.5005,105.022" id="Stroke-60" stroke="#9B9A9A"></path>
                <path d="M80.5005,108.022 L94.5005,108.022" id="Stroke-61" stroke="#9B9A9A"></path>
                <path d="M84.0005,111.022 L91.0005,111.022" id="Stroke-62" stroke="#9B9A9A"></path>
                <path d="M87.5005,89.7695 L87.5005,89.7695 C90.1455,89.7695 92.2885,87.6255 92.2885,84.9815 L92.2885,84.5035 C92.2885,83.5665 91.5285,82.8065 90.5915,82.8065 C89.6545,82.8065 88.8945,83.5665 88.8945,84.5035 L88.8945,84.9815 C88.8945,87.6255 91.0385,89.7695 93.6825,89.7695 L94.0415,89.7695" id="Stroke-63" stroke="#9B9A9A"></path>
                <path d="M80.9597,89.7695 L80.9597,89.7695 C83.6037,89.7695 85.7477,87.6255 85.7477,84.9815 L85.7477,84.5035 C85.7477,83.5665 84.9877,82.8065 84.0507,82.8065 C83.1137,82.8065 82.3537,83.5665 82.3537,84.5035 L82.3537,84.9815 C82.3537,87.6255 84.4977,89.7695 87.1417,89.7695 L87.5007,89.7695" id="Stroke-64" stroke="#9B9A9A"></path>
                <path d="M30.6418,64.0215 C35.0308,71.2175 42.9548,76.0215 52.0008,76.0215 C64.4458,76.0215 74.7678,66.9275 76.6818,55.0215 L120.0008,55.0215 L120.0008,120.0215 L55.0008,120.0215 L55.0008,76.0215 L54.9798,75.8465 C66.0628,74.5305 74.9228,65.9635 76.6818,55.0215" id="Stroke-65" stroke="#9B9A9A"></path>
                <polyline id="Stroke-66" stroke="#9B9A9A" points="53.1294 60.022 69.1674 60.022 69.1674 34.522 44.1364 34.522 44.1364 20.592"></polyline>
                <polygon id="Fill-67" fill="#ED0F34" points="35.6633 57.6389 34.7533 47.6799 26.5843 53.4469"></polygon>
                <polygon id="Fill-68" fill="#FFFAF3" points="63.8747 34.522 69.1677 29.229 74.4607 34.522 69.1677 39.815"></polygon>
                <path d="M69.1677,28.522 L63.1677,34.522 L69.1677,40.522 L75.1677,34.522 L69.1677,28.522 Z M69.1677,29.936 L73.7537,34.522 L69.1677,39.108 L64.5817,34.522 L69.1677,29.936 Z" id="Fill-69" fill="#9B9A9A"></path>
                <g id="Group-72" transform="translate(87.000600, 55.000000)">
                    <path d="M0.4999,9.022 L0.4999,0.022" id="Fill-70" fill="#FFFFFF"></path>
                    <path d="M0.4999,9.022 L0.4999,0.022" id="Stroke-71" stroke="#9B9A9A"></path>
                </g>
                <path d="M105.0005,81.522 L120.0005,81.522" id="Stroke-73" stroke="#9B9A9A"></path>
                <path d="M55.0005,81.522 L70.0005,81.522" id="Stroke-74" stroke="#9B9A9A"></path>
                <path d="M49.8371,18.0215 C54.4231,12.5215 61.3261,9.0215 69.0471,9.0215 C82.8541,9.0215 94.0471,20.2145 94.0471,34.0215 C94.0471,38.7835 92.7161,43.2335 90.4051,47.0215" id="Stroke-75" stroke="#9B9A9A"></path>
                <path d="M58.1294,60.022 C58.1294,62.783 55.8904,65.022 53.1294,65.022 C50.3684,65.022 48.1294,62.783 48.1294,60.022 C48.1294,57.261 50.3684,55.022 53.1294,55.022 C55.8904,55.022 58.1294,57.261 58.1294,60.022" id="Fill-76" fill="#FFFAF3"></path>
                <path d="M58.1294,60.022 C58.1294,62.783 55.8904,65.022 53.1294,65.022 C50.3684,65.022 48.1294,62.783 48.1294,60.022 C48.1294,57.261 50.3684,55.022 53.1294,55.022 C55.8904,55.022 58.1294,57.261 58.1294,60.022 Z" id="Stroke-77" stroke="#9B9A9A"></path>
                <polygon id="Fill-78" fill="#FFFAF3" points="40.0019 22.9792 44.1359 15.8192 48.2699 22.9792"></polygon>
                <path d="M44.136,14.8188 L39.136,23.4788 L49.136,23.4788 L44.136,14.8188 Z M44.136,16.8188 L47.404,22.4788 L40.868,22.4788 L44.136,16.8188 Z" id="Fill-79" fill="#9B9A9A"></path>
            </g>
        </g>
    </g>
</svg>