<?xml version="1.0" encoding="UTF-8"?>
<svg width="130px" height="130px" viewBox="0 0 130 130" version="1.1" xmlns="http://www.w3.org/2000/svg" xmlns:xlink="http://www.w3.org/1999/xlink">
    <!-- Generator: Sketch 47.1 (45422) - http://www.bohemiancoding.com/sketch -->
    <title>Icon: Volatility</title>
    <desc>Created with Sketch.</desc>
    <defs>
        <polygon id="path-1" points="0.59 0.3514 0.59 75.267 75.5058 75.267 75.5058 0.3514 0.59 0.3514"></polygon>
        <polygon id="path-3" points="0.59 0.3064 0.59 52.267 90.5898 52.267 90.5898 0.3064 0.59 0.3064"></polygon>
        <polygon id="path-5" points="0.59 0.1524 0.59 24.267 90.5898 24.267 90.5898 0.1524 0.59 0.1524"></polygon>
        <polygon id="path-7" points="0.59 0.4664 0.59 76.267 44.3538 76.267 44.3538 0.4664 0.59 0.4664"></polygon>
        <polygon id="path-9" points="0.59 0.4664 0.59 76.267 20.9008 76.267 20.9008 0.4664 0.59 0.4664"></polygon>
    </defs>
    <g id="Symbols" stroke="none" stroke-width="1" fill="none" fill-rule="evenodd">
        <g id="Icon:-Volatility">
            <g id="Group-2" transform="translate(5.000000, 5.000000)">
                <polygon id="Fill-143" fill="#FFEECC" points="33.4041 49.6877 79.9871 49.6877 10.0001 89.9997"></polygon>
                <polygon id="Fill-144" fill="#FFF3E0" points="10 49.6877 33.404 49.6877 10 89.9997"></polygon>
                <polygon id="Fill-145" fill="#FFF3E0" points="79.9869 49.6877 99.9999 49.6877 99.9999 89.9997 9.9999 89.9997"></polygon>
                <polygon id="Stroke-146" stroke="#9B9A9A" points="10.1641 89.9996 100.0001 89.9996 100.0001 49.6876 10.1641 49.6876"></polygon>
                <polyline id="Stroke-147" stroke="#9B9A9A" points="60 90 0 90 0 14.199 100 14.199 100 49.688"></polyline>
                <g id="Group-164" transform="translate(9.574100, 13.732600)">
                    <g id="Group-151" transform="translate(0.000000, 1.000000)">
                        <mask id="mask-2" fill="white">
                            <use xlink:href="#path-1"></use>
                        </mask>
                        <g id="Clip-150"></g>
                        <path d="M0.5898,75.2674 L75.5058,0.3514" id="Stroke-149" stroke="#9B9A9A" mask="url(#mask-2)"></path>
                    </g>
                    <g id="Group-154" transform="translate(0.000000, 24.000000)">
                        <mask id="mask-4" fill="white">
                            <use xlink:href="#path-3"></use>
                        </mask>
                        <g id="Clip-153"></g>
                        <path d="M0.5898,52.2674 L90.5898,0.3064" id="Stroke-152" stroke="#9B9A9A" mask="url(#mask-4)"></path>
                    </g>
                    <g id="Group-157" transform="translate(0.000000, 52.000000)">
                        <mask id="mask-6" fill="white">
                            <use xlink:href="#path-5"></use>
                        </mask>
                        <g id="Clip-156"></g>
                        <path d="M0.5898,24.2674 L90.5898,0.1524" id="Stroke-155" stroke="#9B9A9A" mask="url(#mask-6)"></path>
                    </g>
                    <g id="Group-160">
                        <mask id="mask-8" fill="white">
                            <use xlink:href="#path-7"></use>
                        </mask>
                        <g id="Clip-159"></g>
                        <path d="M0.5898,76.2674 L44.3538,0.4664" id="Stroke-158" stroke="#9B9A9A" mask="url(#mask-8)"></path>
                    </g>
                    <g id="Group-163">
                        <mask id="mask-10" fill="white">
                            <use xlink:href="#path-9"></use>
                        </mask>
                        <g id="Clip-162"></g>
                        <path d="M0.5898,76.2674 L20.9008,0.4664" id="Stroke-161" stroke="#9B9A9A" mask="url(#mask-10)"></path>
                    </g>
                </g>
                <path d="M120,90 C120,106.569 106.568,120 90,120 C73.431,120 60,106.569 60,90 C60,73.431 73.431,60 90,60 C106.568,60 120,73.431 120,90 Z" id="Fill-165" fill="#FFFFFF"></path>
                <path d="M120,90 C120,106.569 106.568,120 90,120 C73.431,120 60,106.569 60,90 C60,73.431 73.431,60 90,60 C106.568,60 120,73.431 120,90 Z" id="Stroke-167" stroke="#9B9A9A"></path>
                <path d="M65,90 C65,76.193 76.193,65 90,65 C103.807,65 115,76.193 115,90 C115,103.807 103.807,115 90,115 C76.193,115 65,103.807 65,90 Z" id="Stroke-169" stroke="#9B9A9A"></path>
                <path d="M10.1639,90 L10.1639,6" id="Stroke-171" stroke="#9B9A9A"></path>
                <path d="M61.995,62 C60.892,61.997 59.997,61.098 60,59.995 C60.003,58.895 60.9,58 62,58 C62.539,58.001 63.041,58.211 63.418,58.589 C63.795,58.968 64.001,59.471 64,60.005 C63.997,61.105 63.1,62 62,62 L61.995,62 Z" id="Fill-173" fill="#FFFFFF"></path>
                <path d="M61.9996,57.5 C60.6226,57.5 59.5036,58.615 59.4996,59.994 C59.4966,61.375 60.6126,62.497 61.9936,62.5 L61.9996,62.5 C63.3776,62.5 64.4966,61.385 64.4996,60.006 C64.5036,58.625 63.3866,57.503 62.0056,57.5 L61.9996,57.5 Z M61.9996,57.5 L62.0036,58.5 C62.4046,58.501 62.7806,58.658 63.0626,58.942 C63.3456,59.226 63.5006,59.603 63.4996,60.004 C63.4986,60.829 62.8256,61.5 61.9966,61.5 C61.5956,61.499 61.2196,61.342 60.9366,61.058 C60.6546,60.774 60.4996,60.397 60.4996,59.996 C60.5016,59.171 61.1746,58.5 61.9996,58.5 L61.9996,57.5 L61.9996,57.5 Z" id="Fill-175" fill="#9B9A9A"></path>
                <path d="M65,90 L77.153,90 C89.771,90 100,79.771 100,67.153 L100,67.086 C96.937,65.748 93.557,65 90,65 C76.193,65 65,76.193 65,90 L65.023,90 L65,90 Z" id="Fill-177" fill="#FFFAF3"></path>
                <path d="M65,90 L77.153,90 C89.771,90 100,79.771 100,67.153 L100,67.086 C96.937,65.748 93.557,65 90,65 C76.193,65 65,76.193 65,90 L65.023,90 L65,90 Z" id="Stroke-179" stroke="#9B9A9A"></path>
                <path d="M21.995,72 C20.892,71.997 19.997,71.098 20,69.995 C20.003,68.895 20.9,68 22,68 C22.539,68.001 23.041,68.211 23.418,68.589 C23.795,68.968 24.001,69.471 24,70.005 C23.997,71.105 23.1,72 22,72 L21.995,72 Z" id="Fill-181" fill="#FFFFFF"></path>
                <path d="M21.9996,67.5 C20.6226,67.5 19.5036,68.615 19.4996,69.994 C19.4966,71.375 20.6126,72.497 21.9936,72.5 L21.9996,72.5 C23.3776,72.5 24.4966,71.385 24.4996,70.006 C24.5036,68.625 23.3866,67.503 22.0056,67.5 L21.9996,67.5 Z M21.9996,67.5 L22.0036,68.5 C22.4046,68.501 22.7806,68.658 23.0626,68.942 C23.3456,69.226 23.5006,69.603 23.4996,70.004 C23.4986,70.829 22.8256,71.5 21.9966,71.5 C21.5956,71.499 21.2196,71.342 20.9366,71.058 C20.6546,70.774 20.4996,70.397 20.4996,69.996 C20.5016,69.171 21.1746,68.5 21.9996,68.5 L21.9996,67.5 L21.9996,67.5 Z" id="Fill-183" fill="#9B9A9A"></path>
                <path d="M26.995,28 C25.892,27.997 24.997,27.098 25,25.995 C25.003,24.895 25.9,24 27,24 C27.539,24.001 28.041,24.211 28.418,24.589 C28.795,24.968 29.001,25.471 29,26.005 C28.997,27.105 28.1,28 27,28 L26.995,28 Z" id="Fill-185" fill="#FFFFFF"></path>
                <path d="M26.9996,23.5 C25.6226,23.5 24.5036,24.615 24.4996,25.994 C24.4966,27.374 25.6126,28.497 26.9936,28.5 L26.9996,28.5 C28.3776,28.5 29.4966,27.385 29.4996,26.006 C29.5036,24.625 28.3866,23.503 27.0056,23.5 L26.9996,23.5 Z M26.9996,23.5 L27.0036,24.5 C27.4046,24.501 27.7806,24.658 28.0626,24.942 C28.3456,25.226 28.5006,25.603 28.4996,26.004 C28.4986,26.829 27.8256,27.5 26.9966,27.5 C26.5956,27.499 26.2196,27.342 25.9366,27.058 C25.6546,26.774 25.4996,26.397 25.4996,25.996 C25.5016,25.171 26.1746,24.5 26.9996,24.5 L26.9996,23.5 L26.9996,23.5 Z" id="Fill-187" fill="#9B9A9A"></path>
                <polygon id="Fill-189" fill="#FFFFFF" points="6.0299 8.1602 10.1639 1.0002 14.2979 8.1602"></polygon>
                <path d="M10.1637,0 L5.1637,8.66 L15.1637,8.66 L10.1637,0 Z M10.1637,2 L13.4317,7.66 L6.8957,7.66 L10.1637,2 Z" id="Fill-191" fill="#9B9A9A"></path>
                <polygon id="Fill-193" fill="#FFFFFF" points="79.8976 14.406 87.8836 12.266 85.7436 20.252"></polygon>
                <path d="M88.5909,11.5591 L78.9319,14.1471 L86.0029,21.2181 L88.5909,11.5591 Z M87.1769,12.9731 L85.4849,19.2861 L80.8629,14.6641 L87.1769,12.9731 Z" id="Fill-195" fill="#9B9A9A"></path>
                <path d="M100,61.7138 L100,67.0858 C108.828,70.9438 115,79.7498 115,89.9998 C115,103.8068 103.807,114.9998 90,114.9998 C76.193,114.9998 65,103.8068 65,89.9998 L60,89.9998 C60,106.5678 73.432,119.9998 90,119.9998 C106.568,119.9998 120,106.5678 120,89.9998 C120,76.9388 111.65,65.8328 100,61.7138" id="Fill-197" fill="#FFFAF3"></path>
                <path d="M100,61.7138 L100,67.0858 C108.828,70.9438 115,79.7498 115,89.9998 C115,103.8068 103.807,114.9998 90,114.9998 C76.193,114.9998 65,103.8068 65,89.9998 L60,89.9998 C60,106.5678 73.432,119.9998 90,119.9998 C106.568,119.9998 120,106.5678 120,89.9998 C120,76.9388 111.65,65.8328 100,61.7138 Z" id="Stroke-199" stroke="#9B9A9A"></path>
                <path d="M90,98.6667 L90,86.0477" id="Stroke-201" stroke="#9B9A9A"></path>
                <polygon id="Fill-203" fill="#ED0F34" points="90 105.9128 97 93.7878 83 93.7878"></polygon>
            </g>
        </g>
    </g>
</svg>