<?xml version="1.0" encoding="UTF-8"?>
<svg width="130px" height="130px" viewBox="0 0 130 130" version="1.1" xmlns="http://www.w3.org/2000/svg" xmlns:xlink="http://www.w3.org/1999/xlink">
    <!-- Generator: Sketch 47.1 (45422) - http://www.bohemiancoding.com/sketch -->
    <title>Icon: Uncorrelated ideas</title>
    <desc>Created with Sketch.</desc>
    <defs></defs>
    <g id="Symbols" stroke="none" stroke-width="1" fill="none" fill-rule="evenodd">
        <g id="Icon:-Uncorrelated-ideas">
            <g id="Group-2" transform="translate(5.000000, 4.000000)">
                <polygon id="Fill-205" fill="#FFFAF3" points="4.1288 39.2151 42.4218 0.9221 80.7148 39.2151 42.4218 77.5081"></polygon>
                <path d="M42.4216,0.2148 L3.4216,39.2148 L42.4216,78.2148 L81.4216,39.2148 L42.4216,0.2148 Z M42.4216,1.6288 L80.0076,39.2148 L42.4216,76.8008 L4.8356,39.2148 L42.4216,1.6288 Z" id="Fill-207" fill="#9B9A9A"></path>
                <path d="M17.5,108.0171 L17.5,108.0171 C7.835,108.0171 0,100.1821 0,90.5171 C0,80.8521 7.835,73.0171 17.5,73.0171 C27.165,73.0171 35,80.8521 35,90.5171 C35,100.1821 27.165,108.0171 17.5,108.0171" id="Fill-209" fill="#FFFFFF"></path>
                <path d="M17.5,108.0171 L17.5,108.0171 C7.835,108.0171 0,100.1821 0,90.5171 C0,80.8521 7.835,73.0171 17.5,73.0171 C27.165,73.0171 35,80.8521 35,90.5171 C35,100.1821 27.165,108.0171 17.5,108.0171 Z" id="Stroke-211" stroke="#9B9A9A"></path>
                <path d="M10.5,111.0171 L24.5,111.0171" id="Stroke-213" stroke="#9B9A9A"></path>
                <path d="M10.5,114.0171 L24.5,114.0171" id="Stroke-215" stroke="#9B9A9A"></path>
                <path d="M10.5,117.0171 L24.5,117.0171" id="Stroke-217" stroke="#9B9A9A"></path>
                <path d="M14,120.0171 L21,120.0171" id="Stroke-219" stroke="#9B9A9A"></path>
                <path d="M17.5,98.7646 L17.5,98.7646 C20.144,98.7646 22.288,96.6206 22.288,93.9766 L22.288,93.4986 C22.288,92.5616 21.528,91.8016 20.591,91.8016 C19.654,91.8016 18.894,92.5616 18.894,93.4986 L18.894,93.9766 C18.894,96.6206 21.038,98.7646 23.682,98.7646 L24.041,98.7646" id="Stroke-221" stroke="#9B9A9A"></path>
                <path d="M10.9591,98.7646 L10.9591,98.7646 C13.6031,98.7646 15.7471,96.6206 15.7471,93.9766 L15.7471,93.4986 C15.7471,92.5616 14.9871,91.8016 14.0501,91.8016 C13.1131,91.8016 12.3531,92.5616 12.3531,93.4986 L12.3531,93.9766 C12.3531,96.6206 14.4971,98.7646 17.1411,98.7646 L17.5001,98.7646" id="Stroke-223" stroke="#9B9A9A"></path>
                <path d="M105.5,114.0171 L119.5,114.0171" id="Stroke-225" stroke="#9B9A9A"></path>
                <path d="M105.5,117.0171 L119.5,117.0171" id="Stroke-227" stroke="#9B9A9A"></path>
                <path d="M109,120.0171 L116,120.0171" id="Stroke-229" stroke="#9B9A9A"></path>
                <polygon id="Stroke-231" stroke="#9B9A9A" points="105.5 111.0167 119.5 111.0167 119.5 108.0167 105.5 108.0167"></polygon>
                <path d="M112.5,105.0171 L112.5,105.0171 C108.358,105.0171 105,101.6591 105,97.5171 L105,69.5181 C105,65.3761 108.358,62.0181 112.5,62.0181 C116.642,62.0181 120,65.3761 120,69.5181 L120,97.5171 C120,101.6591 116.642,105.0171 112.5,105.0171" id="Fill-233" fill="#FFFFFF"></path>
                <path d="M112.5,105.0171 L112.5,105.0171 C108.358,105.0171 105,101.6591 105,97.5171 L105,69.5181 C105,65.3761 108.358,62.0181 112.5,62.0181 C116.642,62.0181 120,65.3761 120,69.5181 L120,97.5171 C120,101.6591 116.642,105.0171 112.5,105.0171 Z" id="Stroke-234" stroke="#9B9A9A"></path>
                <path d="M94.3556,43.2947 C93.5486,43.2947 92.7726,42.6927 92.1716,41.5987 C89.7466,37.1877 86.8556,30.2967 86.8556,22.5167 C86.8556,12.7087 91.5616,4.2307 93.5856,1.0407 C93.8066,0.6917 94.0796,0.5007 94.3556,0.5007 C94.6316,0.5007 94.9046,0.6917 95.1256,1.0407 C97.1496,4.2297 101.8556,12.7077 101.8556,22.5167 C101.8556,30.2967 98.9646,37.1887 96.5396,41.5987 C95.9386,42.6927 95.1626,43.2947 94.3556,43.2947" id="Fill-235" fill="#FFFFFF"></path>
                <path d="M94.3552,0 C93.9222,0 93.4892,0.257 93.1632,0.772 C90.9332,4.288 86.3552,12.699 86.3552,22.517 C86.3552,30.525 89.4012,37.597 91.7332,41.84 C92.4502,43.144 93.4032,43.795 94.3552,43.795 C95.3082,43.795 96.2612,43.144 96.9772,41.84 C99.3102,37.597 102.3552,30.525 102.3552,22.517 C102.3552,12.699 97.7782,4.288 95.5482,0.772 C95.2212,0.257 94.7882,0 94.3552,0 M94.3552,1 C94.4292,1 94.5692,1.097 94.7042,1.308 C96.7042,4.461 101.3552,12.839 101.3552,22.517 C101.3552,30.191 98.4982,36.999 96.1012,41.358 C95.5992,42.271 94.9632,42.795 94.3552,42.795 C93.7482,42.795 93.1122,42.271 92.6102,41.358 C90.2132,36.998 87.3552,30.19 87.3552,22.517 C87.3552,12.84 92.0072,4.461 94.0072,1.308 C94.1412,1.097 94.2822,1 94.3552,1" id="Fill-236" fill="#9B9A9A"></path>
                <polygon id="Stroke-237" stroke="#9B9A9A" points="89.356 49.7947 99.356 49.7947 99.356 46.7947 89.356 46.7947"></polygon>
                <path d="M89.3556,52.7949 L99.3556,52.7949" id="Stroke-238" stroke="#9B9A9A"></path>
                <path d="M90.8556,55.7949 L97.8556,55.7949" id="Stroke-239" stroke="#9B9A9A"></path>
                <path d="M90.4182,31.7092 L90.4182,31.7092 C92.0102,31.7092 93.3002,30.4182 93.3002,28.8272 L93.3002,25.5392 C93.3002,24.9742 92.8432,24.5172 92.2792,24.5172 C91.7152,24.5172 91.2572,24.9742 91.2572,25.5392 L91.2572,28.8272 C91.2572,30.4182 92.5482,31.7092 94.1392,31.7092 L94.3552,31.7092" id="Stroke-240" stroke="#9B9A9A"></path>
                <path d="M94.3556,31.7092 L94.3556,31.7092 C95.9476,31.7092 97.2376,30.4182 97.2376,28.8272 L97.2376,25.5392 C97.2376,24.9742 96.7806,24.5172 96.2166,24.5172 C95.6526,24.5172 95.1946,24.9742 95.1946,25.5392 L95.1946,28.8272 C95.1946,30.4182 96.4856,31.7092 98.0766,31.7092 L98.2936,31.7092" id="Stroke-241" stroke="#9B9A9A"></path>
                <polyline id="Stroke-242" stroke="#9B9A9A" points="42.4214 34.2146 42.4214 8.9486 77.3584 8.9486"></polyline>
                <path d="M32.7524,47.1367 L17.5004,73.0167" id="Stroke-243" stroke="#9B9A9A"></path>
                <polyline id="Stroke-244" stroke="#9B9A9A" points="52.0902 47.1369 73.5312 83.5179 88.2932 83.5169"></polyline>
                <path d="M24.7189,62.7268 C23.6159,62.7238 22.7209,61.8248 22.7239,60.7218 C22.7269,59.6218 23.6239,58.7268 24.7239,58.7268 C25.2629,58.7278 25.7649,58.9378 26.1419,59.3158 C26.5189,59.6948 26.7249,60.1978 26.7239,60.7318 C26.7209,61.8318 25.8239,62.7268 24.7239,62.7268 L24.7189,62.7268 Z" id="Fill-245" fill="#FFFFFF"></path>
                <path d="M24.7239,58.2265 C23.3459,58.2265 22.2269,59.3415 22.2239,60.7205 C22.2209,62.1015 23.3369,63.2235 24.7179,63.2265 L24.7239,63.2265 C26.1019,63.2265 27.2209,62.1115 27.2239,60.7325 C27.2269,59.3515 26.1109,58.2295 24.7299,58.2265 L24.7239,58.2265 Z M24.7239,58.2265 L24.7279,59.2265 C25.5549,59.2285 26.2259,59.9035 26.2239,60.7305 C26.2219,61.5555 25.5489,62.2265 24.7199,62.2265 C24.3189,62.2255 23.9429,62.0685 23.6609,61.7845 C23.3779,61.5005 23.2229,61.1235 23.2239,60.7235 C23.2259,59.8975 23.8989,59.2265 24.7239,59.2265 L24.7239,58.2265 L24.7239,58.2265 Z" id="Fill-246" fill="#9B9A9A"></path>
                <path d="M59.995,62.7268 C58.892,62.7238 57.997,61.8248 58,60.7218 C58.003,59.6218 58.9,58.7268 60,58.7268 C60.539,58.7278 61.041,58.9378 61.418,59.3158 C61.795,59.6948 62.001,60.1978 62,60.7318 C61.997,61.8318 61.1,62.7268 60,62.7268 L59.995,62.7268 Z" id="Fill-247" fill="#FFFFFF"></path>
                <path d="M59.9998,58.2265 C58.6218,58.2265 57.5028,59.3415 57.4998,60.7205 C57.4968,62.1015 58.6128,63.2235 59.9938,63.2265 L59.9998,63.2265 C61.3778,63.2265 62.4968,62.1115 62.4998,60.7325 C62.5028,59.3515 61.3868,58.2295 60.0058,58.2265 L59.9998,58.2265 Z M59.9998,58.2265 L60.0038,59.2265 C60.4048,59.2275 60.7808,59.3845 61.0628,59.6685 C61.3458,59.9525 61.5008,60.3295 61.4998,60.7305 C61.4978,61.5555 60.8248,62.2265 59.9968,62.2265 C59.5958,62.2255 59.2188,62.0685 58.9368,61.7845 C58.6538,61.5005 58.4988,61.1235 58.4998,60.7235 C58.5018,59.8975 59.1748,59.2265 59.9998,59.2265 L59.9998,58.2265 L59.9998,58.2265 Z" id="Fill-248" fill="#9B9A9A"></path>
                <path d="M51.1189,10.9482 C50.0159,10.9452 49.1209,10.0462 49.1239,8.9432 C49.1269,7.8432 50.0239,6.9482 51.1239,6.9482 C51.6629,6.9492 52.1649,7.1592 52.5419,7.5372 C52.9189,7.9162 53.1249,8.4192 53.1239,8.9532 C53.1209,10.0532 52.2239,10.9482 51.1239,10.9482 L51.1189,10.9482 Z" id="Fill-249" fill="#FFFFFF"></path>
                <path d="M51.1238,6.4482 C49.7458,6.4482 48.6268,7.5632 48.6238,8.9422 C48.6208,10.3232 49.7368,11.4452 51.1178,11.4482 L51.1238,11.4482 C52.5018,11.4482 53.6208,10.3332 53.6238,8.9542 C53.6268,7.5732 52.5108,6.4512 51.1298,6.4482 L51.1238,6.4482 Z M51.1238,6.4482 L51.1278,7.4482 C51.5288,7.4492 51.9048,7.6062 52.1868,7.8902 C52.4698,8.1742 52.6248,8.5512 52.6238,8.9522 C52.6218,9.7772 51.9488,10.4482 51.1208,10.4482 C50.7198,10.4472 50.3428,10.2902 50.0608,10.0062 C49.7778,9.7222 49.6228,9.3452 49.6238,8.9442 C49.6258,8.1192 50.2988,7.4482 51.1238,7.4482 L51.1238,6.4482 L51.1238,6.4482 Z" id="Fill-250" fill="#9B9A9A"></path>
                <path d="M3.8495,39.2177 L81.0005,39.2177" id="Stroke-251" stroke="#9B9A9A"></path>
                <polygon id="Fill-252" fill="#FFFFFF" points="77.8582 4.8142 85.0182 8.9482 77.8582 13.0822"></polygon>
                <path d="M77.3582,3.9482 L77.3582,13.9482 L86.0182,8.9482 L77.3582,3.9482 Z M78.3582,5.6802 L84.0182,8.9482 L78.3582,12.2162 L78.3582,5.6802 Z" id="Fill-253" fill="#9B9A9A"></path>
                <polygon id="Fill-254" fill="#ED0F34" points="100.4178 83.5176 88.2938 76.5176 88.2938 90.5176"></polygon>
                <path d="M54.9214,39.2146 C54.9214,46.1186 49.3254,51.7146 42.4214,51.7146 C35.5174,51.7146 29.9214,46.1186 29.9214,39.2146 C29.9214,32.3106 35.5174,26.7146 42.4214,26.7146 C49.3254,26.7146 54.9214,32.3106 54.9214,39.2146" id="Fill-255" fill="#FFEECC"></path>
                <path d="M54.9214,39.2146 C54.9214,46.1186 49.3254,51.7146 42.4214,51.7146 C35.5174,51.7146 29.9214,46.1186 29.9214,39.2146 C29.9214,32.3106 35.5174,26.7146 42.4214,26.7146 C49.3254,26.7146 54.9214,32.3106 54.9214,39.2146 Z" id="Stroke-256" stroke="#9B9A9A"></path>
                <path d="M47.4214,39.2146 C47.4214,41.9756 45.1824,44.2146 42.4214,44.2146 C39.6604,44.2146 37.4214,41.9756 37.4214,39.2146 C37.4214,36.4536 39.6604,34.2146 42.4214,34.2146 C45.1824,34.2146 47.4214,36.4536 47.4214,39.2146" id="Fill-257" fill="#FFF3E0"></path>
                <path d="M47.4214,39.2146 C47.4214,41.9756 45.1824,44.2146 42.4214,44.2146 C39.6604,44.2146 37.4214,41.9756 37.4214,39.2146 C37.4214,36.4536 39.6604,34.2146 42.4214,34.2146 C45.1824,34.2146 47.4214,36.4536 47.4214,39.2146 Z" id="Stroke-258" stroke="#9B9A9A"></path>
                <path d="M109.5,95.3723 C109.5,92.3263 110.561,89.3753 112.5,87.0253 C114.439,84.6763 115.5,81.7253 115.5,78.6793 L115.5,74.7673 C115.5,73.1103 114.157,71.7673 112.5,71.7673 C110.843,71.7673 109.5,73.1103 109.5,74.7673 L109.5,78.6793 C109.5,81.7253 110.561,84.6763 112.5,87.0253 C114.439,89.3753 115.5,92.3263 115.5,95.3723" id="Stroke-259" stroke="#9B9A9A"></path>
            </g>
        </g>
    </g>
</svg>