<?xml version="1.0" encoding="UTF-8"?>
<svg width="130px" height="130px" viewBox="0 0 130 130" version="1.1" xmlns="http://www.w3.org/2000/svg" xmlns:xlink="http://www.w3.org/1999/xlink">
    <!-- Generator: Sketch 47.1 (45422) - http://www.bohemiancoding.com/sketch -->
    <title>Icon: Macro Trading</title>
    <desc>Created with Sketch.</desc>
    <defs></defs>
    <g id="Symbols" stroke="none" stroke-width="1" fill="none" fill-rule="evenodd">
        <g id="Icon:-Macro-Trading">
            <g id="Group-2" transform="translate(10.000000, 5.000000)">
                <polygon id="Fill-265" fill="#FFF3E0" points="0 90.146 35 90.146 35 10.146 0 10.146"></polygon>
                <polygon id="Stroke-266" stroke="#9B9A9A" points="0 90.146 35 90.146 35 10.146 0 10.146"></polygon>
                <polygon id="Fill-267" fill="#FFF3E0" points="45 90.146 80 90.146 80 10.146 45 10.146"></polygon>
                <polygon id="Stroke-268" stroke="#9B9A9A" points="45 90.146 80 90.146 80 10.146 45 10.146"></polygon>
                <path d="M0,56.0496 L0,66.0496" id="Stroke-269" stroke="#9B9A9A"></path>
                <path d="M5,60.0496 L5,70.0496" id="Stroke-270" stroke="#9B9A9A"></path>
                <path d="M10,58.0496 L10,68.0496" id="Stroke-271" stroke="#9B9A9A"></path>
                <path d="M15,60.0496 L15,70.0496" id="Stroke-272" stroke="#9B9A9A"></path>
                <path d="M20,62.0496 L20,72.0496" id="Stroke-273" stroke="#9B9A9A"></path>
                <path d="M74.9978,40.0496 L74.9978,50.0496" id="Stroke-274" stroke="#9B9A9A"></path>
                <path d="M25,60.0496 L25,70.0496" id="Stroke-275" stroke="#9B9A9A"></path>
                <path d="M69.9978,44.0496 L69.9978,54.0496" id="Stroke-276" stroke="#9B9A9A"></path>
                <path d="M30,56.0496 L30,66.0496" id="Stroke-277" stroke="#9B9A9A"></path>
                <path d="M64.9978,46.0496 L64.9978,56.0496" id="Stroke-278" stroke="#9B9A9A"></path>
                <path d="M59.9978,44.0496 L59.9978,54.0496" id="Stroke-279" stroke="#9B9A9A"></path>
                <path d="M110,90.098 C110,106.693 96.547,120.146 79.952,120.146 C63.356,120.146 49.903,106.693 49.903,90.098 C49.903,73.503 63.356,60.05 79.952,60.05 C96.547,60.05 110,73.503 110,90.098" id="Fill-280" fill="#FFFFFF"></path>
                <path d="M54.9978,42.0496 L54.9978,52.0496" id="Stroke-281" stroke="#9B9A9A"></path>
                <path d="M56.3572,108.6927 C61.4732,112.7297 67.9282,115.1467 74.9512,115.1467 C91.5472,115.1467 105.0002,101.6927 105.0002,85.0977 C105.0002,78.0747 102.5842,71.6197 98.5462,66.5037 L98.5512,66.4967 C105.5242,71.9997 110.0002,80.5257 110.0002,90.0977 C110.0002,106.6927 96.5472,120.1467 79.9512,120.1467 C70.3792,120.1467 61.8532,115.6707 56.3502,108.6977 L56.3572,108.6927 Z" id="Fill-282" fill="#FFFAF3"></path>
                <path d="M49.9978,44.0496 L49.9978,54.0496" id="Stroke-283" stroke="#9B9A9A"></path>
                <path d="M52.5657,102.4808 C56.3417,104.1918 60.5347,105.1458 64.9507,105.1458 C81.5457,105.1458 94.9987,91.6918 94.9987,75.0968 C94.9987,70.6808 94.0457,66.4888 92.3347,62.7118 L98.5467,66.5028 C102.5837,71.6198 104.9997,78.0748 104.9997,85.0978 C104.9997,101.6928 91.5467,115.1468 74.9517,115.1468 C67.9287,115.1468 61.4737,112.7298 56.3577,108.6928 L52.5657,102.4808 Z" id="Fill-284" fill="#FFFAF3"></path>
                <path d="M56.3572,108.6927 C61.4732,112.7297 67.9282,115.1467 74.9512,115.1467 C91.5472,115.1467 105.0002,101.6927 105.0002,85.0977 C105.0002,78.0747 102.5842,71.6197 98.5462,66.5037" id="Stroke-285" stroke="#9B9A9A"></path>
                <path d="M52.5657,102.4808 C56.3417,104.1918 60.5347,105.1458 64.9507,105.1458 C81.5457,105.1458 94.9987,91.6918 94.9987,75.0968 C94.9987,70.6808 94.0457,66.4888 92.3347,62.7118" id="Stroke-286" stroke="#9B9A9A"></path>
                <polyline id="Stroke-287" stroke="#9B9A9A" points="45 25.1478 50 20.1478 60 30.1478 70 20.1478 80 10.1468"></polyline>
                <polyline id="Stroke-288" stroke="#9B9A9A" points="0 55.1512 10 45.1502 20 35.1492 30 45.1502 35 35.1492"></polyline>
                <polygon id="Fill-289" fill="#FFFAF3" points="14.7071 35.1492 20.0001 29.8562 25.2931 35.1492 20.0001 40.4422"></polygon>
                <path d="M20,29.1492 L14,35.1492 L20,41.1492 L26,35.1492 L20,29.1492 Z M20,30.5632 L24.586,35.1492 L20,39.7352 L15.414,35.1492 L20,30.5632 Z" id="Fill-290" fill="#9B9A9A"></path>
                <g id="Group-293" transform="translate(57.913000, 68.000000)">
                    <path d="M43.286,43.3455 L0.824,0.8835" id="Fill-291" fill="#FFFFFF"></path>
                    <path d="M43.286,43.3455 L0.824,0.8835" id="Stroke-292" stroke="#9B9A9A"></path>
                </g>
                <polygon id="Fill-294" fill="#FFFAF3" points="67.6372 77.7879 75.6342 79.8899 69.8152 85.7639"></polygon>
                <path d="M66.9268,77.0843 L69.5608,86.7313 L76.5978,79.6263 L66.9268,77.0843 Z M68.3478,78.4913 L74.6688,80.1533 L70.0698,84.7963 L68.3478,78.4913 Z" id="Fill-295" fill="#9B9A9A"></path>
                <polygon id="Fill-296" fill="#FFFAF3" points="0 5.146 35 5.146 35 0.146 0 0.146"></polygon>
                <polygon id="Stroke-297" stroke="#9B9A9A" points="0 5.146 35 5.146 35 0.146 0 0.146"></polygon>
                <g id="Group-300" transform="translate(44.913000, 0.000000)">
                    <path d="M0.087,0.1463 L35.087,0.1463" id="Fill-298" fill="#FFFFFF"></path>
                    <path d="M0.087,0.1463 L35.087,0.1463" id="Stroke-299" stroke="#9B9A9A" stroke-linecap="square"></path>
                </g>
                <polygon id="Fill-301" fill="#FFFAF3" points="45 10.146 80 10.146 80 5.146 45 5.146"></polygon>
                <polygon id="Stroke-302" stroke="#9B9A9A" points="45 10.146 80 10.146 80 5.146 45 5.146"></polygon>
                <path d="M60,32.648 C57.519,32.648 55.5,30.629 55.5,28.148 C55.5,25.667 57.519,23.648 60,23.648 C62.481,23.648 64.5,25.667 64.5,28.148 C64.5,30.629 62.481,32.648 60,32.648" id="Fill-303" fill="#FFFAF3"></path>
                <path d="M60,23.148 C57.239,23.148 55,25.387 55,28.148 C55,30.909 57.239,33.148 60,33.148 C62.762,33.148 65,30.909 65,28.148 C65,25.387 62.762,23.148 60,23.148 M60,24.148 C62.206,24.148 64,25.942 64,28.148 C64,30.354 62.206,32.148 60,32.148 C57.794,32.148 56,30.354 56,28.148 C56,25.942 57.794,24.148 60,24.148" id="Fill-304" fill="#9B9A9A"></path>
                <path d="M110,90.098 C110,106.693 96.547,120.146 79.952,120.146 C63.356,120.146 49.903,106.693 49.903,90.098 C49.903,73.503 63.356,60.05 79.952,60.05 C96.547,60.05 110,73.503 110,90.098 Z" id="Stroke-305" stroke="#9B9A9A"></path>
                <path d="M56.3504,108.6981 C52.3124,103.5821 49.9034,97.1211 49.9034,90.0981 C49.9034,73.5031 63.3564,60.0501 79.9514,60.0501 C86.9754,60.0501 93.4354,62.4591 98.5514,66.4971" id="Stroke-306" stroke="#9B9A9A"></path>
                <polyline id="Stroke-307" stroke="#9B9A9A" points="85 60.0496 85 95.1466 49.903 95.1466"></polyline>
                <path d="M91.1204,96.4974 C91.1204,99.2594 88.8814,101.4974 86.1204,101.4974 C83.3594,101.4974 81.1204,99.2594 81.1204,96.4974 C81.1204,93.7364 83.3594,91.4974 86.1204,91.4974 C88.8814,91.4974 91.1204,93.7364 91.1204,96.4974" id="Fill-308" fill="#ED0F34"></path>
            </g>
        </g>
    </g>
</svg>