<?xml version="1.0" encoding="UTF-8"?>
<svg width="130px" height="130px" viewBox="0 0 130 130" version="1.1" xmlns="http://www.w3.org/2000/svg" xmlns:xlink="http://www.w3.org/1999/xlink">
    <!-- Generator: Sketch 47.1 (45422) - http://www.bohemiancoding.com/sketch -->
    <title>Icon: Direct lending</title>
    <desc>Created with Sketch.</desc>
    <defs></defs>
    <g id="Symbols" stroke="none" stroke-width="1" fill="none" fill-rule="evenodd">
        <g id="Icon:-Direct-lending">
            <g id="Group-2" transform="translate(5.000000, 7.000000)">
                <polygon id="Fill-418" fill="#FFF3E0" points="59.9995 115.398 119.9995 115.398 119.9995 55.398 59.9995 55.398"></polygon>
                <polygon id="Stroke-419" stroke="#9B9A9A" points="59.9995 115.398 119.9995 115.398 119.9995 55.398 59.9995 55.398"></polygon>
                <g id="Group-422" transform="translate(59.368500, 55.000000)">
                    <path d="M60.6315,0.3985 L0.6315,0.3985 L0.6315,60.3985 C33.7685,60.3985 60.6315,33.5355 60.6315,0.3985" id="Fill-420" fill="#FFFFFF"></path>
                    <path d="M60.6315,0.3985 L0.6315,0.3985 L0.6315,60.3985 C33.7685,60.3985 60.6315,33.5355 60.6315,0.3985" id="Stroke-421" stroke="#9B9A9A"></path>
                </g>
                <path d="M60,68.9739 C62.983,70.2109 66.252,70.8939 69.678,70.8939 C80.161,70.8939 89.179,64.4959 93.032,55.3989 L60,55.3989 L60,68.9739 Z" id="Fill-423" fill="#FFFFFF"></path>
                <path d="M60,68.9739 C62.983,70.2109 66.252,70.8939 69.678,70.8939 C80.161,70.8939 89.179,64.4959 93.032,55.3989 L60,55.3989 L60,68.9739 Z" id="Stroke-424" stroke="#9B9A9A"></path>
                <path d="M102.4262,97.825 C113.2842,86.967 120.0002,71.967 120.0002,55.398 L93.0322,55.398 C89.8292,62.96 83.0582,68.657 74.8442,70.365 L102.4262,97.825 Z" id="Fill-425" fill="#FFFFFF"></path>
                <path d="M102.4262,97.825 C113.2842,86.967 120.0002,71.967 120.0002,55.398 L93.0322,55.398 C89.8292,62.96 83.0582,68.657 74.8442,70.365 L102.4262,97.825 Z" id="Stroke-426" stroke="#9B9A9A"></path>
                <path d="M40,45.8941 C40,56.9401 31.046,65.8941 20,65.8941 C8.954,65.8941 0,56.9401 0,45.8941 L40,45.8941 Z" id="Fill-427" fill="#FFF3E0"></path>
                <path d="M40,45.8941 C40,56.9401 31.046,65.8941 20,65.8941 C8.954,65.8941 0,56.9401 0,45.8941 L40,45.8941 Z" id="Stroke-428" stroke="#9B9A9A"></path>
                <path d="M90,45.8941 C90,56.9401 81.046,65.8941 70,65.8941 C58.954,65.8941 50,56.9401 50,45.8941 L90,45.8941 Z" id="Fill-429" fill="#FFF3E0"></path>
                <path d="M90,45.8941 C90,56.9401 81.046,65.8941 70,65.8941 C58.954,65.8941 50,56.9401 50,45.8941 L90,45.8941 Z" id="Stroke-430" stroke="#9B9A9A"></path>
                <polygon id="Fill-431" fill="#FFF3E0" points="9.9995 95.398 79.9995 95.398 79.9995 85.398 9.9995 85.398"></polygon>
                <polygon id="Stroke-432" stroke="#9B9A9A" points="9.9995 95.398 79.9995 95.398 79.9995 85.398 9.9995 85.398"></polygon>
                <polygon id="Stroke-433" stroke="#9B9A9A" points="0 40.8941 20 5.8941 40 40.8941"></polygon>
                <polygon id="Stroke-434" stroke="#9B9A9A" points="90 40.8941 70 5.8941 50 40.8941"></polygon>
                <path d="M20,1.4146 L70,1.4146" id="Stroke-435" stroke="#9B9A9A"></path>
                <g id="Group-438" transform="translate(44.368500, 0.000000)">
                    <path d="M0.6315,0.8941 L0.6315,85.3951" id="Fill-436" fill="#FFFFFF"></path>
                    <path d="M0.6315,0.8941 L0.6315,85.3951" id="Stroke-437" stroke="#9B9A9A"></path>
                </g>
                <polygon id="Fill-439" fill="#FFFFFF" points="60.1585 100.398 79.9995 100.398 79.9995 90.398 60.1585 90.398"></polygon>
                <polygon id="Stroke-440" stroke="#9B9A9A" points="60.1585 100.398 79.9995 100.398 79.9995 90.398 60.1585 90.398"></polygon>
                <polygon id="Fill-441" fill="#FFFAF3" points="40.8611 23.3936 45.0101 16.2416 49.1291 23.4106"></polygon>
                <path d="M45.0119,15.242 L39.9939,23.892 L49.9939,23.913 L45.0119,15.242 Z M45.0079,17.242 L48.2639,22.909 L41.7279,22.896 L45.0079,17.242 Z" id="Fill-442" fill="#9B9A9A"></path>
                <polygon id="Fill-443" fill="#FFFAF3" points="40.8611 72.7252 45.0101 65.5732 49.1291 72.7422"></polygon>
                <path d="M45.0119,64.5735 L39.9939,73.2235 L49.9939,73.2435 L45.0119,64.5735 Z M45.0079,66.5735 L48.2639,72.2405 L41.7279,72.2275 L45.0079,66.5735 Z" id="Fill-444" fill="#9B9A9A"></path>
                <g id="Group-447" transform="translate(74.368500, 70.000000)">
                    <path d="M0.444,0.211 L28.058,27.825" id="Fill-445" fill="#FFFAF3"></path>
                    <path d="M0.444,0.211 L28.058,27.825" id="Stroke-446" stroke="#9B9A9A"></path>
                </g>
                <polyline id="Stroke-448" stroke="#9B9A9A" points="20 65.8941 20 90.3981 60.159 90.3981"></polyline>
                <polygon id="Fill-449" fill="#FFFAF3" points="84.8765 87.76 92.3615 87.76 92.3615 80.275 84.8765 80.275"></polygon>
                <path d="M84.3765,88.26 L92.8615,88.26 L92.8615,79.775 L84.3765,79.775 L84.3765,88.26 Z M85.3765,87.26 L91.8615,87.26 L91.8615,80.775 L85.3765,80.775 L85.3765,87.26 Z" id="Fill-450" fill="#9B9A9A"></path>
                <g id="Group-453" transform="translate(106.368500, 24.000000)">
                    <path d="M0.1476,31.3985 L0.1476,0.1845" id="Fill-451" fill="#FFFAF3"></path>
                    <path d="M0.1476,31.3985 L0.1476,0.1845" id="Stroke-452" stroke="#9B9A9A"></path>
                </g>
                <polygon id="Fill-454" fill="#ED0F34" points="111.5151 31.9583 101.5171 32.1473 106.3521 23.3943"></polygon>
                <path d="M59.999,63.2178 C62.941,64.9198 66.357,65.8938 70,65.8938 C77.605,65.8938 84.219,61.6488 87.602,55.3988 L60,55.3988 L59.999,63.2178 Z" id="Fill-455" fill="#FFF3E0"></path>
                <path d="M59.999,63.2178 C62.941,64.9198 66.357,65.8938 70,65.8938 C77.605,65.8938 84.219,61.6488 87.602,55.3988 L60,55.3988 L59.999,63.2178 Z" id="Stroke-456" stroke="#9B9A9A"></path>
                <polygon id="Fill-457" fill="#FFFAF3" points="33.2986 29.1666 6.7016 29.1666 19.9996 5.8946"></polygon>
                <polygon id="Stroke-458" stroke="#9B9A9A" points="33.2986 29.1666 6.7016 29.1666 19.9996 5.8946"></polygon>
                <polygon id="Fill-459" fill="#FFFAF3" points="83.2986 29.1666 56.7016 29.1666 69.9996 5.8946"></polygon>
                <polygon id="Stroke-460" stroke="#9B9A9A" points="83.2986 29.1666 56.7016 29.1666 69.9996 5.8946"></polygon>
                <path d="M20,10.3941 C17.519,10.3941 15.5,8.3751 15.5,5.8941 C15.5,3.4131 17.519,1.3941 20,1.3941 C22.481,1.3941 24.5,3.4131 24.5,5.8941 C24.5,8.3751 22.481,10.3941 20,10.3941" id="Fill-461" fill="#FFFFFF"></path>
                <path d="M20,0.8941 C17.239,0.8941 15,3.1331 15,5.8941 C15,8.6551 17.239,10.8941 20,10.8941 C22.761,10.8941 25,8.6551 25,5.8941 C25,3.1331 22.761,0.8941 20,0.8941 M20,1.8941 C22.206,1.8941 24,3.6881 24,5.8941 C24,8.1001 22.206,9.8941 20,9.8941 C17.794,9.8941 16,8.1001 16,5.8941 C16,3.6881 17.794,1.8941 20,1.8941" id="Fill-462" fill="#9B9A9A"></path>
                <path d="M70,10.3941 C67.519,10.3941 65.5,8.3751 65.5,5.8941 C65.5,3.4131 67.519,1.3941 70,1.3941 C72.481,1.3941 74.5,3.4131 74.5,5.8941 C74.5,8.3751 72.481,10.3941 70,10.3941" id="Fill-463" fill="#FFFFFF"></path>
                <path d="M70,0.8941 C67.239,0.8941 65,3.1331 65,5.8941 C65,8.6551 67.239,10.8941 70,10.8941 C72.761,10.8941 75,8.6551 75,5.8941 C75,3.1331 72.761,0.8941 70,0.8941 M70,1.8941 C72.206,1.8941 74,3.6881 74,5.8941 C74,8.1001 72.206,9.8941 70,9.8941 C67.794,9.8941 66,8.1001 66,5.8941 C66,3.6881 67.794,1.8941 70,1.8941" id="Fill-464" fill="#9B9A9A"></path>
            </g>
        </g>
    </g>
</svg>