<?xml version="1.0" encoding="UTF-8"?>
<svg width="130px" height="130px" viewBox="0 0 130 130" version="1.1" xmlns="http://www.w3.org/2000/svg" xmlns:xlink="http://www.w3.org/1999/xlink">
    <!-- Generator: Sketch 47.1 (45422) - http://www.bohemiancoding.com/sketch -->
    <title>Icon: Differentiation</title>
    <desc>Created with Sketch.</desc>
    <defs></defs>
    <g id="Symbols" stroke="none" stroke-width="1" fill="none" fill-rule="evenodd">
        <g id="Icon:-Differentiation">
            <g id="Group-2" transform="translate(5.000000, 5.000000)">
                <polygon id="Fill-203" fill="#FFFFFF" points="0.499 90.286 90.499 90.286 90.499 0.286 0.499 0.286"></polygon>
                <polygon id="Stroke-204" stroke="#9B9A9A" points="0.499 90.286 90.499 90.286 90.499 0.286 0.499 0.286"></polygon>
                <polygon id="Fill-205" fill="#FFFAF3" points="10.499 76.536 51.011 76.536 51.011 62.786 10.499 62.786"></polygon>
                <polygon id="Stroke-206" stroke="#9B9A9A" points="10.499 76.536 51.011 76.536 51.011 62.786 10.499 62.786"></polygon>
                <path d="M120.4987,82.7864 C120.4987,103.4974 103.7097,120.2864 82.9987,120.2864 C62.2877,120.2864 45.4987,103.4974 45.4987,82.7864 C45.4987,62.0754 62.2877,45.2864 82.9987,45.2864 C103.7097,45.2864 120.4987,62.0754 120.4987,82.7864" id="Fill-207" fill="#FFFFFF"></path>
                <path d="M107.9996,82.7859 C100.6916,88.6329 90.3076,88.6329 82.9996,82.7859 C75.6916,76.9399 65.3066,76.9399 57.9996,82.7859 L46.6176,91.8919 C49.2816,102.5709 56.5236,111.4299 66.1386,116.2799 L107.9996,82.7859 Z" id="Fill-208" fill="#FFF3E0"></path>
                <path d="M57.9987,82.7869 C65.3067,76.9399 75.6907,76.9399 82.9987,82.7869 C90.3067,88.6329 100.6917,88.6329 107.9987,82.7869 L119.3807,73.6809 C116.7167,63.0019 109.4747,54.1429 99.8597,49.2929 L57.9987,82.7869 Z" id="Fill-209" fill="#FFEECC"></path>
                <polygon id="Fill-210" fill="#FFF3E0" points="115.8156 76.5325 107.9996 82.7855 107.9996 82.7855"></polygon>
                <polygon id="Stroke-211" stroke="#9B9A9A" points="115.8156 76.5325 107.9996 82.7855 107.9996 82.7855"></polygon>
                <polygon id="Fill-212" fill="#FFF3E0" points="119.3795 73.6809 119.3795 73.6809 115.8155 76.5329 117.8625 74.8939"></polygon>
                <polygon id="Stroke-213" stroke="#9B9A9A" points="119.3795 73.6809 119.3795 73.6809 115.8155 76.5329 117.8625 74.8939"></polygon>
                <path d="M107.9996,82.7859 C100.6916,88.6329 90.3076,88.6329 82.9996,82.7859 C75.6916,76.9399 65.3066,76.9399 57.9996,82.7859 L46.6176,91.8919 C49.2816,102.5709 56.5236,111.4299 66.1386,116.2799 L107.9996,82.7859 Z" id="Fill-214" fill="#FFF3E0"></path>
                <path d="M107.9996,82.7859 C100.6916,88.6329 90.3076,88.6329 82.9996,82.7859 C75.6916,76.9399 65.3066,76.9399 57.9996,82.7859 L46.6176,91.8919 C49.2816,102.5709 56.5236,111.4299 66.1386,116.2799 L107.9996,82.7859 Z" id="Stroke-215" stroke="#9B9A9A"></path>
                <path d="M120.4987,82.7864 C120.4987,103.4974 103.7097,120.2864 82.9987,120.2864 C62.2877,120.2864 45.4987,103.4974 45.4987,82.7864 C45.4987,62.0754 62.2877,45.2864 82.9987,45.2864 C103.7097,45.2864 120.4987,62.0754 120.4987,82.7864 Z" id="Stroke-216" stroke="#9B9A9A"></path>
                <g id="Group-219" transform="translate(45.000000, 25.000000)">
                    <path d="M0.5316,37.7588 L45.4986,0.0268" id="Fill-217" fill="#FFFFFF"></path>
                    <path d="M0.5316,37.7588 L45.4986,0.0268" id="Stroke-218" stroke="#9B9A9A"></path>
                </g>
                <g id="Group-222" transform="translate(45.000000, 0.000000)">
                    <path d="M0.5162,62.7556 L36.5832,0.2866" id="Fill-220" fill="#FFFFFF"></path>
                    <path d="M0.5162,62.7556 L36.5832,0.2866" id="Stroke-221" stroke="#9B9A9A"></path>
                </g>
                <g id="Group-225" transform="translate(45.000000, 0.000000)">
                    <path d="M0.5026,62.7634 L11.5196,0.2864" id="Fill-223" fill="#FFFFFF"></path>
                    <path d="M0.5026,62.7634 L11.5196,0.2864" id="Stroke-224" stroke="#9B9A9A"></path>
                </g>
                <g id="Group-228" transform="translate(34.000000, 0.000000)">
                    <path d="M11.4972,62.7781 L0.4782,0.2861" id="Fill-226" fill="#FFFFFF"></path>
                    <path d="M11.4972,62.7781 L0.4782,0.2861" id="Stroke-227" stroke="#9B9A9A"></path>
                </g>
                <g id="Group-231" transform="translate(9.000000, 0.000000)">
                    <path d="M36.5026,62.7932 L0.4146,0.2862" id="Fill-229" fill="#FFFFFF"></path>
                    <path d="M36.5026,62.7932 L0.4146,0.2862" id="Stroke-230" stroke="#9B9A9A"></path>
                </g>
                <g id="Group-234" transform="translate(0.000000, 25.000000)">
                    <path d="M45.5699,37.8462 L0.4989,0.0272" id="Fill-232" fill="#FFFFFF"></path>
                    <path d="M45.5699,37.8462 L0.4989,0.0272" id="Stroke-233" stroke="#9B9A9A"></path>
                </g>
                <g id="Group-237" transform="translate(0.000000, 46.000000)">
                    <path d="M45.5919,16.8203 L0.4989,0.4073" id="Fill-235" fill="#FFFFFF"></path>
                    <path d="M45.5919,16.8203 L0.4989,0.4073" id="Stroke-236" stroke="#9B9A9A"></path>
                </g>
                <g id="Group-240" transform="translate(0.000000, 62.000000)">
                    <path d="M0.4987,0.7864 L80.1997,0.7864" id="Fill-238" fill="#FFFFFF"></path>
                    <path d="M0.4987,0.7864 L80.1997,0.7864" id="Stroke-239" stroke="#9B9A9A"></path>
                </g>
                <path d="M10.4987,62.7864 C10.4987,43.4564 26.1687,27.7864 45.4987,27.7864 C64.8287,27.7864 80.4987,43.4564 80.4987,62.7864 L10.4987,62.7864 Z" id="Fill-241" fill="#FFFFFF"></path>
                <path d="M10.4987,62.7864 C10.4987,43.4564 26.1687,27.7864 45.4987,27.7864 C64.8287,27.7864 80.4987,43.4564 80.4987,62.7864 L10.4987,62.7864 Z" id="Stroke-242" stroke="#9B9A9A"></path>
                <polygon id="Fill-243" fill="#FFFAF3" points="68.9884 13.9097 76.1284 9.7417 76.1684 18.0097"></polygon>
                <path d="M76.6246,8.873 L67.9886,13.915 L76.6726,18.873 L76.6246,8.873 Z M75.6326,10.61 L75.6646,17.146 L69.9886,13.905 L75.6326,10.61 Z" id="Fill-244" fill="#9B9A9A"></path>
                <polygon id="Fill-245" fill="#FFFAF3" points="18.5404 16.074 25.6804 20.242 18.5004 24.342"></polygon>
                <path d="M18.0446,15.2056 L17.9966,25.2056 L26.6806,20.2476 L18.0446,15.2056 Z M19.0366,16.9426 L24.6806,20.2376 L19.0046,23.4786 L19.0366,16.9426 Z" id="Fill-246" fill="#9B9A9A"></path>
                <path d="M46.6139,91.8953 L57.9989,82.7863 C65.3069,76.9393 75.6909,76.9393 82.9989,82.7863 C90.3069,88.6333 100.6919,88.6333 107.9999,82.7863 L119.3839,73.6773" id="Stroke-247" stroke="#9B9A9A"></path>
                <path d="M117.8627,74.8943 L66.1307,116.2863" id="Stroke-248" stroke="#9B9A9A"></path>
                <path d="M112.2753,59.3618 L53.7173,106.2148" id="Stroke-249" stroke="#9B9A9A"></path>
                <polygon id="Fill-250" fill="#FFFAF3" points="48.4247 106.2144 53.7177 100.9214 59.0107 106.2144 53.7177 111.5074"></polygon>
                <path d="M53.7177,100.2144 L47.7177,106.2144 L53.7177,112.2144 L59.7177,106.2144 L53.7177,100.2144 Z M53.7177,101.6284 L58.3037,106.2144 L53.7177,110.8004 L49.1317,106.2144 L53.7177,101.6284 Z" id="Fill-251" fill="#9B9A9A"></path>
                <path d="M48.6246,90.2864 L99.8666,49.2894" id="Stroke-252" stroke="#9B9A9A"></path>
                <path d="M104.8663,49.2898 C104.8663,52.0508 102.6273,54.2898 99.8663,54.2898 C97.1053,54.2898 94.8663,52.0508 94.8663,49.2898 C94.8663,46.5288 97.1053,44.2898 99.8663,44.2898 C102.6273,44.2898 104.8663,46.5288 104.8663,49.2898" id="Fill-253" fill="#ED0F34"></path>
                <path d="M45.382,62.7864 L80.499,62.7864 C80.499,54.7394 77.776,47.3314 73.211,41.4194 C67.964,42.6564 63.092,44.8654 58.796,47.8464 C58.626,47.9644 58.464,48.0934 58.295,48.2144 C57.856,48.5284 57.417,48.8414 56.99,49.1714 C56.43,49.6054 55.883,50.0554 55.345,50.5154 C55.318,50.5394 55.288,50.5614 55.26,50.5854 C51.31,53.9914 47.993,58.1124 45.51,62.7474 L45.382,62.7864 Z" id="Fill-254" fill="#FFFAF3"></path>
                <path d="M45.382,62.7864 L80.499,62.7864 C80.499,54.7394 77.776,47.3314 73.211,41.4194 C67.964,42.6564 63.092,44.8654 58.796,47.8464 C58.626,47.9644 58.464,48.0934 58.295,48.2144 C57.856,48.5284 57.417,48.8414 56.99,49.1714 C56.43,49.6054 55.883,50.0554 55.345,50.5154 C55.318,50.5394 55.288,50.5614 55.26,50.5854 C51.31,53.9914 47.993,58.1124 45.51,62.7474 L45.382,62.7864 Z" id="Stroke-255" stroke="#9B9A9A"></path>
                <g id="Group-258" transform="translate(10.000000, 62.000000)">
                    <path d="M0.4987,0.7864 L0.4987,28.2864" id="Fill-256" fill="#FFFAF3"></path>
                    <path d="M0.4987,0.7864 L0.4987,28.2864" id="Stroke-257" stroke="#9B9A9A"></path>
                </g>
                <g id="Group-261" transform="translate(10.000000, 76.000000)">
                    <path d="M0.4987,0.5364 L35.7547,0.5364" id="Fill-259" fill="#FFFAF3"></path>
                    <path d="M0.4987,0.5364 L35.7547,0.5364" id="Stroke-260" stroke="#9B9A9A"></path>
                </g>
                <polygon id="Fill-262" fill="#FFFAF3" points="24.7848 76.573 31.9248 72.405 31.9648 80.673"></polygon>
                <path d="M32.421,71.5361 L23.785,76.5781 L32.469,81.5361 L32.421,71.5361 Z M31.429,73.2731 L31.461,79.8091 L25.785,76.5681 L31.429,73.2731 Z" id="Fill-263" fill="#9B9A9A"></path>
            </g>
        </g>
    </g>
</svg>