<?xml version="1.0" encoding="UTF-8"?>
<svg width="130px" height="130px" viewBox="0 0 130 130" version="1.1" xmlns="http://www.w3.org/2000/svg" xmlns:xlink="http://www.w3.org/1999/xlink">
    <!-- Generator: Sketch 47.1 (45422) - http://www.bohemiancoding.com/sketch -->
    <title>Icon: Social Impact</title>
    <desc>Created with Sketch.</desc>
    <defs></defs>
    <g id="Symbols" stroke="none" stroke-width="1" fill="none" fill-rule="evenodd">
        <g id="Icon:-Social-Impact">
            <g id="Group-2" transform="translate(5.000000, 5.000000)">
                <polygon id="Fill-169" fill="#FFFAF3" points="0 0.2864 10 0.2864 27.5 17.7864 0 17.7864"></polygon>
                <polygon id="Fill-170" fill="#FFFAF3" points="90 0.2864 80 0.2864 62.5 17.7864 90 17.7864"></polygon>
                <g id="Group-173" transform="translate(14.683200, 0.000000)">
                    <polyline id="Fill-171" fill="#FFFFFF" points="60.3168 0.2864 30.3168 30.2864 0.3168 0.2864"></polyline>
                    <polyline id="Stroke-172" stroke="#9B9A9A" points="60.3168 0.2864 30.3168 30.2864 0.3168 0.2864"></polyline>
                </g>
                <g id="Group-176" transform="translate(19.683200, 0.000000)">
                    <polyline id="Fill-174" fill="#FFFFFF" points="50.3168 0.2864 25.3168 25.2864 0.3168 0.2864"></polyline>
                    <polyline id="Stroke-175" stroke="#9B9A9A" points="50.3168 0.2864 25.3168 25.2864 0.3168 0.2864"></polyline>
                </g>
                <polyline id="Stroke-177" stroke="#9B9A9A" points="90 90.2864 0 90.2864 0 0.2864 90 0.2864 90 38.1324"></polyline>
                <path d="M50,85.2864 L50,85.2864 C50,91.6634 51.714,97.6374 54.694,102.7864 L115.306,102.7864 C118.286,97.6374 120,91.6634 120,85.2864 C120,78.9094 118.286,72.9354 115.306,67.7864 L72.219,67.7864 L65.798,70.0754 C58.263,71.5664 55.317,70.1274 53.637,69.7554 C51.312,74.4354 50,79.7064 50,85.2864" id="Fill-178" fill="#FFF3E0"></path>
                <path d="M85.0002,120.2864 L85.0002,120.2864 C65.6702,120.2864 50.0002,104.6164 50.0002,85.2864 C50.0002,65.9564 65.6702,50.2864 85.0002,50.2864 L85.0002,50.2864 C104.3302,50.2864 120.0002,65.9564 120.0002,85.2864 C120.0002,104.6164 104.3302,120.2864 85.0002,120.2864 Z" id="Stroke-179" stroke="#9B9A9A"></path>
                <path d="M69.8471,102.7864 L100.1531,102.7864 C101.6431,97.6374 102.5001,91.6634 102.5001,85.2864 C102.5001,78.9094 101.6441,72.9354 100.1541,67.7864 L72.2181,67.7864 L69.5131,68.9734 C68.2271,73.8454 67.5001,79.3954 67.5001,85.2864 C67.5001,91.6634 68.3571,97.6374 69.8471,102.7864" id="Fill-180" fill="#FFEECC"></path>
                <path d="M0,76.1628 L15,66.1618 C24.083,60.1058 35.917,60.1058 45,66.1618 L45,66.1618 C54.083,72.2178 65.917,72.2178 75,66.1618 L75,66.1618 C84.371,59.9138 90,49.3958 90,38.1328 L90,0.2868" id="Stroke-181" stroke="#9B9A9A"></path>
                <path d="M30,53.9509 C24.762,53.9509 20.5,49.6889 20.5,44.4509 C20.5,39.2129 24.762,34.9509 30,34.9509 C35.238,34.9509 39.5,39.2129 39.5,44.4509 C39.5,49.6889 35.238,53.9509 30,53.9509" id="Fill-182" fill="#FFFAF3"></path>
                <path d="M30,34.4509 C24.477,34.4509 20,38.9279 20,44.4509 C20,49.9739 24.477,54.4509 30,54.4509 C35.523,54.4509 40,49.9739 40,44.4509 C40,38.9279 35.523,34.4509 30,34.4509 M30,35.4509 C34.962,35.4509 39,39.4889 39,44.4509 C39,49.4129 34.962,53.4509 30,53.4509 C25.038,53.4509 21,49.4129 21,44.4509 C21,39.4889 25.038,35.4509 30,35.4509" id="Fill-183" fill="#9B9A9A"></path>
                <path d="M60,53.9509 C54.762,53.9509 50.5,49.6889 50.5,44.4509 C50.5,39.2129 54.762,34.9509 60,34.9509 C65.238,34.9509 69.5,39.2129 69.5,44.4509 C69.5,49.6889 65.238,53.9509 60,53.9509" id="Fill-184" fill="#FFFAF3"></path>
                <path d="M60,34.4509 C54.477,34.4509 50,38.9279 50,44.4509 C50,49.9739 54.477,54.4509 60,54.4509 C65.523,54.4509 70,49.9739 70,44.4509 C70,38.9279 65.523,34.4509 60,34.4509 M60,35.4509 C64.962,35.4509 69,39.4889 69,44.4509 C69,49.4129 64.962,53.4509 60,53.4509 C55.038,53.4509 51,49.4129 51,44.4509 C51,39.4889 55.038,35.4509 60,35.4509" id="Fill-185" fill="#9B9A9A"></path>
                <polyline id="Stroke-186" stroke="#9B9A9A" points="80 0.2864 45 35.2864 10 0.2864"></polyline>
                <path d="M45,35.2864 L45,30.2864" id="Stroke-187" stroke="#9B9A9A"></path>
                <path d="M0,17.7864 L27.5,17.7864" id="Stroke-188" stroke="#9B9A9A"></path>
                <path d="M62.5,17.7864 L90,17.7864" id="Stroke-189" stroke="#9B9A9A"></path>
                <path d="M30,61.6196 L30,90.2866" id="Stroke-190" stroke="#9B9A9A"></path>
                <path d="M87.5793,50.6638 C96.0213,53.1578 102.5003,67.7088 102.5003,85.2868 C102.5003,104.6168 94.6653,120.2868 85.0003,120.2868 C75.3353,120.2868 67.5003,104.6168 67.5003,85.2868 C67.5003,79.3958 68.2273,73.8448 69.5133,68.9738" id="Stroke-191" stroke="#9B9A9A"></path>
                <path d="M72.2182,67.7864 L115.1652,67.7864" id="Stroke-192" stroke="#9B9A9A"></path>
                <path d="M54.6843,102.7864 L115.3163,102.7864" id="Stroke-193" stroke="#9B9A9A"></path>
                <path d="M50,85.2864 L120,85.2864" id="Stroke-194" stroke="#9B9A9A"></path>
                <g id="Group-197" transform="translate(84.683200, 55.000000)">
                    <path d="M0.3168,65.2864 L0.3168,0.7924" id="Fill-195" fill="#FFFFFF"></path>
                    <path d="M0.3168,65.2864 L0.3168,0.7924" id="Stroke-196" stroke="#9B9A9A"></path>
                </g>
                <path d="M105.1496,102.7864 C105.1496,105.5474 102.9106,107.7864 100.1496,107.7864 C97.3886,107.7864 95.1496,105.5474 95.1496,102.7864 C95.1496,100.0254 97.3886,97.7864 100.1496,97.7864 C102.9106,97.7864 105.1496,100.0254 105.1496,102.7864" id="Fill-198" fill="#FFFFFF"></path>
                <path d="M105.1496,102.7864 C105.1496,105.5474 102.9106,107.7864 100.1496,107.7864 C97.3886,107.7864 95.1496,105.5474 95.1496,102.7864 C95.1496,100.0254 97.3886,97.7864 100.1496,97.7864 C102.9106,97.7864 105.1496,100.0254 105.1496,102.7864 Z" id="Stroke-199" stroke="#9B9A9A"></path>
                <polygon id="Fill-200" fill="#ED0F34" points="75.5 85.3062 67.48 93.2862 59.5 85.2662 67.52 77.2862"></polygon>
                <polygon id="Fill-201" fill="#FFFAF3" points="25.8491 79.7693 29.9981 72.6173 34.1171 79.7863"></polygon>
                <path d="M30,71.6179 L24.982,80.2679 L34.982,80.2879 L30,71.6179 Z M29.996,73.6179 L33.252,79.2849 L26.716,79.2709 L29.996,73.6179 Z" id="Fill-202" fill="#9B9A9A"></path>
            </g>
        </g>
    </g>
</svg>