<?xml version="1.0" encoding="UTF-8"?>
<svg width="130px" height="130px" viewBox="0 0 130 130" version="1.1" xmlns="http://www.w3.org/2000/svg" xmlns:xlink="http://www.w3.org/1999/xlink">
    <!-- Generator: Sketch 47.1 (45422) - http://www.bohemiancoding.com/sketch -->
    <title>Icon: Team Experience</title>
    <desc>Created with Sketch.</desc>
    <defs></defs>
    <g id="Symbols" stroke="none" stroke-width="1" fill="none" fill-rule="evenodd">
        <g id="Icon:-Team-Experience">
            <g id="Group-2" transform="translate(5.000000, 5.000000)">
                <path d="M55.869408,62.4299 C54.378408,63.7529 52.731408,64.9449 50.938408,65.9809 C40.688408,71.8989 28.398408,71.0799 19.193408,64.8999" id="Stroke-117" stroke="#9B9A9A"></path>
                <polygon id="Fill-118" fill="#FFFFFF" points="47.482108 119.9996 120.000108 119.9996 120.000108 55.0756 47.482108 55.0756"></polygon>
                <polygon id="Stroke-119" stroke="#9B9A9A" points="47.482108 119.9996 120.000108 119.9996 120.000108 55.0756 47.482108 55.0756"></polygon>
                <path d="M119.999808,54.9387 L119.999808,54.9387 C119.999808,87.2207 94.126808,113.4597 61.986808,114.0507 L47.481808,114.0507 L47.481808,55.0767 L119.999808,54.9387 Z" id="Fill-120" fill="#FFEECC"></path>
                <path d="M91.053508,105.9287 C108.385508,95.6217 119.999508,76.7057 119.999508,55.0767 L119.999508,55.0767 L90.992508,55.0767" id="Fill-121" fill="#FFF3E0"></path>
                <path d="M84.998508,109.0705 C87.083508,108.1375 89.104508,107.0875 91.053508,105.9285" id="Fill-122" fill="#FFF3E0"></path>
                <g id="Group-125" transform="translate(35.574108, 9.713600)">
                    <path d="M0.3641,30.2864 L0.3641,0.2864" id="Fill-123" fill="#FFFFFF"></path>
                    <path d="M0.3641,30.2864 L0.3641,0.2864" id="Stroke-124" stroke="#9B9A9A"></path>
                </g>
                <path d="M47.481908,54.9392 L119.999908,54.9392 L119.999908,54.9392 C119.999908,87.2202 94.126908,113.4602 61.986908,114.0512 L47.481908,114.0512" id="Stroke-126" stroke="#9B9A9A"></path>
                <polyline id="Stroke-127" stroke="#9B9A9A" points="8.38840798 50.0024 35.938408 40.0004 63.403408 50.0024"></polyline>
                <polygon id="Fill-128" fill="#FFFAF3" points="32.195108 43.7426 39.680108 43.7426 39.680108 36.2576 32.195108 36.2576"></polygon>
                <path d="M31.696108,44.2426 L40.181108,44.2426 L40.181108,35.7576 L31.696108,35.7576 L31.696108,44.2426 Z M32.696108,43.2426 L39.181108,43.2426 L39.181108,36.7576 L32.696108,36.7576 L32.696108,43.2426 Z" id="Fill-129" fill="#9B9A9A"></path>
                <g id="Group-132" transform="translate(75.574108, 54.713600)">
                    <path d="M0.9149,57.2644 L0.9149,0.3634" id="Fill-130" fill="#FFFFFF"></path>
                    <path d="M0.9149,57.2644 L0.9149,0.3634" id="Stroke-131" stroke="#9B9A9A"></path>
                </g>
                <g id="Group-135" transform="translate(46.574108, 54.713600)">
                    <path d="M0.9078,59.3374 L0.9078,0.3624" id="Fill-133" fill="#FFFFFF"></path>
                    <path d="M0.9078,59.3374 L0.9078,0.3624" id="Stroke-134" stroke="#9B9A9A"></path>
                </g>
                <path d="M35.849908,0 L35.849908,0 C41.372908,0 45.849908,4.477 45.849908,10 C45.849908,15.523 41.372908,20 35.849908,20 C30.326908,20 25.849908,15.523 25.849908,10 C25.849908,4.477 30.326908,0 35.849908,0" id="Fill-136" fill="#FFFFFF"></path>
                <path d="M35.849908,0 L35.849908,0 C41.372908,0 45.849908,4.477 45.849908,10 C45.849908,15.523 41.372908,20 35.849908,20 C30.326908,20 25.849908,15.523 25.849908,10 C25.849908,4.477 30.326908,0 35.849908,0 Z" id="Stroke-137" stroke="#9B9A9A"></path>
                <path d="M44.500708,15.0005 C42.770708,12.0145 39.548708,10.0005 35.849708,10.0005 C32.150708,10.0005 28.928708,12.0145 27.198708,15.0005" id="Stroke-138" stroke="#9B9A9A"></path>
                <path d="M1.34130798,60.0764 L1.34130798,60.0764 C-1.41969202,55.2934 0.218307984,49.1774 5.00130798,46.4164 C9.78430798,43.6544 15.900308,45.2934 18.662308,50.0764 C21.423308,54.8594 19.784308,60.9754 15.001308,63.7364 C10.218308,66.4984 4.10230798,64.8594 1.34130798,60.0764" id="Fill-139" fill="#FFFFFF"></path>
                <path d="M1.34130798,60.0764 L1.34130798,60.0764 C-1.41969202,55.2934 0.218307984,49.1774 5.00130798,46.4164 C9.78430798,43.6544 15.900308,45.2934 18.662308,50.0764 C21.423308,54.8594 19.784308,60.9754 15.001308,63.7364 C10.218308,66.4984 4.10230798,64.8594 1.34130798,60.0764 Z" id="Stroke-140" stroke="#9B9A9A"></path>
                <path d="M10.006608,45.0842 C8.28560798,48.0752 8.15260798,51.8722 10.002608,55.0762 C11.851608,58.2792 15.206608,60.0632 18.657608,60.0682" id="Stroke-141" stroke="#9B9A9A"></path>
                <path d="M6.54760798,46.0461 C6.14760798,44.0931 5.93860798,42.0711 5.93860798,40.0001 C5.93860798,28.1651 12.791608,17.9301 22.746608,13.0481" id="Stroke-142" stroke="#9B9A9A"></path>
                <path d="M45.397508,11.5239 C47.288508,12.1549 49.144508,12.9839 50.938508,14.0189 C61.187508,19.9369 66.624508,30.9899 65.874508,42.0519" id="Stroke-143" stroke="#9B9A9A"></path>
                <polygon id="Fill-144" fill="#FFFAF3" points="14.457008 14.2937 22.641008 13.1187 19.567008 20.7937"></polygon>
                <path d="M23.427208,12.5005 L13.529208,13.9215 L19.709208,21.7835 L23.427208,12.5005 Z M21.855208,13.7365 L19.425208,19.8045 L15.385208,14.6655 L21.855208,13.7365 Z" id="Fill-145" fill="#9B9A9A"></path>
                <polygon id="Fill-146" fill="#FFFAF3" points="19.306608 64.956 27.490608 63.781 24.416608 71.456"></polygon>
                <path d="M28.276908,63.1631 L18.378908,64.5841 L24.558908,72.4461 L28.276908,63.1631 Z M26.704908,64.3991 L24.274908,70.4661 L20.234908,65.3281 L26.704908,64.3991 Z" id="Fill-147" fill="#9B9A9A"></path>
                <polygon id="Fill-148" fill="#FFFAF3" points="60.756808 35.425 68.940808 34.25 65.866808 41.925"></polygon>
                <path d="M69.727108,33.6323 L59.829108,35.0533 L66.009108,42.9153 L69.727108,33.6323 Z M68.155108,34.8683 L65.725108,40.9353 L61.685108,35.7973 L68.155108,34.8683 Z" id="Fill-149" fill="#9B9A9A"></path>
                <g id="Group-152" transform="translate(61.574108, 64.713600)">
                    <path d="M0.4115,49.3374 L0.4115,0.3624" id="Fill-150" fill="#FFFFFF"></path>
                    <path d="M0.4115,49.3374 L0.4115,0.3624" id="Stroke-151" stroke="#9B9A9A"></path>
                </g>
                <g id="Group-155" transform="translate(90.574108, 54.713600)">
                    <path d="M0.4186,51.2151 L0.4186,0.3631" id="Fill-153" fill="#FFFFFF"></path>
                    <path d="M0.4186,51.2151 L0.4186,0.3631" id="Stroke-154" stroke="#9B9A9A"></path>
                </g>
                <g id="Group-158" transform="translate(104.574108, 54.713600)">
                    <path d="M0.9222,37.2864 L0.9222,0.3634" id="Fill-156" fill="#FFFFFF"></path>
                    <path d="M0.9222,37.2864 L0.9222,0.3634" id="Stroke-157" stroke="#9B9A9A"></path>
                </g>
                <path d="M105.496308,98.3696 C103.015308,98.3696 100.996308,96.3506 100.996308,93.8696 C100.996308,91.3886 103.015308,89.3696 105.496308,89.3696 C107.977308,89.3696 109.996308,91.3886 109.996308,93.8696 C109.996308,96.3506 107.977308,98.3696 105.496308,98.3696" id="Fill-159" fill="#FFFFFF"></path>
                <path d="M105.496108,88.8696 C102.735108,88.8696 100.496108,91.1086 100.496108,93.8696 C100.496108,96.6306 102.735108,98.8696 105.496108,98.8696 C108.258108,98.8696 110.496108,96.6306 110.496108,93.8696 C110.496108,91.1086 108.258108,88.8696 105.496108,88.8696 M105.496108,89.8696 C107.702108,89.8696 109.496108,91.6636 109.496108,93.8696 C109.496108,96.0756 107.702108,97.8696 105.496108,97.8696 C103.290108,97.8696 101.496108,96.0756 101.496108,93.8696 C101.496108,91.6636 103.290108,89.8696 105.496108,89.8696" id="Fill-160" fill="#9B9A9A"></path>
                <path d="M76.489008,113.978 C75.386008,113.978 74.489008,113.081 74.489008,111.978 C74.489008,110.875 75.386008,109.978 76.489008,109.978 C77.592008,109.978 78.489008,110.875 78.489008,111.978 C78.489008,113.081 77.592008,113.978 76.489008,113.978" id="Fill-161" fill="#FFFFFF"></path>
                <path d="M76.489308,109.478 C75.108308,109.478 73.989308,110.597 73.989308,111.978 C73.989308,113.359 75.108308,114.478 76.489308,114.478 C77.869308,114.478 78.989308,113.359 78.989308,111.978 C78.989308,110.597 77.869308,109.478 76.489308,109.478 M76.489308,110.478 C77.316308,110.478 77.989308,111.151 77.989308,111.978 C77.989308,112.805 77.316308,113.478 76.489308,113.478 C75.662308,113.478 74.989308,112.805 74.989308,111.978 C74.989308,111.151 75.662308,110.478 76.489308,110.478" id="Fill-162" fill="#9B9A9A"></path>
                <path d="M61.985608,116.051 C60.882608,116.051 59.985608,115.154 59.985608,114.051 C59.985608,112.948 60.882608,112.051 61.985608,112.051 C63.088608,112.051 63.985608,112.948 63.985608,114.051 C63.985608,115.154 63.088608,116.051 61.985608,116.051" id="Fill-163" fill="#FFFFFF"></path>
                <path d="M61.985408,111.5508 C60.605408,111.5508 59.485408,112.6708 59.485408,114.0508 C59.485408,115.4318 60.605408,116.5508 61.985408,116.5508 C63.366408,116.5508 64.485408,115.4318 64.485408,114.0508 C64.485408,112.6708 63.366408,111.5508 61.985408,111.5508 M61.985408,112.5508 C62.812408,112.5508 63.485408,113.2238 63.485408,114.0508 C63.485408,114.8778 62.812408,115.5508 61.985408,115.5508 C61.158408,115.5508 60.485408,114.8778 60.485408,114.0508 C60.485408,113.2238 61.158408,112.5508 61.985408,112.5508" id="Fill-164" fill="#9B9A9A"></path>
                <polygon id="Fill-165" fill="#ED0F34" points="85.993108 111.0096 95.993108 111.0096 95.993108 101.0096 85.993108 101.0096"></polygon>
                <path d="M70.645808,60.0764 L70.645808,60.0764 C73.406808,55.2934 71.768808,49.1774 66.985808,46.4164 C62.202808,43.6544 56.086808,45.2934 53.324808,50.0764 C50.563808,54.8594 52.202808,60.9754 56.985808,63.7364 C61.768808,66.4984 67.884808,64.8594 70.645808,60.0764" id="Fill-166" fill="#FFFFFF"></path>
                <path d="M70.645808,60.0764 L70.645808,60.0764 C73.406808,55.2934 71.768808,49.1774 66.985808,46.4164 C62.202808,43.6544 56.086808,45.2934 53.324808,50.0764 C50.563808,54.8594 52.202808,60.9754 56.985808,63.7364 C61.768808,66.4984 67.884808,64.8594 70.645808,60.0764 Z" id="Stroke-167" stroke="#9B9A9A"></path>
                <path d="M61.980508,45.0842 C63.701508,48.0752 63.834508,51.8722 61.984508,55.0762 C60.135508,58.2792 56.780508,60.0632 53.329508,60.0682" id="Stroke-168" stroke="#9B9A9A"></path>
                <polygon id="Fill-559" fill="#FFFAF3" points="57.849608 84.4746 66.117608 84.5246 61.940608 91.6596"></polygon>
                <path d="M56.986608,83.9695 L61.934608,92.6595 L66.986608,84.0295 L56.986608,83.9695 Z M58.712608,84.9795 L65.248608,85.0195 L61.946608,90.6595 L58.712608,84.9795 Z" id="Fill-560" fill="#9B9A9A"></path>
            </g>
        </g>
    </g>
</svg>