<?xml version="1.0" encoding="UTF-8"?>
<svg width="130px" height="130px" viewBox="0 0 130 130" version="1.1" xmlns="http://www.w3.org/2000/svg" xmlns:xlink="http://www.w3.org/1999/xlink">
    <!-- Generator: Sketch 47.1 (45422) - http://www.bohemiancoding.com/sketch -->
    <title>Icon: Long term partnerships</title>
    <desc>Created with Sketch.</desc>
    <defs></defs>
    <g id="Symbols" stroke="none" stroke-width="1" fill="none" fill-rule="evenodd">
        <g id="Icon:-Long-term-partnerships">
            <g id="Group-2" transform="translate(5.000000, 5.000000)">
                <g id="Group">
                    <polygon id="Fill-3" fill="#FFFAF3" points="38.72 89.707 120.399 89.707 120.399 74.135 38.72 74.135"></polygon>
                    <polygon id="Fill-4" fill="#FFEECC" points="38.72 120.85 120.399 120.85 120.399 105.278 38.72 105.278"></polygon>
                    <path d="M23.4874,66.2461 C31.9454,66.2121 38.7754,59.3281 38.7414,50.8691 C38.7074,42.4111 31.8234,35.5811 23.3644,35.6151 C14.9064,35.6491 8.0764,42.5341 8.1104,50.9921 C8.1444,59.4511 15.0294,66.2801 23.4874,66.2461 Z M23.3344,27.9571 C36.0214,27.9071 46.3484,38.1511 46.3994,50.8391 C46.4504,63.5271 36.2064,73.8531 23.5184,73.9041 C10.8304,73.9541 0.5034,63.7111 0.4534,51.0231 C0.4024,38.3351 10.6464,28.0081 23.3344,27.9571 Z" id="Fill-5" fill="#FFFAF3"></path>
                    <path d="M23.4874,66.2461 C15.0294,66.2801 8.1444,59.4511 8.1104,50.9921 C8.0764,42.5341 14.9064,35.6491 23.3644,35.6151 C31.8234,35.5811 38.7074,42.4111 38.7414,50.8691 C38.7754,59.3281 31.9454,66.2121 23.4874,66.2461 Z M23.3344,27.9571 C10.6464,28.0081 0.4024,38.3351 0.4534,51.0231 C0.5034,63.7111 10.8304,73.9541 23.5184,73.9041 C36.2064,73.8531 46.4504,63.5271 46.3994,50.8391 C46.3484,38.1511 36.0214,27.9071 23.3344,27.9571 Z" id="Stroke-7" stroke="#9B9A9A"></path>
                    <path d="M50.4323,39.085 C41.9743,39.119 35.0893,32.289 35.0553,23.831 C35.0213,15.373 41.8513,8.488 50.3093,8.454 C58.7683,8.42 65.6523,15.25 65.6863,23.708 C65.7203,32.167 58.8903,39.051 50.4323,39.085 M50.2793,0.797 C37.5913,0.847 27.3473,11.174 27.3983,23.862 C27.4483,36.549 37.7753,46.793 50.4633,46.743 C63.1503,46.692 73.3953,36.365 73.3443,23.678 C73.2933,10.99 62.9663,0.746 50.2793,0.797" id="Fill-9" fill="#FFFFFF"></path>
                    <path d="M50.4323,39.085 C41.9743,39.119 35.0893,32.289 35.0553,23.831 C35.0213,15.373 41.8513,8.488 50.3093,8.454 C58.7683,8.42 65.6523,15.25 65.6863,23.708 C65.7203,32.167 58.8903,39.051 50.4323,39.085 Z M50.2793,0.797 C37.5913,0.847 27.3473,11.174 27.3983,23.862 C27.4483,36.549 37.7753,46.793 50.4633,46.743 C63.1503,46.692 73.3953,36.365 73.3443,23.678 C73.2933,10.99 62.9663,0.746 50.2793,0.797 Z" id="Stroke-11" stroke="#9B9A9A"></path>
                    <path d="M24.3705,50.0911 L24.2585,49.9801 C22.7885,48.5211 22.7785,46.1471 24.2375,44.6761 L44.1235,24.6311 C45.5815,23.1601 47.9565,23.1511 49.4265,24.6101 L49.5385,24.7211 C51.0085,26.1791 51.0185,28.5531 49.5595,30.0241 L29.6735,50.0701 C28.2155,51.5401 25.8405,51.5491 24.3705,50.0911" id="Fill-13" fill="#FFFFFF"></path>
                    <path d="M24.3705,50.0911 L24.2585,49.9801 C22.7885,48.5211 22.7785,46.1471 24.2375,44.6761 L44.1235,24.6311 C45.5815,23.1601 47.9565,23.1511 49.4265,24.6101 L49.5385,24.7211 C51.0085,26.1791 51.0185,28.5531 49.5595,30.0241 L29.6735,50.0701 C28.2155,51.5401 25.8405,51.5491 24.3705,50.0911 Z" id="Stroke-15" stroke="#9B9A9A"></path>
                    <polygon id="Stroke-17" stroke="#9B9A9A" points="38.72 120.85 120.399 120.85 120.399 74.134 38.72 74.134"></polygon>
                    <polygon id="Fill-19" fill="#FFFFFF" points="38.72 74.135 120.399 74.135 120.399 51.635 38.72 51.635"></polygon>
                    <polygon id="Stroke-20" stroke="#9B9A9A" points="38.72 74.135 120.399 74.135 120.399 51.635 38.72 51.635"></polygon>
                    <path d="M40.3446,74.1348 L120.3986,74.1348" id="Stroke-21" stroke="#9B9A9A"></path>
                    <path d="M38.7196,89.7068 L120.3986,89.7068" id="Stroke-22" stroke="#9B9A9A"></path>
                    <path d="M38.7196,105.2786 L120.3986,105.2786" id="Stroke-23" stroke="#9B9A9A"></path>
                    <path d="M48.9293,83.9209 C48.3953,83.9209 47.8933,83.7129 47.5153,83.3349 C46.7353,82.5559 46.7353,81.2859 47.5153,80.5069 C47.8933,80.1289 48.3953,79.9209 48.9293,79.9209 C49.4633,79.9209 49.9663,80.1289 50.3433,80.5069 C51.1233,81.2859 51.1233,82.5559 50.3433,83.3349 C49.9663,83.7129 49.4633,83.9209 48.9293,83.9209" id="Fill-24" fill="#FFFFFF"></path>
                    <path d="M48.9293,79.4209 C48.2893,79.4209 47.6503,79.6649 47.1613,80.1529 C46.1853,81.1289 46.1853,82.7129 47.1613,83.6889 C47.6503,84.1769 48.2893,84.4209 48.9293,84.4209 C49.5693,84.4209 50.2093,84.1769 50.6973,83.6889 C51.6733,82.7129 51.6733,81.1289 50.6973,80.1529 C50.2093,79.6649 49.5693,79.4209 48.9293,79.4209 M48.9293,80.4209 C49.3303,80.4209 49.7073,80.5769 49.9903,80.8599 C50.5753,81.4449 50.5753,82.3969 49.9903,82.9819 C49.7063,83.2649 49.3303,83.4209 48.9293,83.4209 C48.5293,83.4209 48.1523,83.2649 47.8683,82.9809 C47.5853,82.6979 47.4293,82.3209 47.4293,81.9209 C47.4293,81.5199 47.5853,81.1439 47.8683,80.8599 C48.1523,80.5769 48.5283,80.4209 48.9293,80.4209" id="Fill-25" fill="#9B9A9A"></path>
                    <path d="M110.1888,115.0645 C109.6548,115.0645 109.1518,114.8565 108.7748,114.4785 C107.9948,113.6995 107.9948,112.4305 108.7748,111.6505 C109.1518,111.2725 109.6548,111.0645 110.1888,111.0645 C110.7228,111.0645 111.2258,111.2725 111.6028,111.6505 C112.3828,112.4305 112.3828,113.6995 111.6028,114.4785 C111.2258,114.8565 110.7228,115.0645 110.1888,115.0645" id="Fill-26" fill="#FFFFFF"></path>
                    <path d="M110.1886,110.5645 C109.5486,110.5645 108.9086,110.8085 108.4206,111.2965 C107.4446,112.2725 107.4446,113.8565 108.4206,114.8325 C108.9086,115.3205 109.5486,115.5645 110.1886,115.5645 C110.8286,115.5645 111.4686,115.3205 111.9566,114.8325 C112.9326,113.8565 112.9326,112.2725 111.9566,111.2965 C111.4686,110.8085 110.8286,110.5645 110.1886,110.5645 M110.1886,111.5645 C110.5896,111.5645 110.9656,111.7205 111.2496,112.0035 C111.8346,112.5885 111.8346,113.5405 111.2496,114.1255 C110.9666,114.4085 110.5896,114.5645 110.1886,114.5645 C109.7886,114.5645 109.4116,114.4085 109.1286,114.1255 C108.5436,113.5405 108.5436,112.5885 109.1286,112.0035 C109.4116,111.7205 109.7886,111.5645 110.1886,111.5645" id="Fill-27" fill="#9B9A9A"></path>
                    <path d="M59.1393,74.1348 L59.1393,120.8508" id="Stroke-28" stroke="#9B9A9A"></path>
                    <path d="M79.5592,74.1348 L79.5592,120.8508" id="Stroke-29" stroke="#9B9A9A"></path>
                    <path d="M99.9789,74.1348 L99.9789,120.8508" id="Stroke-30" stroke="#9B9A9A"></path>
                    <polygon id="Fill-31" fill="#ED0F34" points="94.7084 97.4927 86.0484 102.4927 86.0484 92.4927"></polygon>
                    <polygon id="Fill-32" fill="#FFFFFF" points="33.4266 105.2786 38.7196 99.9856 44.0126 105.2786 38.7196 110.5716"></polygon>
                    <path d="M38.7194,99.2788 L32.7194,105.2788 L38.7194,111.2788 L44.7194,105.2788 L38.7194,99.2788 Z M38.7194,100.6928 L43.3054,105.2788 L38.7194,109.8648 L34.1334,105.2788 L38.7194,100.6928 Z" id="Fill-33" fill="#9B9A9A"></path>
                    <g id="Group-36" transform="translate(48.000000, 60.500000)">
                        <path d="M0.7206,0.1357 L32.3946,0.1357" id="Fill-34" fill="#FFFFFF"></path>
                        <path d="M0.7206,0.1357 L32.3946,0.1357" id="Stroke-35" stroke="#9B9A9A"></path>
                    </g>
                    <g id="Group-39" transform="translate(48.000000, 64.500000)">
                        <path d="M0.7206,0.136 L22.3936,0.136" id="Fill-37" fill="#FFFFFF"></path>
                        <path d="M0.7206,0.136 L22.3936,0.136" id="Stroke-38" stroke="#9B9A9A"></path>
                    </g>
                </g>
            </g>
        </g>
    </g>
</svg>