<?xml version="1.0" encoding="UTF-8"?>
<svg width="130px" height="130px" viewBox="0 0 130 130" version="1.1" xmlns="http://www.w3.org/2000/svg" xmlns:xlink="http://www.w3.org/1999/xlink">
    <!-- Generator: Sketch 47.1 (45422) - http://www.bohemiancoding.com/sketch -->
    <title>Icon: Specialists</title>
    <desc>Created with Sketch.</desc>
    <defs></defs>
    <g id="Symbols" stroke="none" stroke-width="1" fill="none" fill-rule="evenodd">
        <g id="Icon:-Specialists">
            <g id="Group-2" transform="translate(5.000000, 7.000000)">
                <path d="M54.9998,100.0222 C27.7058,100.0222 5.4998,77.8162 5.4998,50.5222 C5.4998,23.2282 27.7058,1.0222 54.9998,1.0222 C82.2938,1.0222 104.4998,23.2282 104.4998,50.5222 C104.4998,77.8162 82.2938,100.0222 54.9998,100.0222" id="Fill-99" fill="#FFFFFF"></path>
                <path d="M55,0.5219 L55,0.5219 C27.386,0.5219 5,22.9079 5,50.5219 C5,78.1359 27.386,100.5219 55,100.5219 L55,100.5219 C82.614,100.5219 105,78.1359 105,50.5219 C105,22.9079 82.614,0.5219 55,0.5219 M55,1.5219 C82.019,1.5219 104,23.5029 104,50.5219 C104,77.5409 82.019,99.5219 55,99.5219 C27.981,99.5219 6,77.5409 6,50.5219 C6,23.5029 27.981,1.5219 55,1.5219" id="Fill-101" fill="#9B9A9A"></path>
                <polygon id="Fill-103" fill="#FFFAF3" points="4.9998 50.5222 54.9998 0.5222 104.9998 50.5222 54.9998 100.5222"></polygon>
                <polygon id="Stroke-105" stroke="#9B9A9A" points="4.9998 50.5222 54.9998 0.5222 104.9998 50.5222 54.9998 100.5222"></polygon>
                <polygon id="Fill-107" fill="#FFFFFF" points="64.4998 115.0223 119.4998 115.0223 119.4998 60.1053 64.4998 60.1053"></polygon>
                <path d="M63.9998,115.5223 L119.9998,115.5223 L119.9998,59.6053 L63.9998,59.6053 L63.9998,115.5223 Z M64.9998,114.5223 L118.9998,114.5223 L118.9998,60.6053 L64.9998,60.6053 L64.9998,114.5223 Z" id="Fill-109" fill="#9B9A9A"></path>
                <path d="M89.9998,15.5222 L19.9998,85.5222" id="Stroke-110" stroke="#9B9A9A"></path>
                <path d="M54.9998,101.0222 L54.9998,20.5222" id="Stroke-111" stroke="#9B9A9A"></path>
                <polygon id="Fill-112" fill="#FFFAF3" points="64.4998 115.0633 119.4998 115.0633 119.4998 60.0633 64.4998 60.0633"></polygon>
                <path d="M63.9998,115.5643 L119.9998,115.5643 L119.9998,59.5643 L63.9998,59.5643 L63.9998,115.5643 Z M64.9998,114.5643 L118.9998,114.5643 L118.9998,60.5643 L64.9998,60.5643 L64.9998,114.5643 Z" id="Fill-113" fill="#9B9A9A"></path>
                <path d="M19.9998,15.5222 L89.9998,85.5222" id="Stroke-114" stroke="#9B9A9A"></path>
                <path d="M64.4998,60.0637 L115.3538,60.0637 C113.3958,86.9677 91.6688,108.6627 64.4998,110.8437 L64.4998,60.0637 Z" id="Fill-115" fill="#FFFFFF"></path>
                <path d="M115.8887,59.5634 L63.9997,59.5634 L63.9997,111.3824 C91.6307,109.4304 114.1447,87.2514 115.8887,59.5634 M114.8127,60.5634 C112.6387,86.7954 91.4907,107.9124 64.9997,110.2984 L64.9997,60.5634 L114.8127,60.5634" id="Fill-116" fill="#9B9A9A"></path>
                <path d="M104.4972,50.5222 L5.5022,50.5222" id="Stroke-117" stroke="#9B9A9A"></path>
                <g id="Group-120" transform="translate(24.999800, 19.952300)">
                    <path d="M30,0.5699 C13.432,0.5699 0,14.0009 0,30.5699 C0,47.1379 13.432,60.5699 30,60.5699" id="Fill-118" fill="#FFF3E0"></path>
                    <path d="M30,0.5699 C13.432,0.5699 0,14.0009 0,30.5699 C0,47.1379 13.432,60.5699 30,60.5699" id="Stroke-119" stroke="#9B9A9A"></path>
                </g>
                <path d="M54.9998,105.0222 C52.5188,105.0222 50.4998,103.0032 50.4998,100.5222 C50.4998,98.0412 52.5188,96.0222 54.9998,96.0222 C57.4808,96.0222 59.4998,98.0412 59.4998,100.5222 C59.4998,103.0032 57.4808,105.0222 54.9998,105.0222" id="Fill-121" fill="#FFFFFF"></path>
                <path d="M55,95.5219 C52.238,95.5219 50,97.7609 50,100.5219 C50,103.2839 52.238,105.5219 55,105.5219 C57.761,105.5219 60,103.2839 60,100.5219 C60,97.7609 57.761,95.5219 55,95.5219 M55,96.5219 C57.206,96.5219 59,98.3159 59,100.5219 C59,102.7279 57.206,104.5219 55,104.5219 C52.794,104.5219 51,102.7279 51,100.5219 C51,98.3159 52.794,96.5219 55,96.5219" id="Fill-122" fill="#9B9A9A"></path>
                <path d="M4.9998,55.0222 C2.5188,55.0222 0.4998,53.0032 0.4998,50.5222 C0.4998,48.0412 2.5188,46.0222 4.9998,46.0222 C7.4808,46.0222 9.4998,48.0412 9.4998,50.5222 C9.4998,53.0032 7.4808,55.0222 4.9998,55.0222" id="Fill-123" fill="#FFFFFF"></path>
                <path d="M5,45.5219 C2.238,45.5219 0,47.7609 0,50.5219 C0,53.2839 2.238,55.5219 5,55.5219 C7.761,55.5219 10,53.2839 10,50.5219 C10,47.7609 7.761,45.5219 5,45.5219 M5,46.5219 C7.206,46.5219 9,48.3159 9,50.5219 C9,52.7279 7.206,54.5219 5,54.5219 C2.794,54.5219 1,52.7279 1,50.5219 C1,48.3159 2.794,46.5219 5,46.5219" id="Fill-124" fill="#9B9A9A"></path>
                <path d="M104.9998,55.0222 C102.5188,55.0222 100.4998,53.0032 100.4998,50.5222 C100.4998,48.0412 102.5188,46.0222 104.9998,46.0222 C107.4808,46.0222 109.4998,48.0412 109.4998,50.5222 C109.4998,53.0032 107.4808,55.0222 104.9998,55.0222" id="Fill-125" fill="#FFFFFF"></path>
                <path d="M105,45.5219 C102.238,45.5219 100,47.7609 100,50.5219 C100,53.2839 102.238,55.5219 105,55.5219 C107.761,55.5219 110,53.2839 110,50.5219 C110,47.7609 107.761,45.5219 105,45.5219 M105,46.5219 C107.206,46.5219 109,48.3159 109,50.5219 C109,52.7279 107.206,54.5219 105,54.5219 C102.794,54.5219 101,52.7279 101,50.5219 C101,48.3159 102.794,46.5219 105,46.5219" id="Fill-126" fill="#9B9A9A"></path>
                <path d="M19.6445,20.0219 C18.4425,20.0219 17.3125,19.5539 16.4625,18.7039 C15.6125,17.8539 15.1445,16.7239 15.1445,15.5219 C15.1445,14.3199 15.6125,13.1899 16.4625,12.3399 C17.3125,11.4899 18.4425,11.0219 19.6445,11.0219 C20.8465,11.0219 21.9765,11.4899 22.8265,12.3399 C23.6765,13.1899 24.1445,14.3199 24.1445,15.5219 C24.1445,16.7239 23.6765,17.8539 22.8265,18.7039 C21.9765,19.5539 20.8465,20.0219 19.6445,20.0219" id="Fill-127" fill="#FFFFFF"></path>
                <path d="M19.6446,10.5224 C18.3646,10.5224 17.0856,11.0104 16.1086,11.9864 C14.1566,13.9394 14.1566,17.1054 16.1086,19.0574 C17.0856,20.0344 18.3646,20.5224 19.6446,20.5224 C20.9246,20.5224 22.2036,20.0344 23.1806,19.0574 C25.1326,17.1054 25.1326,13.9394 23.1806,11.9864 C22.2036,11.0104 20.9246,10.5224 19.6446,10.5224 M19.6446,11.5224 C20.7126,11.5224 21.7176,11.9384 22.4736,12.6934 C23.2286,13.4494 23.6446,14.4544 23.6446,15.5224 C23.6446,16.5904 23.2286,17.5954 22.4736,18.3504 C21.7176,19.1054 20.7126,19.5224 19.6446,19.5224 C18.5766,19.5224 17.5716,19.1054 16.8156,18.3504 C16.0606,17.5954 15.6446,16.5904 15.6446,15.5224 C15.6446,14.4544 16.0606,13.4494 16.8156,12.6934 C17.5716,11.9384 18.5766,11.5224 19.6446,11.5224" id="Fill-128" fill="#9B9A9A"></path>
                <polygon id="Fill-129" fill="#ED0F34" points="107.7331 84.1425 90.7241 92.2945 106.2881 102.9485"></polygon>
                <g id="Group-132" transform="translate(54.999800, 19.952300)">
                    <path d="M0,60.5699 C16.569,60.5699 30,47.1379 30,30.5699 C30,14.0009 16.569,0.5699 0,0.5699" id="Fill-130" fill="#FFF3E0"></path>
                    <path d="M0,60.5699 C16.569,60.5699 30,47.1379 30,30.5699 C30,14.0009 16.569,0.5699 0,0.5699" id="Stroke-131" stroke="#9B9A9A"></path>
                </g>
                <path d="M54.9998,80.5222 L54.9998,1.0002" id="Stroke-133" stroke="#9B9A9A"></path>
                <path d="M54.9998,65.5222 C63.2838,65.5222 69.9998,58.8062 69.9998,50.5222 C69.9998,42.2382 63.2838,35.5222 54.9998,35.5222 C46.7158,35.5222 39.9998,42.2382 39.9998,50.5222 C39.9998,58.8062 46.7158,65.5222 54.9998,65.5222" id="Fill-134" fill="#FFEECC"></path>
                <path d="M54.9998,65.5222 C63.2838,65.5222 69.9998,58.8062 69.9998,50.5222 C69.9998,42.2382 63.2838,35.5222 54.9998,35.5222 C46.7158,35.5222 39.9998,42.2382 39.9998,50.5222 C39.9998,58.8062 46.7158,65.5222 54.9998,65.5222 Z" id="Stroke-135" stroke="#9B9A9A"></path>
                <path d="M69.9998,50.5222 L39.9998,50.5222" id="Stroke-136" stroke="#9B9A9A"></path>
                <path d="M19.6445,90.3774 C18.4425,90.3774 17.3125,89.9094 16.4625,89.0594 C15.6125,88.2094 15.1445,87.0794 15.1445,85.8774 C15.1445,84.6754 15.6125,83.5454 16.4625,82.6954 C17.3125,81.8454 18.4425,81.3774 19.6445,81.3774 C20.8465,81.3774 21.9765,81.8454 22.8265,82.6954 C23.6765,83.5454 24.1445,84.6754 24.1445,85.8774 C24.1445,87.0794 23.6765,88.2094 22.8265,89.0594 C21.9765,89.9094 20.8465,90.3774 19.6445,90.3774" id="Fill-137" fill="#FFFFFF"></path>
                <path d="M19.6446,80.8774 C18.3646,80.8774 17.0856,81.3654 16.1086,82.3414 C14.1566,84.2944 14.1566,87.4604 16.1086,89.4134 C17.0856,90.3894 18.3646,90.8774 19.6446,90.8774 C20.9246,90.8774 22.2036,90.3894 23.1806,89.4134 C25.1326,87.4604 25.1326,84.2944 23.1806,82.3414 C22.2036,81.3654 20.9246,80.8774 19.6446,80.8774 M19.6446,81.8774 C20.7126,81.8774 21.7176,82.2934 22.4736,83.0484 C23.2286,83.8044 23.6446,84.8094 23.6446,85.8774 C23.6446,86.9454 23.2286,87.9504 22.4736,88.7064 C21.7176,89.4614 20.7126,89.8774 19.6446,89.8774 C18.5766,89.8774 17.5716,89.4614 16.8156,88.7064 C16.0606,87.9504 15.6446,86.9454 15.6446,85.8774 C15.6446,84.8094 16.0606,83.8044 16.8156,83.0484 C17.5716,82.2934 18.5766,81.8774 19.6446,81.8774" id="Fill-138" fill="#9B9A9A"></path>
                <path d="M90.3551,19.667 C89.1531,19.667 88.0231,19.199 87.1731,18.349 C86.3231,17.499 85.8551,16.369 85.8551,15.167 C85.8551,13.965 86.3231,12.835 87.1731,11.985 C88.0231,11.135 89.1531,10.667 90.3551,10.667 C91.5571,10.667 92.6871,11.135 93.5371,11.985 C94.3871,12.835 94.8551,13.965 94.8551,15.167 C94.8551,16.369 94.3871,17.499 93.5371,18.349 C92.6871,19.199 91.5571,19.667 90.3551,19.667" id="Fill-139" fill="#FFFFFF"></path>
                <path d="M90.355,10.167 C89.075,10.167 87.796,10.655 86.819,11.631 C84.867,13.584 84.867,16.75 86.819,18.702 C87.796,19.679 89.075,20.167 90.355,20.167 C91.635,20.167 92.914,19.679 93.891,18.702 C95.843,16.75 95.843,13.584 93.891,11.631 C92.914,10.655 91.635,10.167 90.355,10.167 M90.355,11.167 C91.423,11.167 92.428,11.583 93.184,12.338 C93.939,13.094 94.355,14.099 94.355,15.167 C94.355,16.235 93.939,17.24 93.184,17.995 C92.428,18.75 91.423,19.167 90.355,19.167 C89.287,19.167 88.282,18.75 87.526,17.995 C86.771,17.24 86.355,16.235 86.355,15.167 C86.355,14.099 86.771,13.094 87.526,12.338 C88.282,11.583 89.287,11.167 90.355,11.167" id="Fill-140" fill="#9B9A9A"></path>
            </g>
            <polygon id="Fill-141" fill="#FFFFFF" points="112.4998 60.8659 119.6598 64.9999 112.4998 69.1339"></polygon>
            <path d="M112,60 L112,70 L120.66,65 L112,60 Z M113,61.732 L118.66,65 L113,68.268 L113,61.732 Z" id="Fill-142" fill="#9B9A9A"></path>
        </g>
    </g>
</svg>