<?xml version="1.0" encoding="UTF-8"?>
<svg width="130px" height="130px" viewBox="0 0 130 130" version="1.1" xmlns="http://www.w3.org/2000/svg" xmlns:xlink="http://www.w3.org/1999/xlink">
    <!-- Generator: Sketch 47.1 (45422) - http://www.bohemiancoding.com/sketch -->
    <title>Icon: Trade Finance</title>
    <desc>Created with Sketch.</desc>
    <defs></defs>
    <g id="Symbols" stroke="none" stroke-width="1" fill="none" fill-rule="evenodd">
        <g id="Icon:-Trade-Finance">
            <g id="Group-2" transform="translate(5.000000, 5.000000)">
                <polygon id="Fill-309" fill="#FFF3E0" points="0.0002 99.825 120.0002 99.825 120.0002 0.146 0.0002 0.146"></polygon>
                <path d="M4.54747351e-13,29.846 C6.334,36.18 15.084,40.097 24.749,40.097 C44.079,40.097 59.749,24.427 59.749,5.097 C59.749,3.417 59.63,1.764 59.401,0.146 L4.54747351e-13,0.146 L4.54747351e-13,29.846 Z" id="Fill-310" fill="#FFFAF3"></path>
                <path d="M4.54747351e-13,29.846 C6.334,36.18 15.084,40.097 24.749,40.097 C44.079,40.097 59.749,24.427 59.749,5.097 C59.749,3.417 59.63,1.764 59.401,0.146 L4.54747351e-13,0.146 L4.54747351e-13,29.846 Z" id="Stroke-311" stroke="#9B9A9A"></path>
                <g id="Group-314" transform="translate(53.997200, 0.000000)">
                    <path d="M10.7516,0.1463 C10.7516,2.9073 8.5126,5.1463 5.7516,5.1463 C2.9906,5.1463 0.7516,2.9073 0.7516,0.1463" id="Fill-312" fill="#FFFFFF"></path>
                    <path d="M10.7516,0.1463 C10.7516,2.9073 8.5126,5.1463 5.7516,5.1463 C2.9906,5.1463 0.7516,2.9073 0.7516,0.1463" id="Stroke-313" stroke="#9B9A9A"></path>
                </g>
                <polygon id="Fill-315" fill="#FFFAF3" points="120.0003 0.1463 85.0003 25.1463 120.0003 25.1463"></polygon>
                <path d="M2.27373675e-13,50.1463 L2.27373675e-13,0.1463 L120,0.1463 L120,50.1463 L65.603,50.1463 C60.738,50.1463 58.738,43.9053 62.696,41.0773 L120,0.1463" id="Stroke-316" stroke="#9B9A9A"></path>
                <polygon id="Fill-317" fill="#FFFAF3" points="2.27373675e-13 100.1326 35 75.1326 2.27373675e-13 75.1326"></polygon>
                <path d="M60.3474,100.1463 C60.1184,98.5283 60.0004,96.8273 60.0004,95.1463 C60.0004,75.8163 75.6704,60.1463 95.0004,60.1463 C104.6654,60.1463 113.6664,64.2503 120.0004,70.5843 L120.0004,95.1463 L90.2964,100.1463 L60.3474,100.1463 Z" id="Fill-318" fill="#FFFFFF"></path>
                <path d="M60.3474,100.1463 C60.1184,98.5283 60.0004,96.8273 60.0004,95.1463 C60.0004,75.8163 75.6704,60.1463 95.0004,60.1463 C104.6654,60.1463 113.6664,64.2503 120.0004,70.5843 L120.0004,95.1463 L90.2964,100.1463 L60.3474,100.1463 Z" id="Stroke-319" stroke="#9B9A9A"></path>
                <path d="M120.0003,50.1463 L120.0003,95.1463 L90.2963,100.1463 L0.0003,100.1463 L0.0003,50.1463 L54.3973,50.1463 C59.2623,50.1463 61.2623,56.3873 57.3043,59.2153 L0.0003,100.1463" id="Stroke-320" stroke="#9B9A9A"></path>
                <path d="M120,95.1463 C120,108.9533 108.807,120.1463 95,120.1463 C81.193,120.1463 70,108.9533 70,95.1463 C70,81.3393 81.193,70.1463 95,70.1463 C108.807,70.1463 120,81.3393 120,95.1463" id="Fill-321" fill="#FFF3E0"></path>
                <path d="M107.3599,73.4114 C105.7979,91.5174 91.3709,105.9444 73.2639,107.5064 C77.5669,115.0564 85.6889,120.1464 94.9999,120.1464 C108.8069,120.1464 119.9999,108.9534 119.9999,95.1464 C119.9999,85.6534 114.7099,77.3974 106.9169,73.1634 L107.3599,73.4114 Z" id="Fill-322" fill="#FFFFFF"></path>
                <path d="M120,95.1463 C120,108.9533 108.807,120.1463 95,120.1463 C81.193,120.1463 70,108.9533 70,95.1463 C70,81.3393 81.193,70.1463 95,70.1463 C108.807,70.1463 120,81.3393 120,95.1463 Z" id="Stroke-323" stroke="#9B9A9A"></path>
                <path d="M0,75.1463 L55.407,75.1463" id="Stroke-324" stroke="#9B9A9A"></path>
                <polygon id="Fill-325" fill="#FFFAF3" points="51.8203 71.0098 59.0003 75.1098 51.8603 79.2778"></polygon>
                <path d="M51.3162,70.1463 L51.3642,80.1463 L60.0002,75.1043 L51.3162,70.1463 Z M52.3242,71.8733 L58.0002,75.1143 L52.3562,78.4093 L52.3242,71.8733 Z" id="Fill-326" fill="#9B9A9A"></path>
                <path d="M120.2966,25.1463 L64.8896,25.1463" id="Stroke-327" stroke="#9B9A9A"></path>
                <path d="M65.6025,50.1463 L94.8395,50.1463 C108.6195,50.1463 119.8365,39.0013 119.9995,25.1463" id="Stroke-328" stroke="#9B9A9A"></path>
                <path d="M54.6941,50.1463 L25.2981,50.1463 C11.4421,50.1463 0.1641,61.2913 0.0001,75.1463" id="Stroke-329" stroke="#9B9A9A"></path>
                <path d="M107.3599,73.4114 C105.7979,91.5174 91.3709,105.9444 73.2649,107.5064" id="Stroke-330" stroke="#9B9A9A"></path>
                <polygon id="Fill-331" fill="#ED0F34" points="99.4563 93.4617 89.8093 96.0967 96.9143 103.1337"></polygon>
                <polygon id="Fill-332" fill="#FFFAF3" points="61.3001 25.1463 66.5931 19.8533 71.8861 25.1463 66.5931 30.4393"></polygon>
                <path d="M66.593,19.1463 L60.593,25.1463 L66.593,31.1463 L72.593,25.1463 L66.593,19.1463 Z M66.593,20.5603 L71.179,25.1463 L66.593,29.7323 L62.007,25.1463 L66.593,20.5603 Z" id="Fill-333" fill="#9B9A9A"></path>
                <path d="M30.0032,54.6463 C27.5222,54.6463 25.5032,52.6273 25.5032,50.1463 C25.5032,47.6653 27.5222,45.6463 30.0032,45.6463 C32.4842,45.6463 34.5032,47.6653 34.5032,50.1463 C34.5032,52.6273 32.4842,54.6463 30.0032,54.6463" id="Fill-334" fill="#FFFAF3"></path>
                <path d="M30.0032,45.1463 C27.2422,45.1463 25.0032,47.3853 25.0032,50.1463 C25.0032,52.9073 27.2422,55.1463 30.0032,55.1463 C32.7642,55.1463 35.0032,52.9073 35.0032,50.1463 C35.0032,47.3853 32.7642,45.1463 30.0032,45.1463 M30.0032,46.1463 C32.2092,46.1463 34.0032,47.9403 34.0032,50.1463 C34.0032,52.3523 32.2092,54.1463 30.0032,54.1463 C27.7972,54.1463 26.0032,52.3523 26.0032,50.1463 C26.0032,47.9403 27.7972,46.1463 30.0032,46.1463" id="Fill-335" fill="#9B9A9A"></path>
                <path d="M89.9971,54.6463 C87.5161,54.6463 85.4971,52.6273 85.4971,50.1463 C85.4971,47.6653 87.5161,45.6463 89.9971,45.6463 C92.4781,45.6463 94.4971,47.6653 94.4971,50.1463 C94.4971,52.6273 92.4781,54.6463 89.9971,54.6463" id="Fill-336" fill="#FFFAF3"></path>
                <path d="M89.9971,45.1463 C87.2361,45.1463 84.9971,47.3853 84.9971,50.1463 C84.9971,52.9073 87.2361,55.1463 89.9971,55.1463 C92.7581,55.1463 94.9971,52.9073 94.9971,50.1463 C94.9971,47.3853 92.7581,45.1463 89.9971,45.1463 M89.9971,46.1463 C92.2031,46.1463 93.9971,47.9403 93.9971,50.1463 C93.9971,52.3523 92.2031,54.1463 89.9971,54.1463 C87.7911,54.1463 85.9971,52.3523 85.9971,50.1463 C85.9971,47.9403 87.7911,46.1463 89.9971,46.1463" id="Fill-337" fill="#9B9A9A"></path>
            </g>
        </g>
    </g>
</svg>