<?xml version="1.0" encoding="UTF-8"?>
<svg width="130px" height="130px" viewBox="0 0 130 130" version="1.1" xmlns="http://www.w3.org/2000/svg" xmlns:xlink="http://www.w3.org/1999/xlink">
    <!-- Generator: Sketch 47.1 (45422) - http://www.bohemiancoding.com/sketch -->
    <title>Icon: Public Credit</title>
    <desc>Created with Sketch.</desc>
    <defs></defs>
    <g id="Symbols" stroke="none" stroke-width="1" fill="none" fill-rule="evenodd">
        <g id="Icon:-Public-Credit">
            <g id="Group-2" transform="translate(5.000000, 5.000000)">
                <polygon id="Fill-338" fill="#FFFFFF" points="85.9218 84.7615 120.0568 85.3065 102.7168 67.9665"></polygon>
                <polygon id="Fill-339" fill="#FFF3E0" points="50.0573 0.3062 0.0573 0.3062 0.0573 50.3062"></polygon>
                <polygon id="Fill-340" fill="#FFF3E0" points="90.0573 55.3062 90.0573 0.3062 90.0573 38.1522 90.0573 0.3062 50.0573 0.3062 0.0573 50.3062 0.0573 90.3062 90.8433 90.3062 72.1203 72.3692 72.1203 63.8832 85.3773 50.6262"></polygon>
                <polygon id="Stroke-341" stroke="#9B9A9A" points="90.0573 55.3062 90.0573 0.3062 90.0573 38.1522 90.0573 0.3062 0.0573 0.3062 0.0573 90.3062 85.0673 90.3062"></polygon>
                <polygon id="Fill-342" fill="#FFFFFF" points="84.8326 84.7615 50.6976 85.3065 68.0376 67.9665"></polygon>
                <path d="M0.0573,50.3062 C22.1483,50.3062 40.0573,68.2152 40.0573,90.3062 L0.0573,90.3062 L0.0573,50.3062 Z" id="Fill-343" fill="#FFFAF3"></path>
                <path d="M0.0573,50.3062 C22.1483,50.3062 40.0573,68.2152 40.0573,90.3062 L0.0573,90.3062 L0.0573,50.3062 Z" id="Stroke-344" stroke="#9B9A9A"></path>
                <path d="M50.0573,0.3062 C50.0573,22.3982 67.9653,40.3062 90.0573,40.3062 L90.0573,0.3062 L50.0573,0.3062 Z" id="Fill-345" fill="#FFFAF3"></path>
                <path d="M50.0573,0.3062 C50.0573,22.3982 67.9653,40.3062 90.0573,40.3062 L90.0573,0.3062 L50.0573,0.3062 Z" id="Stroke-346" stroke="#9B9A9A"></path>
                <g id="Group-349" transform="translate(58.000000, 0.000000)">
                    <path d="M32.0573,0.3062 L0.9163,31.4472" id="Fill-347" fill="#FFFAF3"></path>
                    <path d="M32.0573,0.3062 L0.9163,31.4472" id="Stroke-348" stroke="#9B9A9A"></path>
                </g>
                <polygon id="Fill-350" fill="#FFFAF3" points="61.2362 23.2796 67.0702 29.1376 59.0802 31.2616"></polygon>
                <path d="M60.9796,22.313 L58.3716,31.967 L68.0356,29.399 L60.9796,22.313 Z M61.4936,24.246 L66.1046,28.877 L59.7886,30.555 L61.4936,24.246 Z" id="Fill-351" fill="#9B9A9A"></path>
                <g id="Group-354" transform="translate(0.000000, 40.000000)">
                    <path d="M0.0573,50.3065 L49.8953,0.4675" id="Fill-352" fill="#FFFAF3"></path>
                    <path d="M0.0573,50.3065 L49.8953,0.4675" id="Stroke-353" stroke="#9B9A9A"></path>
                </g>
                <polygon id="Fill-355" fill="#ED0F34" points="53.424 44.0106 46.368 36.9246 56.032 34.3566"></polygon>
                <g id="Group-358">
                    <path d="M0.0573,0.3062 L67.8773,68.1262" id="Fill-356" fill="#FFFAF3"></path>
                    <path d="M0.0573,0.3062 L67.8773,68.1262" id="Stroke-357" stroke="#9B9A9A"></path>
                </g>
                <polygon id="Fill-359" fill="#FFF3E0" points="105.9982 99.1776 64.7562 99.1776 50.6972 85.3066 119.6152 85.3066"></polygon>
                <polygon id="Fill-360" fill="#FFFAF3" points="85.3771 50.6263 102.7171 67.9663 85.9221 84.7613"></polygon>
                <polygon id="Fill-361" fill="#FFFAF3" points="85.0404 50.6263 67.7004 67.9663 84.4954 84.7613"></polygon>
                <polygon id="Fill-362" fill="#FFFFFF" points="85.3771 119.9861 64.7561 99.1771 105.3791 99.2421"></polygon>
                <polygon id="Stroke-363" stroke="#9B9A9A" points="120.0573 85.3065 85.3773 119.9865 50.6973 85.3065 85.3773 50.6265"></polygon>
                <g id="Group-366" transform="translate(51.000000, 85.000000)">
                    <path d="M0.139,0.3065 L68.615,0.3065" id="Fill-364" fill="#FFFFFF"></path>
                    <path d="M0.139,0.3065 L68.615,0.3065" id="Stroke-365" stroke="#9B9A9A"></path>
                </g>
                <g id="Group-369" transform="translate(57.000000, 92.000000)">
                    <path d="M0.5616,0.242 L56.1926,0.242" id="Fill-367" fill="#FFFFFF"></path>
                    <path d="M0.5616,0.242 L56.1926,0.242" id="Stroke-368" stroke="#9B9A9A"></path>
                </g>
                <g id="Group-372" transform="translate(64.000000, 99.000000)">
                    <path d="M0.7562,0.1776 L41.9982,0.1776" id="Fill-370" fill="#FFFFFF"></path>
                    <path d="M0.7562,0.1776 L41.9982,0.1776" id="Stroke-371" stroke="#9B9A9A"></path>
                </g>
                <g id="Group-375" transform="translate(71.000000, 106.000000)">
                    <path d="M0.7697,0.1136 L27.9847,0.1136" id="Fill-373" fill="#FFFFFF"></path>
                    <path d="M0.7697,0.1136 L27.9847,0.1136" id="Stroke-374" stroke="#9B9A9A"></path>
                </g>
                <g id="Group-378" transform="translate(78.000000, 113.000000)">
                    <path d="M0.8488,0.0491 L13.9058,0.0491" id="Fill-376" fill="#FFFFFF"></path>
                    <path d="M0.8488,0.0491 L13.9058,0.0491" id="Stroke-377" stroke="#9B9A9A"></path>
                </g>
                <g id="Group-381" transform="translate(85.000000, 50.000000)">
                    <path d="M0.3771,0.6263 L0.3771,35.3063" id="Fill-379" fill="#FFFFFF"></path>
                    <path d="M0.3771,0.6263 L0.3771,35.3063" id="Stroke-380" stroke="#9B9A9A"></path>
                </g>
                <g id="Group-384" transform="translate(75.000000, 85.000000)">
                    <path d="M0.3761,7.242 L0.3761,0.306" id="Fill-382" fill="#FFFFFF"></path>
                    <path d="M0.3761,7.242 L0.3761,0.306" id="Stroke-383" stroke="#9B9A9A"></path>
                </g>
                <g id="Group-387" transform="translate(85.000000, 92.000000)">
                    <path d="M0.3771,7.2425 L0.3771,0.3065" id="Fill-385" fill="#FFFFFF"></path>
                    <path d="M0.3771,7.2425 L0.3771,0.3065" id="Stroke-386" stroke="#9B9A9A"></path>
                </g>
                <g id="Group-390" transform="translate(65.000000, 92.000000)">
                    <path d="M0.3751,7.2425 L0.3751,0.3065" id="Fill-388" fill="#FFFFFF"></path>
                    <path d="M0.3751,7.2425 L0.3751,0.3065" id="Stroke-389" stroke="#9B9A9A"></path>
                </g>
                <g id="Group-393" transform="translate(85.000000, 92.000000)">
                    <path d="M0.3771,7.2425 L0.3771,0.3065" id="Fill-391" fill="#FFFFFF"></path>
                    <path d="M0.3771,7.2425 L0.3771,0.3065" id="Stroke-392" stroke="#9B9A9A"></path>
                </g>
                <g id="Group-396" transform="translate(105.000000, 92.000000)">
                    <path d="M0.3793,7.2425 L0.3793,0.3065" id="Fill-394" fill="#FFFFFF"></path>
                    <path d="M0.3793,7.2425 L0.3793,0.3065" id="Stroke-395" stroke="#9B9A9A"></path>
                </g>
                <g id="Group-399" transform="translate(95.000000, 85.000000)">
                    <path d="M0.3783,7.242 L0.3783,0.306" id="Fill-397" fill="#FFFFFF"></path>
                    <path d="M0.3783,7.242 L0.3783,0.306" id="Stroke-398" stroke="#9B9A9A"></path>
                </g>
                <g id="Group-402" transform="translate(75.000000, 99.000000)">
                    <path d="M0.3761,7.2435 L0.3761,0.3075" id="Fill-400" fill="#FFFFFF"></path>
                    <path d="M0.3761,7.2435 L0.3761,0.3075" id="Stroke-401" stroke="#9B9A9A"></path>
                </g>
                <g id="Group-405" transform="translate(85.000000, 106.000000)">
                    <path d="M0.3771,7.244 L0.3771,0.308" id="Fill-403" fill="#FFFFFF"></path>
                    <path d="M0.3771,7.244 L0.3771,0.308" id="Stroke-404" stroke="#9B9A9A"></path>
                </g>
                <g id="Group-408" transform="translate(95.000000, 99.000000)">
                    <path d="M0.3783,7.2435 L0.3783,0.3075" id="Fill-406" fill="#FFFFFF"></path>
                    <path d="M0.3783,7.2435 L0.3783,0.3075" id="Stroke-407" stroke="#9B9A9A"></path>
                </g>
                <path d="M85.3771,85.3065 L67.8771,68.1265" id="Stroke-409" stroke="#9B9A9A"></path>
                <path d="M102.7172,67.9664 L85.3772,85.3064" id="Stroke-410" stroke="#9B9A9A"></path>
                <polygon id="Fill-411" fill="#FFFAF3" points="64.135 71.869 71.62 71.869 71.62 64.384 64.135 64.384"></polygon>
                <path d="M63.635,72.369 L72.12,72.369 L72.12,63.884 L63.635,63.884 L63.635,72.369 Z M64.635,71.369 L71.12,71.369 L71.12,64.884 L64.635,64.884 L64.635,71.369 Z" id="Fill-412" fill="#9B9A9A"></path>
                <path d="M28.369,66.5411 C25.888,66.5411 23.869,64.5221 23.869,62.0411 C23.869,59.5601 25.888,57.5411 28.369,57.5411 C30.85,57.5411 32.869,59.5601 32.869,62.0411 C32.869,64.5221 30.85,66.5411 28.369,66.5411" id="Fill-413" fill="#FFFAF3"></path>
                <path d="M28.3688,57.0411 C25.6078,57.0411 23.3688,59.2801 23.3688,62.0411 C23.3688,64.8021 25.6078,67.0411 28.3688,67.0411 C31.1308,67.0411 33.3688,64.8021 33.3688,62.0411 C33.3688,59.2801 31.1308,57.0411 28.3688,57.0411 M28.3688,58.0411 C30.5748,58.0411 32.3688,59.8351 32.3688,62.0411 C32.3688,64.2471 30.5748,66.0411 28.3688,66.0411 C26.1628,66.0411 24.3688,64.2471 24.3688,62.0411 C24.3688,59.8351 26.1628,58.0411 28.3688,58.0411" id="Fill-414" fill="#9B9A9A"></path>
                <g id="Group-417">
                    <path d="M0.0573,50.3062 L50.0573,0.3062" id="Fill-415" fill="#FFFAF3"></path>
                    <path d="M0.0573,50.3062 L50.0573,0.3062" id="Stroke-416" stroke="#9B9A9A"></path>
                </g>
            </g>
        </g>
    </g>
</svg>