<?xml version="1.0" encoding="UTF-8"?>
<svg width="242px" height="242px" viewBox="0 0 242 242" version="1.1" xmlns="http://www.w3.org/2000/svg" xmlns:xlink="http://www.w3.org/1999/xlink">
    <!-- Generator: Sketch 47 (45396) - http://www.bohemiancoding.com/sketch -->
    <title>Icon: Placeholder</title>
    <desc>Created with Sketch.</desc>
    <defs></defs>
    <g id="Design" stroke="none" stroke-width="1" fill="none" fill-rule="evenodd">
        <g id="Opportunity" transform="translate(-599.000000, -2538.000000)">
            <g id="Icon-big:-Social-Impact" transform="translate(600.000000, 2539.000000)">
                <g id="Group">
                    <path d="M119.9943,120.2469 L171.6663,30.7479" id="Stroke-466" stroke="#9B9A9A"></path>
                    <polygon id="Stroke-467" stroke="#9B9A9A" points="120.0001 16.9041 16.6671 120.2371 120.0001 223.5701 223.3331 120.2371"></polygon>
                    <polygon id="Stroke-468" stroke="#9B9A9A" points="120.0001 16.9041 68.3331 30.7481 30.5101 68.5701 16.6671 120.2371 30.5101 171.9041 68.3331 209.7271 120.0001 223.5701 171.6671 209.7271 209.4891 171.9041 223.3331 120.2371 209.4891 68.5701 171.6671 30.7481"></polygon>
                    <path d="M120.0001,16.9041 L120.0001,223.5701" id="Stroke-469" stroke="#9B9A9A"></path>
                    <path d="M16.6666,120.2376 L223.3336,120.2376" id="Stroke-470" stroke="#9B9A9A"></path>
                    <path d="M120.0001,16.9041 L120.0001,223.5701" id="Stroke-471" stroke="#9B9A9A"></path>
                    <path d="M68.3334,30.7479 L171.6664,209.7269" id="Stroke-472" stroke="#9B9A9A"></path>
                    <path d="M30.5106,68.5706 L209.4896,171.9036" id="Stroke-473" stroke="#9B9A9A"></path>
                    <path d="M16.6666,120.2376 L223.3336,120.2376" id="Stroke-474" stroke="#9B9A9A"></path>
                    <path d="M30.5106,171.9041 L209.4896,68.5711" id="Stroke-475" stroke="#9B9A9A"></path>
                    <path d="M68.3334,209.7268 L147.9074,71.8998" id="Stroke-476" stroke="#9B9A9A"></path>
                    <path d="M75.5502,26.5814 C77.8512,30.5674 76.4862,35.6644 72.5002,37.9654 C68.5142,40.2664 63.4172,38.9004 61.1162,34.9144 C58.8152,30.9294 60.1812,25.8324 64.1662,23.5314 C68.1522,21.2294 73.2492,22.5954 75.5502,26.5814" id="Fill-477" fill="#FFFAF3"></path>
                    <path d="M75.5502,26.5814 C77.8512,30.5674 76.4862,35.6644 72.5002,37.9654 C68.5142,40.2664 63.4172,38.9004 61.1162,34.9144 C58.8152,30.9294 60.1812,25.8324 64.1662,23.5314 C68.1522,21.2294 73.2492,22.5954 75.5502,26.5814 Z" id="Stroke-478" stroke="#9B9A9A"></path>
                    <path d="M178.8837,205.5598 C181.1847,209.5458 179.8197,214.6428 175.8337,216.9438 C171.8477,219.2448 166.7507,217.8788 164.4497,213.8928 C162.1487,209.9078 163.5147,204.8108 167.4997,202.5098 C171.4857,200.2088 176.5827,201.5738 178.8837,205.5598" id="Fill-479" fill="#FFFAF3"></path>
                    <path d="M178.8837,205.5598 C181.1847,209.5458 179.8197,214.6428 175.8337,216.9438 C171.8477,219.2448 166.7507,217.8788 164.4497,213.8928 C162.1487,209.9078 163.5147,204.8108 167.4997,202.5098 C171.4857,200.2088 176.5827,201.5738 178.8837,205.5598 Z" id="Stroke-480" stroke="#9B9A9A"></path>
                    <path d="M34.6774,61.3538 C38.6634,63.6548 40.0284,68.7518 37.7274,72.7378 C35.4264,76.7228 30.3294,78.0888 26.3444,75.7878 C22.3584,73.4868 20.9924,68.3898 23.2934,64.4038 C25.5954,60.4178 30.6914,59.0528 34.6774,61.3538" id="Fill-481" fill="#FFFAF3"></path>
                    <path d="M34.6774,61.3538 C38.6634,63.6548 40.0284,68.7518 37.7274,72.7378 C35.4264,76.7228 30.3294,78.0888 26.3444,75.7878 C22.3584,73.4868 20.9924,68.3898 23.2934,64.4038 C25.5954,60.4178 30.6914,59.0528 34.6774,61.3538 Z" id="Stroke-482" stroke="#9B9A9A"></path>
                    <path d="M213.6559,164.6873 C217.6419,166.9883 219.0079,172.0843 216.7059,176.0703 C214.4049,180.0563 209.3089,181.4223 205.3229,179.1213 C201.3369,176.8193 199.9709,171.7233 202.2719,167.7373 C204.5739,163.7513 209.6699,162.3863 213.6559,164.6873" id="Fill-483" fill="#FFFAF3"></path>
                    <path d="M213.6559,164.6873 C217.6419,166.9883 219.0079,172.0843 216.7059,176.0703 C214.4049,180.0563 209.3089,181.4223 205.3229,179.1213 C201.3369,176.8193 199.9709,171.7233 202.2719,167.7373 C204.5739,163.7513 209.6699,162.3863 213.6559,164.6873 Z" id="Stroke-484" stroke="#9B9A9A"></path>
                    <path d="M26.3441,164.6873 C30.3301,162.3863 35.4261,163.7513 37.7281,167.7373 C40.0291,171.7233 38.6631,176.8193 34.6771,179.1213 C30.6911,181.4223 25.5951,180.0563 23.2941,176.0703 C20.9921,172.0843 22.3581,166.9883 26.3441,164.6873" id="Fill-485" fill="#FFFAF3"></path>
                    <path d="M26.3441,164.6873 C30.3301,162.3863 35.4261,163.7513 37.7281,167.7373 C40.0291,171.7233 38.6631,176.8193 34.6771,179.1213 C30.6911,181.4223 25.5951,180.0563 23.2941,176.0703 C20.9921,172.0843 22.3581,166.9883 26.3441,164.6873 Z" id="Stroke-486" stroke="#9B9A9A"></path>
                    <path d="M205.3226,61.3538 C209.3086,59.0528 214.4046,60.4178 216.7066,64.4038 C219.0076,68.3898 217.6416,73.4868 213.6556,75.7878 C209.6706,78.0888 204.5736,76.7228 202.2726,72.7378 C199.9716,68.7518 201.3366,63.6548 205.3226,61.3538" id="Fill-487" fill="#FFFAF3"></path>
                    <path d="M205.3226,61.3538 C209.3086,59.0528 214.4046,60.4178 216.7066,64.4038 C219.0076,68.3898 217.6416,73.4868 213.6556,75.7878 C209.6706,78.0888 204.5736,76.7228 202.2726,72.7378 C199.9716,68.7518 201.3366,63.6548 205.3226,61.3538 Z" id="Stroke-488" stroke="#9B9A9A"></path>
                    <path d="M61.1163,205.5598 C63.4173,201.5738 68.5143,200.2088 72.5003,202.5098 C76.4853,204.8108 77.8513,209.9078 75.5503,213.8928 C73.2493,217.8788 68.1523,219.2448 64.1663,216.9438 C60.1803,214.6428 58.8153,209.5458 61.1163,205.5598" id="Fill-489" fill="#FFFAF3"></path>
                    <path d="M61.1163,205.5598 C63.4173,201.5738 68.5143,200.2088 72.5003,202.5098 C76.4853,204.8108 77.8513,209.9078 75.5503,213.8928 C73.2493,217.8788 68.1523,219.2448 64.1663,216.9438 C60.1803,214.6428 58.8153,209.5458 61.1163,205.5598 Z" id="Stroke-490" stroke="#9B9A9A"></path>
                    <path d="M164.4498,26.5814 C166.7508,22.5954 171.8478,21.2294 175.8338,23.5314 C179.8188,25.8324 181.1848,30.9294 178.8838,34.9144 C176.5828,38.9004 171.4858,40.2664 167.4998,37.9654 C163.5138,35.6644 162.1488,30.5674 164.4498,26.5814" id="Fill-491" fill="#FFFAF3"></path>
                    <path d="M164.4498,26.5814 C166.7508,22.5954 171.8478,21.2294 175.8338,23.5314 C179.8188,25.8324 181.1848,30.9294 178.8838,34.9144 C176.5828,38.9004 171.4858,40.2664 167.4998,37.9654 C163.5138,35.6644 162.1488,30.5674 164.4498,26.5814 Z" id="Stroke-492" stroke="#9B9A9A"></path>
                    <polygon id="Fill-493" fill="#ED0F34" points="125.0001 59.4451 115.0001 59.4241 120.0181 50.7741"></polygon>
                    <polygon id="Fill-494" fill="#ED0F34" points="125.0001 178.3631 115.0001 178.3841 120.0181 187.0331"></polygon>
                    <polygon id="Fill-495" fill="#ED0F34" points="59.2076 115.2376 59.1866 125.2376 50.5366 120.2196"></polygon>
                    <polygon id="Fill-496" fill="#ED0F34" points="180.7924 115.2376 180.8134 125.2376 189.4634 120.2196"></polygon>
                    <path d="M108.215,28.6893 C105.199,25.6733 103.333,21.5063 103.333,16.9043 C103.333,7.6993 110.795,0.2373 120,0.2373 C129.205,0.2373 136.667,7.6993 136.667,16.9043 C136.667,21.5063 134.801,25.6733 131.785,28.6893 L120,16.9043 L108.215,28.6893 Z" id="Fill-497" fill="#FFFFFF"></path>
                    <path d="M108.215,28.6893 C105.199,25.6733 103.333,21.5063 103.333,16.9043 C103.333,7.6993 110.795,0.2373 120,0.2373 C129.205,0.2373 136.667,7.6993 136.667,16.9043 C136.667,21.5063 134.801,25.6733 131.785,28.6893 L120,16.9043 L108.215,28.6893 Z" id="Stroke-498" stroke="#9B9A9A"></path>
                    <path d="M103.5009,33.4031 C107.7239,37.6261 113.5569,40.2371 119.9999,40.2371 C126.4429,40.2371 132.2769,37.6261 136.4989,33.4031 L119.9999,16.9041 L103.5009,33.4031 Z" id="Fill-499" fill="#FFFAF3"></path>
                    <path d="M103.5009,33.4031 C107.7239,37.6261 113.5569,40.2371 119.9999,40.2371 C126.4429,40.2371 132.2769,37.6261 136.4989,33.4031 L119.9999,16.9041 L103.5009,33.4031 Z" id="Stroke-500" stroke="#9B9A9A"></path>
                    <path d="M131.785,211.7854 C134.801,214.8014 136.667,218.9684 136.667,223.5704 C136.667,232.7754 129.205,240.2374 120,240.2374 C110.795,240.2374 103.333,232.7754 103.333,223.5704 C103.333,218.9684 105.199,214.8014 108.215,211.7854 L120,223.5704 L131.785,211.7854 Z" id="Fill-501" fill="#FFFFFF"></path>
                    <path d="M131.785,211.7854 C134.801,214.8014 136.667,218.9684 136.667,223.5704 C136.667,232.7754 129.205,240.2374 120,240.2374 C110.795,240.2374 103.333,232.7754 103.333,223.5704 C103.333,218.9684 105.199,214.8014 108.215,211.7854 L120,223.5704 L131.785,211.7854 Z" id="Stroke-502" stroke="#9B9A9A"></path>
                    <path d="M136.4991,207.0716 C132.2761,202.8486 126.4431,200.2376 120.0001,200.2376 C113.5571,200.2376 107.7231,202.8486 103.5011,207.0716 L120.0001,223.5706 L136.4991,207.0716 Z" id="Fill-503" fill="#FFFAF3"></path>
                    <path d="M136.4991,207.0716 C132.2761,202.8486 126.4431,200.2376 120.0001,200.2376 C113.5571,200.2376 107.7231,202.8486 103.5011,207.0716 L120.0001,223.5706 L136.4991,207.0716 Z" id="Stroke-504" stroke="#9B9A9A"></path>
                    <path d="M28.4518,132.0222 C25.4358,135.0382 21.2688,136.9042 16.6668,136.9042 C7.4618,136.9042 -0.0002,129.4422 -0.0002,120.2372 C-0.0002,111.0322 7.4618,103.5702 16.6668,103.5702 C21.2688,103.5702 25.4358,105.4362 28.4518,108.4522 L16.6668,120.2372 L28.4518,132.0222 Z" id="Fill-505" fill="#FFFFFF"></path>
                    <path d="M28.4518,132.0222 C25.4358,135.0382 21.2688,136.9042 16.6668,136.9042 C7.4618,136.9042 -0.0002,129.4422 -0.0002,120.2372 C-0.0002,111.0322 7.4618,103.5702 16.6668,103.5702 C21.2688,103.5702 25.4358,105.4362 28.4518,108.4522 L16.6668,120.2372 L28.4518,132.0222 Z" id="Stroke-506" stroke="#9B9A9A"></path>
                    <path d="M33.1659,136.7366 C37.3879,132.5136 39.9999,126.6806 39.9999,120.2376 C39.9999,113.7946 37.3879,107.9606 33.1659,103.7376 L16.6669,120.2376 L33.1659,136.7366 Z" id="Fill-507" fill="#FFFAF3"></path>
                    <path d="M33.1659,136.7366 C37.3879,132.5136 39.9999,126.6806 39.9999,120.2376 C39.9999,113.7946 37.3879,107.9606 33.1659,103.7376 L16.6669,120.2376 L33.1659,136.7366 Z" id="Stroke-508" stroke="#9B9A9A"></path>
                    <path d="M211.5482,108.4524 C214.5642,105.4364 218.7312,103.5704 223.3332,103.5704 C232.5382,103.5704 240.0002,111.0324 240.0002,120.2374 C240.0002,129.4424 232.5382,136.9044 223.3332,136.9044 C218.7312,136.9044 214.5642,135.0384 211.5482,132.0224 L223.3332,120.2374 L211.5482,108.4524 Z" id="Fill-509" fill="#FFFFFF"></path>
                    <path d="M211.5482,108.4524 C214.5642,105.4364 218.7312,103.5704 223.3332,103.5704 C232.5382,103.5704 240.0002,111.0324 240.0002,120.2374 C240.0002,129.4424 232.5382,136.9044 223.3332,136.9044 C218.7312,136.9044 214.5642,135.0384 211.5482,132.0224 L223.3332,120.2374 L211.5482,108.4524 Z" id="Stroke-510" stroke="#9B9A9A"></path>
                    <path d="M206.8341,103.7381 C202.6121,107.9611 200.0001,113.7941 200.0001,120.2381 C200.0001,126.6811 202.6121,132.5141 206.8341,136.7371 L223.3331,120.2381 L206.8341,103.7381 Z" id="Fill-511" fill="#FFFAF3"></path>
                    <path d="M206.8341,103.7381 C202.6121,107.9611 200.0001,113.7941 200.0001,120.2381 C200.0001,126.6811 202.6121,132.5141 206.8341,136.7371 L223.3331,120.2381 L206.8341,103.7381 Z" id="Stroke-512" stroke="#9B9A9A"></path>
                    <path d="M70.0001,120.2381 C70.0001,92.6241 92.3861,70.2381 120.0001,70.2381 C147.6141,70.2381 170.0001,92.6241 170.0001,120.2381 L70.0001,120.2381 Z" id="Fill-513" fill="#FFFAF3"></path>
                    <path d="M70.0001,120.2381 C70.0001,92.6241 92.3861,70.2381 120.0001,70.2381 C147.6141,70.2381 170.0001,92.6241 170.0001,120.2381 L70.0001,120.2381 Z" id="Stroke-514" stroke="#9B9A9A"></path>
                    <path d="M84.0446,120.263 C84.0446,100.405 100.1426,84.307 119.9996,84.307 C139.8576,84.307 155.9556,100.405 155.9556,120.263 L84.0446,120.263 Z" id="Fill-515" fill="#FFF3E0"></path>
                    <path d="M84.0446,120.263 C84.0446,100.405 100.1426,84.307 119.9996,84.307 C139.8576,84.307 155.9556,100.405 155.9556,120.263 L84.0446,120.263 Z" id="Stroke-516" stroke="#9B9A9A"></path>
                    <path d="M161.6666,120.2381 C161.6666,143.2501 143.0116,161.9051 119.9996,161.9051 C96.9886,161.9051 78.3336,143.2501 78.3336,120.2381 L161.6666,120.2381 Z" id="Fill-517" fill="#FFF3E0"></path>
                    <path d="M161.6666,120.2381 C161.6666,143.2501 143.0116,161.9051 119.9996,161.9051 C96.9886,161.9051 78.3336,143.2501 78.3336,120.2381 L161.6666,120.2381 Z" id="Stroke-518" stroke="#9B9A9A"></path>
                    <g id="Group-521" transform="translate(99.000000, 119.500000)">
                        <path d="M0.1666,0.7381 L41.8336,0.7381" id="Fill-519" fill="#FFFFFF"></path>
                        <path d="M0.1666,0.7381 L41.8336,0.7381" id="Stroke-520" stroke="#9B9A9A"></path>
                    </g>
                    <path d="M99.1666,120.263 C99.1666,108.757 108.4936,99.43 119.9996,99.43 C131.5056,99.43 140.8336,108.757 140.8336,120.263 L99.1666,120.263 Z" id="Fill-522" fill="#FFEECC"></path>
                    <path d="M99.1666,120.263 C99.1666,108.757 108.4936,99.43 119.9996,99.43 C131.5056,99.43 140.8336,108.757 140.8336,120.263 L99.1666,120.263 Z" id="Stroke-523" stroke="#9B9A9A"></path>
                    <path d="M109.5834,120.263 C109.5834,108.757 114.2474,99.43 120.0004,99.43 C125.7534,99.43 130.4164,108.757 130.4164,120.263" id="Stroke-524" stroke="#9B9A9A"></path>
                    <g id="Group-527" transform="translate(120.000000, 98.500000)">
                        <path d="M0.0001,21.7503 L0.0001,0.9293" id="Fill-525" fill="#FFFFFF"></path>
                        <path d="M0.0001,21.7503 L0.0001,0.9293" id="Stroke-526" stroke="#9B9A9A"></path>
                    </g>
                    <g id="Group-530" transform="translate(101.000000, 109.500000)">
                        <path d="M37.0392,0.346 L0.9582,0.346" id="Fill-528" fill="#FFFFFF"></path>
                        <path d="M37.0392,0.346 L0.9582,0.346" id="Stroke-529" stroke="#9B9A9A"></path>
                    </g>
                    <g id="Group-533" transform="translate(130.000000, 119.500000)">
                        <path d="M0.4166,0.7381 L10.8386,0.7381" id="Fill-531" fill="#FFFFFF"></path>
                        <path d="M0.4166,0.7381 L10.8386,0.7381" id="Stroke-532" stroke="#9B9A9A"></path>
                    </g>
                    <g id="Group-536" transform="translate(109.000000, 119.500000)">
                        <path d="M0.5834,0.7381 L21.4164,0.7381" id="Fill-534" fill="#FFFFFF"></path>
                        <path d="M0.5834,0.7381 L21.4164,0.7381" id="Stroke-535" stroke="#9B9A9A"></path>
                    </g>
                    <g id="Group-539" transform="translate(99.000000, 119.500000)">
                        <path d="M0.1718,0.7381 L10.5838,0.7381" id="Fill-537" fill="#FFFFFF"></path>
                        <path d="M0.1718,0.7381 L10.5838,0.7381" id="Stroke-538" stroke="#9B9A9A"></path>
                    </g>
                    <path d="M149.1666,120.263 C149.1666,136.371 136.1086,149.43 119.9996,149.43 C103.8916,149.43 90.8336,136.371 90.8336,120.263 L149.1666,120.263 Z" id="Fill-540" fill="#FFEECC"></path>
                    <path d="M149.1666,120.263 C149.1666,136.371 136.1086,149.43 119.9996,149.43 C103.8916,149.43 90.8336,136.371 90.8336,120.263 L149.1666,120.263 Z" id="Stroke-541" stroke="#9B9A9A"></path>
                    <g id="Group-544" transform="translate(120.000000, 119.500000)">
                        <path d="M0.0001,29.9295 L0.0001,0.7505" id="Fill-542" fill="#FFFFFF"></path>
                        <path d="M0.0001,29.9295 L0.0001,0.7505" id="Stroke-543" stroke="#9B9A9A"></path>
                    </g>
                    <g id="Group-547" transform="translate(94.000000, 134.500000)">
                        <path d="M51.2623,0.346 L0.7423,0.346" id="Fill-545" fill="#FFFFFF"></path>
                        <path d="M51.2623,0.346 L0.7423,0.346" id="Stroke-546" stroke="#9B9A9A"></path>
                    </g>
                    <path d="M134.5834,120.263 C134.5834,136.371 128.0544,149.43 120.0004,149.43 C111.9464,149.43 105.4164,136.371 105.4164,120.263" id="Stroke-548" stroke="#9B9A9A"></path>
                    <path d="M147.9857,93.2952 C147.9857,95.5962 146.1207,97.4622 143.8187,97.4622 C141.5177,97.4622 139.6527,95.5962 139.6527,93.2952 C139.6527,90.9942 141.5177,89.1282 143.8187,89.1282 C146.1207,89.1282 147.9857,90.9942 147.9857,93.2952" id="Fill-549" fill="#FFFFFF"></path>
                    <path d="M147.9857,93.2952 C147.9857,95.5962 146.1207,97.4622 143.8187,97.4622 C141.5177,97.4622 139.6527,95.5962 139.6527,93.2952 C139.6527,90.9942 141.5177,89.1282 143.8187,89.1282 C146.1207,89.1282 147.9857,90.9942 147.9857,93.2952 Z" id="Stroke-550" stroke="#9B9A9A"></path>
                    <path d="M99.0756,76.9055 C99.0756,79.2985 97.1356,81.2385 94.7426,81.2385 C92.3486,81.2385 90.4086,79.2985 90.4086,76.9055 C90.4086,74.5115 92.3486,72.5725 94.7426,72.5725 C97.1356,72.5725 99.0756,74.5115 99.0756,76.9055" id="Fill-551" fill="#FFFFFF"></path>
                    <path d="M99.0756,76.9055 C99.0756,79.2985 97.1356,81.2385 94.7426,81.2385 C92.3486,81.2385 90.4086,79.2985 90.4086,76.9055 C90.4086,74.5115 92.3486,72.5725 94.7426,72.5725 C97.1356,72.5725 99.0756,74.5115 99.0756,76.9055 Z" id="Stroke-552" stroke="#9B9A9A"></path>
                    <path d="M105.2914,109.846 C105.2914,111.687 103.7994,113.179 101.9584,113.179 C100.1174,113.179 98.6244,111.687 98.6244,109.846 C98.6244,108.005 100.1174,106.513 101.9584,106.513 C103.7994,106.513 105.2914,108.005 105.2914,109.846" id="Fill-553" fill="#FFFFFF"></path>
                    <path d="M105.2914,109.846 C105.2914,111.687 103.7994,113.179 101.9584,113.179 C100.1174,113.179 98.6244,111.687 98.6244,109.846 C98.6244,108.005 100.1174,106.513 101.9584,106.513 C103.7994,106.513 105.2914,108.005 105.2914,109.846 Z" id="Stroke-554" stroke="#9B9A9A"></path>
                    <path d="M144.1718,156.3416 C144.1718,158.1826 142.6798,159.6746 140.8388,159.6746 C138.9978,159.6746 137.5048,158.1826 137.5048,156.3416 C137.5048,154.5006 138.9978,153.0086 140.8388,153.0086 C142.6798,153.0086 144.1718,154.5006 144.1718,156.3416" id="Fill-555" fill="#FFFFFF"></path>
                    <path d="M144.1718,156.3416 C144.1718,158.1826 142.6798,159.6746 140.8388,159.6746 C138.9978,159.6746 137.5048,158.1826 137.5048,156.3416 C137.5048,154.5006 138.9978,153.0086 140.8388,153.0086 C142.6798,153.0086 144.1718,154.5006 144.1718,156.3416 Z" id="Stroke-556" stroke="#9B9A9A"></path>
                    <path d="M136.8038,134.8401 C136.8038,137.2331 134.8638,139.1731 132.4708,139.1731 C130.0768,139.1731 128.1368,137.2331 128.1368,134.8401 C128.1368,132.4461 130.0768,130.5071 132.4708,130.5071 C134.8638,130.5071 136.8038,132.4461 136.8038,134.8401" id="Fill-557" fill="#FFFFFF"></path>
                    <path d="M136.8038,134.8401 C136.8038,137.2331 134.8638,139.1731 132.4708,139.1731 C130.0768,139.1731 128.1368,137.2331 128.1368,134.8401 C128.1368,132.4461 130.0768,130.5071 132.4708,130.5071 C134.8638,130.5071 136.8038,132.4461 136.8038,134.8401 Z" id="Stroke-558" stroke="#9B9A9A"></path>
                </g>
            </g>
        </g>
    </g>
</svg>