<svg width="546" height="230" xmlns="http://www.w3.org/2000/svg" xmlns:xlink="http://www.w3.org/1999/xlink">
  <defs>
    <path id="a" d="M0 0h1440v230H0z"/>
  </defs>
  <g transform="translate(-447)" fill="none" fill-rule="evenodd">
    <mask id="b" fill="#fff">
      <use xlink:href="#a"/>
    </mask>
    <g stroke="#FFEDCC" mask="url(#b)">
      <path d="M720-367l212.25 87.75L1020-67l-87.75 212.25L720 233l-212.25-87.75L420-67l87.75-212.25z"/>
      <path d="M932.25-279.25L912.75-145 1020-67 914.625 7.25l18 138L800.25 125 720 233l-75-105.75-137.25 18L527.25 11 420-67l106.5-76.5-18.75-135.75 133.5 19.5L720-367l66.75 102.75z"/>
      <path d="M720-292l159.188 65.813L945-67 879.75 92 720 158 560.812 92.187 495-67l65.813-159.188z"/>
      <path d="M720-217l106.125 43.875L870-67 826.125 39.125 720 83 613.875 39.125 568.5-67l45-106.5z"/>
      <path d="M826.5-173.5l-39.75-90.75L720-217l-78.75-42.75-27.75 86.25-87 30 42 76.5-41.25 78 87 28.5L645 127.25l74.25-45.75 79.875 42.375L826.5 38.75l87.75-31.5L870-67l42.75-78z"/>
      <path d="M720-142l53.063 21.938L795-67l-21.938 53.063L720 8l-53.063-21.938L645-67l21.938-53.063z"/>
      <path d="M720-367v600M932.25 144.5l-424.5-423.75M1020-67.375H420M932.25-279.25l-424.5 424.5M912.75-145L720-67M914.25 7.25L720-67M798.375 123.125L720-67M645 127.25L720-67M527.25 11L720-67M526.5-143.5l193.125 76.125M641.25-259.75l79.875 194.625M786.75-264.25L720-67" stroke-linecap="square"/>
    </g>
  </g>
</svg>
