<svg width="402" height="250" viewbox="0 0 402 250" xmlns="http://www.w3.org/2000/svg">
  <g stroke="#FFEDCC" fill="none" fill-rule="evenodd">
    <path d="M201-150l141.5 58.5L401 50l-58.5 141.5L201 250 59.5 191.5 1 50 59.5-91.5z"/>
    <path d="M342.5-91.5L329.5-2 401 50l-70.25 49.5 12 92L254.5 178 201 250l-50-70.5-91.5 12 13-89.5L1 50 72-1 59.5-91.5l89 13L201-150l44.5 68.5z"/>
    <path d="M201-100l106.125 43.875L351 50l-43.5 106L201 200 94.875 156.125 51 50 94.875-56.125z"/>
    <path d="M201-50l70.75 29.25L301 50l-29.25 70.75L201 150l-70.75-29.25L100 50l30-71z"/>
    <path d="M272-21l-26.5-60.5L201-50l-52.5-28.5L130-21 72-1l28 51-27.5 52 58 19 20.5 58.5 49.5-30.5 53.25 28.25L272 120.5l58.5-21L301 50l28.5-52z"/>
    <path d="M201 0l35.375 14.625L251 50l-14.625 35.375L201 100l-35.375-14.625L151 50l14.625-35.375z"/>
    <path d="M201-150v400M342.5 191L59.5-91.5M401 49.75H1M342.5-91.5l-283 283M329.5-2L201 50M330.5 99.5L201 50M253.25 176.75L201 50M151 179.5L201 50M72.5 102L201 50M72-1l128.75 50.75M148.5-78.5l53.25 129.75M245.5-81.5L201 50" stroke-linecap="square"/>
  </g>
</svg>
