<svg width="118" height="31" viewbox="0 0 118 31" xmlns="http://www.w3.org/2000/svg">
  <g fill-rule="nonzero" fill="#D6D5D3">
    <path d="M.016 7.23c0-.071.156-1.029.301-1.526.69-2.363 2.19-4.016 4.459-4.953C6.949-.146 9.17-.259 11.4.52c1.659.58 2.842 1.74 3.798 3.291l-3.381 1.782c-.629-.98-1.444-1.631-2.546-1.905-1.228-.304-2.358-.014-3.33.7-1.496 1.1-2.03 2.636-1.784 4.475.17 1.277.765 2.296 1.787 3.04 1.508 1.095 3.836 1.007 5.401-.162v-1.2H7.891V7.023h7.534v6.161c-.868 1.034-2 1.845-3.324 2.384-1.263.513-2.583.764-3.945.696-2.057-.104-3.944-.675-5.534-2.066C1.16 12.918.334 11.318.065 9.409-.043 8.406.015 7.301.015 7.23zM.771 31v-6.2H117.23V31H.77zM36.558 15.467c-.224.014-.363.031-.501.032-1.206.002-2.412 0-3.665 0V.02h5.823l3.33 8.156.149.006L45.062 0h5.84v15.457h-4.103V5.651l-.164-.039-4.094 9.868h-1.843l-4.013-9.757-.127.013v9.73zM29.868 9.36h-7.304v2.54h7.504v3.458c-.385.151-10.74.203-11.558.049V0h11.568v3.433h-7.51v2.424h7.3V9.36zM67.87 4.22l-3.417 1.614c-.316-.393-.584-.778-.904-1.113-1.524-1.596-3.812-1.422-5.376-.139-1.128.926-1.632 2.186-1.598 3.575.048 2.006.97 3.86 3.411 4.41 1.569.352 2.942-.016 4.062-1.579.124-.174.23-.36.36-.566l3.408 1.606c-.08.204-.125.393-.222.55-1.247 2.036-2.998 3.301-5.418 3.608-2.447.311-4.686-.185-6.661-1.66-1.808-1.348-2.745-3.2-3.007-5.434-.193-1.643.05-3.202.776-4.664C54.52 1.938 56.627.61 59.32.153c1.508-.256 3.005-.214 4.465.308 1.878.672 3.162 1.977 4.084 3.76zM117.983 4.18c-.06-.546-.388-1.314-.752-1.872-1.002-1.534-2.573-2.245-4.44-2.28-2.733-.052-5.467-.015-8.2-.013-.157 0-.315.024-.473.037V15.5h4.245v-5.175c.3 0 .521.004.742 0 1.373-.032 2.75-.013 4.117-.109 2.216-.155 4.003-1.39 4.637-3.536.075-.252.183-1.956.124-2.5zm-4.676 2.078c-.375.42-.917.543-1.432.567-1.142.054-2.288.017-3.49.017V3.494h.978c.882 0 1.765-.013 2.648.005.739.015 1.306.346 1.604.984.295.634.17 1.24-.308 1.775zM99.287 9.831c.142-.076.228-.128.319-.168 1.497-.665 2.466-1.742 2.745-3.305.104-.583.114-1.188.1-1.78-.023-1.125-.484-2.105-1.272-2.926-1.07-1.116-2.455-1.62-4.017-1.637-2.46-.028-4.921-.008-7.382-.008h-1.087V15.5h4.218v-5.142h2.155l2.715 5.142h4.794l-3.288-5.669zM97.904 6.1c-.407.568-1.063.703-1.71.732-1.052.046-2.109.012-3.242.012V3.49h.863c.873 0 1.748-.016 2.62.006.724.019 1.31.339 1.623.956.278.548.217 1.133-.154 1.649zM86.097 5.956c-.48-1.912-1.535-3.462-3.21-4.556C81.4.427 79.757-.034 77.975.006c-.277 0-.554-.015-.83.004-.292.02-.583.066-.873.112-2.495.402-4.471 1.626-5.749 3.798-1.127 1.917-1.363 4.004-.857 6.173.502 2.152 1.671 3.83 3.598 4.935 2.317 1.33 4.8 1.575 7.348.836 2.241-.65 3.942-2.018 4.954-4.139.884-1.851 1.027-3.798.532-5.77zM80.99 11.37c-.797.91-1.88 1.33-3.071 1.244-2.298.108-3.888-1.545-4.226-3.461-.297-1.681 0-3.18 1.239-4.436 1.894-1.923 5.827-1.549 6.939 1.555.662 1.849.43 3.602-.881 5.098z"/>
  </g>
</svg>
