<?xml version="1.0" encoding="utf-8"?>
<!-- Generator: Adobe Illustrator 19.0.0, SVG Export Plug-In . SVG Version: 6.00 Build 0)  -->
<svg version="1.1" id="Calque_1" xmlns="http://www.w3.org/2000/svg" xmlns:xlink="http://www.w3.org/1999/xlink" x="100px" y="1o0px"
	 viewBox="0 0 960 560" style="enable-background:new 0 0 960 560;" xml:space="preserve">
<style type="text/css">
	.st0{fill:#1D1D1B;}
	.st1{clip-path:url(#SVGID_2_);fill:none;stroke:#1D1D1B;}
	.st2{fill:none;stroke:#FFFFFF;stroke-width:0.5;}
	.st3{fill:none;stroke:#FFFFFF;}
	.st4{fill:none;stroke:#FFFFFF;stroke-width:2;}
	.st5{fill:none;stroke:#FFFFFF;stroke-width:3;}
	.st6{fill:none;stroke:#FFFFFF;stroke-width:4;}
	.st7{fill:none;stroke:#FFFFFF;stroke-width:5;}
	.st8{fill:none;stroke:#1D1D1B;stroke-width:4;}
	.st9{fill:none;stroke:#1D1D1B;}
	.st10{fill:#FFFFFF;}
</style>
<rect x="373.5" y="192.9" class="st0" width="201.4" height="181.6"/>
<g>
	<defs>
		<rect id="SVGID_1_" x="364" y="185.4" width="232.5" height="190.6"/>
	</defs>
	<clipPath id="SVGID_2_">
		<use xlink:href="#SVGID_1_"  style="overflow:visible;"/>
	</clipPath>
	<rect x="373.5" y="192.9" class="st1" width="201.4" height="181.6"/>
</g>
<line class="st2" x1="409.9" y1="247.8" x2="383.3" y2="262.7"/>
<line class="st2" x1="414.1" y1="247.8" x2="437.8" y2="263.2"/>
<line class="st3" x1="411.2" y1="252.9" x2="388.7" y2="264.7"/>
<line class="st3" x1="411.4" y1="252.3" x2="433" y2="265.6"/>
<line class="st4" x1="410.5" y1="258.9" x2="386.4" y2="271.6"/>
<line class="st4" x1="412.1" y1="258.1" x2="435.2" y2="272.4"/>
<line class="st5" x1="410.5" y1="265.6" x2="385.6" y2="278.6"/>
<line class="st5" x1="412.6" y1="265.1" x2="436.5" y2="279.8"/>
<line class="st6" x1="411" y1="273.2" x2="385.9" y2="286"/>
<line class="st6" x1="411.6" y1="272.1" x2="435.7" y2="286.5"/>
<line class="st7" x1="411.1" y1="282.6" x2="387.6" y2="293.9"/>
<line class="st7" x1="410.5" y1="281.3" x2="433.1" y2="294.2"/>
<line class="st7" x1="412.8" y1="293.9" x2="387.1" y2="306.3"/>
<line class="st7" x1="410.7" y1="293.4" x2="434.6" y2="307.6"/>
<line class="st8" x1="411.8" y1="246.5" x2="411.8" y2="308"/>
<rect x="432.3" y="244.7" class="st0" width="22.7" height="85"/>
<rect x="377.8" y="241.2" class="st0" width="12" height="85"/>
<rect x="377.8" y="241.2" class="st9" width="12" height="85"/>
<rect x="443.2" y="258.6" class="st0" width="132.2" height="66"/>
<g id="XMLID_27_">
	<path id="XMLID_28_" class="st10" d="M444.1,258.6h4.7c1.5,0,2.6,0.1,3.4,0.3c0.8,0.2,1.4,0.7,1.9,1.4s0.7,1.8,0.7,3.4
		c0,1.1-0.2,1.8-0.5,2.2c-0.3,0.4-1,0.7-2,1c1.1,0.2,1.8,0.7,2.2,1.2s0.6,1.5,0.6,2.6v1.7c0,1.2-0.1,2.1-0.4,2.7
		c-0.3,0.6-0.7,1-1.3,1.2c-0.6,0.2-1.9,0.3-3.8,0.3h-5.5V258.6z M448.8,261.7v4c0.2,0,0.4,0,0.5,0c0.5,0,0.8-0.1,0.9-0.3
		s0.2-0.9,0.2-2c0-0.6-0.1-1-0.2-1.2s-0.2-0.4-0.4-0.4C449.7,261.8,449.3,261.7,448.8,261.7z M448.8,268.6v5.1
		c0.7,0,1.1-0.1,1.3-0.3c0.2-0.2,0.3-0.6,0.3-1.4v-1.7c0-0.8-0.1-1.3-0.2-1.4C450,268.7,449.5,268.6,448.8,268.6z"/>
	<path id="XMLID_32_" class="st10" d="M462.4,258.6v14.5h2.9v3.6h-7.6v-18.2H462.4z"/>
	<path id="XMLID_34_" class="st10" d="M476.1,258.6l2.7,18.2H474l-0.3-3.3H472l-0.3,3.3h-4.9l2.4-18.2H476.1z M473.6,270.3
		c-0.2-2.1-0.5-4.6-0.7-7.6c-0.5,3.5-0.8,6-0.9,7.6H473.6z"/>
	<path id="XMLID_37_" class="st10" d="M491.6,266.5h-4.7v-3.2c0-0.9-0.1-1.5-0.2-1.7c-0.1-0.2-0.3-0.3-0.7-0.3
		c-0.4,0-0.6,0.1-0.7,0.4c-0.1,0.3-0.2,0.9-0.2,1.8v8.4c0,0.9,0.1,1.5,0.2,1.7c0.1,0.3,0.3,0.4,0.7,0.4c0.4,0,0.6-0.1,0.7-0.4
		s0.2-0.9,0.2-1.9v-2.3h4.7v0.7c0,1.9-0.1,3.2-0.4,4c-0.3,0.8-0.9,1.5-1.8,2.1c-0.9,0.6-2,0.9-3.4,0.9c-1.4,0-2.5-0.3-3.4-0.8
		c-0.9-0.5-1.5-1.2-1.8-2.1c-0.3-0.9-0.4-2.2-0.4-4V265c0-1.3,0-2.3,0.1-2.9s0.4-1.3,0.8-1.9c0.4-0.6,1.1-1.1,1.9-1.4
		c0.8-0.3,1.7-0.5,2.7-0.5c1.4,0,2.5,0.3,3.4,0.8c0.9,0.5,1.5,1.2,1.8,2c0.3,0.8,0.4,2.1,0.4,3.8V266.5z"/>
	<path id="XMLID_39_" class="st10" d="M505.5,258.6l-2.7,8.2l3,10h-4.9l-1.9-7.8v7.8h-4.7v-18.2h4.7v7.1l2.1-7.1H505.5z"/>
	<path id="XMLID_41_" class="st10" d="M517.1,264.1h-4.4v-1.3c0-0.6-0.1-1-0.2-1.2s-0.3-0.3-0.6-0.3c-0.3,0-0.5,0.1-0.6,0.3
		c-0.1,0.2-0.2,0.6-0.2,1.1c0,0.6,0.1,1.1,0.2,1.4c0.2,0.3,0.6,0.7,1.3,1.1c2.1,1.2,3.4,2.3,4,3.1c0.5,0.8,0.8,2.1,0.8,3.9
		c0,1.3-0.2,2.2-0.5,2.9c-0.3,0.6-0.9,1.1-1.8,1.5c-0.9,0.4-1.9,0.6-3,0.6c-1.3,0-2.3-0.2-3.2-0.7s-1.5-1.1-1.8-1.8
		c-0.3-0.7-0.4-1.8-0.4-3.2v-1.2h4.4v2.2c0,0.7,0.1,1.1,0.2,1.3c0.1,0.2,0.3,0.3,0.7,0.3s0.5-0.1,0.7-0.4c0.2-0.2,0.2-0.6,0.2-1.1
		c0-1.1-0.1-1.8-0.4-2.1c-0.3-0.3-1-0.9-2.2-1.7c-1.2-0.8-2-1.3-2.3-1.7c-0.4-0.4-0.7-0.8-0.9-1.5s-0.4-1.4-0.4-2.4
		c0-1.4,0.2-2.4,0.5-3.1s0.9-1.1,1.7-1.5s1.8-0.5,2.9-0.5c1.2,0,2.3,0.2,3.1,0.6c0.9,0.4,1.4,0.9,1.7,1.5c0.3,0.6,0.4,1.6,0.4,3.1
		V264.1z"/>
	<path id="XMLID_43_" class="st10" d="M530.9,266.5h-4.7v-3.2c0-0.9-0.1-1.5-0.2-1.7c-0.1-0.2-0.3-0.3-0.7-0.3
		c-0.4,0-0.6,0.1-0.7,0.4c-0.1,0.3-0.2,0.9-0.2,1.8v8.4c0,0.9,0.1,1.5,0.2,1.7c0.1,0.3,0.3,0.4,0.7,0.4c0.4,0,0.6-0.1,0.7-0.4
		s0.2-0.9,0.2-1.9v-2.3h4.7v0.7c0,1.9-0.1,3.2-0.4,4c-0.3,0.8-0.9,1.5-1.8,2.1c-0.9,0.6-2,0.9-3.4,0.9c-1.4,0-2.5-0.3-3.4-0.8
		c-0.9-0.5-1.5-1.2-1.8-2.1c-0.3-0.9-0.4-2.2-0.4-4V265c0-1.3,0-2.3,0.1-2.9s0.4-1.3,0.8-1.9c0.4-0.6,1.1-1.1,1.9-1.4
		c0.8-0.3,1.7-0.5,2.7-0.5c1.4,0,2.5,0.3,3.4,0.8c0.9,0.5,1.5,1.2,1.8,2c0.3,0.8,0.4,2.1,0.4,3.8V266.5z"/>
	<path id="XMLID_45_" class="st10" d="M541.7,258.6l2.7,18.2h-4.8l-0.3-3.3h-1.7l-0.3,3.3h-4.9l2.4-18.2H541.7z M539.2,270.3
		c-0.2-2.1-0.5-4.6-0.7-7.6c-0.5,3.5-0.8,6-0.9,7.6H539.2z"/>
	<path id="XMLID_48_" class="st10" d="M550.9,258.6v14.5h2.9v3.6h-7.6v-18.2H550.9z"/>
	<path id="XMLID_50_" class="st10" d="M555.8,258.6h7.9v3.6h-3.2v3.4h3v3.5h-3v4h3.5v3.6h-8.2V258.6z"/>
</g>
<g id="XMLID_1_">
	<path id="XMLID_2_" class="st10" d="M444.2,288.8h5c1.3,0,2.4,0.1,3.1,0.3s1.3,0.5,1.6,0.9s0.6,0.9,0.7,1.4s0.2,1.4,0.2,2.6v1.7
		c0,1.2-0.1,2.1-0.4,2.6s-0.7,1-1.4,1.3s-1.5,0.4-2.6,0.4h-1.3v7.6h-4.9V288.8z M449.1,292.1v4.8c0.1,0,0.3,0,0.4,0
		c0.5,0,0.8-0.1,0.9-0.3s0.3-0.7,0.3-1.4v-1.6c0-0.6-0.1-1.1-0.3-1.3S449.7,292.1,449.1,292.1z"/>
	<path id="XMLID_5_" class="st10" d="M457.2,288.8h3.5c2.3,0,3.9,0.1,4.7,0.3s1.5,0.6,2,1.4s0.8,1.9,0.8,3.5c0,1.5-0.2,2.5-0.6,3
		s-1.1,0.8-2.2,0.9c1,0.2,1.6,0.6,2,1s0.5,0.8,0.6,1.1s0.1,1.3,0.1,2.8v5h-4.6v-6.3c0-1-0.1-1.6-0.2-1.9s-0.6-0.4-1.3-0.4v8.6h-4.9
		V288.8z M462.1,292.1v4.2c0.6,0,0.9-0.1,1.2-0.2s0.3-0.6,0.3-1.5v-1c0-0.6-0.1-1-0.3-1.2S462.7,292.1,462.1,292.1z"/>
	<path id="XMLID_8_" class="st10" d="M482.3,299.9c0,1.9,0,3.3-0.1,4s-0.4,1.5-0.8,2.2c-0.5,0.7-1.1,1.2-1.9,1.5s-1.7,0.5-2.8,0.5
		c-1,0-1.9-0.2-2.7-0.5s-1.5-0.8-2-1.5s-0.8-1.4-0.9-2.2s-0.1-2.1-0.1-4.1v-3.2c0-1.9,0-3.3,0.1-4s0.4-1.5,0.8-2.2s1.1-1.2,1.9-1.5
		s1.7-0.5,2.8-0.5c1,0,1.9,0.2,2.7,0.5s1.5,0.8,2,1.5c0.5,0.7,0.8,1.4,0.9,2.2s0.1,2.1,0.1,4.1V299.9z M477.4,293.7
		c0-0.9,0-1.4-0.1-1.7s-0.3-0.4-0.6-0.4c-0.3,0-0.5,0.1-0.6,0.3s-0.2,0.8-0.2,1.8v8.9c0,1.1,0,1.8,0.1,2s0.3,0.4,0.6,0.4
		c0.3,0,0.6-0.1,0.6-0.4s0.1-1,0.1-2.1V293.7z"/>
	<path id="XMLID_11_" class="st10" d="M485.1,288.8h5c1.3,0,2.4,0.1,3.1,0.3s1.3,0.5,1.6,0.9s0.6,0.9,0.7,1.4s0.2,1.4,0.2,2.6v1.7
		c0,1.2-0.1,2.1-0.4,2.6s-0.7,1-1.4,1.3s-1.5,0.4-2.6,0.4H490v7.6h-4.9V288.8z M490,292.1v4.8c0.1,0,0.3,0,0.4,0
		c0.5,0,0.8-0.1,0.9-0.3s0.3-0.7,0.3-1.4v-1.6c0-0.6-0.1-1.1-0.3-1.3S490.6,292.1,490,292.1z"/>
	<path id="XMLID_14_" class="st10" d="M498.1,288.8h8.2v3.8H503v3.6h3.1v3.6H503v4.2h3.6v3.8h-8.6V288.8z"/>
	<path id="XMLID_16_" class="st10" d="M509,288.8h3.5c2.3,0,3.9,0.1,4.7,0.3s1.5,0.6,2,1.4s0.8,1.9,0.8,3.5c0,1.5-0.2,2.5-0.6,3
		s-1.1,0.8-2.2,0.9c1,0.2,1.6,0.6,2,1s0.5,0.8,0.6,1.1s0.1,1.3,0.1,2.8v5h-4.6v-6.3c0-1-0.1-1.6-0.2-1.9s-0.6-0.4-1.3-0.4v8.6H509
		V288.8z M513.9,292.1v4.2c0.6,0,0.9-0.1,1.2-0.2s0.3-0.6,0.3-1.5v-1c0-0.6-0.1-1-0.3-1.2S514.5,292.1,513.9,292.1z"/>
	<path id="XMLID_19_" class="st10" d="M532.8,288.8v3.8h-2.9v15.2h-4.9v-15.2H522v-3.8H532.8z"/>
	<path id="XMLID_21_" class="st10" d="M539.8,288.8v19h-4.9v-19H539.8z"/>
	<path id="XMLID_23_" class="st10" d="M542.7,288.8h8.2v3.8h-3.3v3.6h3.1v3.6h-3.1v4.2h3.6v3.8h-8.6V288.8z"/>
	<path id="XMLID_25_" class="st10" d="M564.1,294.6h-4.6v-1.4c0-0.7-0.1-1.1-0.2-1.3s-0.3-0.3-0.6-0.3c-0.3,0-0.5,0.1-0.7,0.4
		c-0.2,0.2-0.2,0.6-0.2,1.1c0,0.6,0.1,1.1,0.3,1.4c0.2,0.3,0.6,0.7,1.4,1.2c2.2,1.3,3.6,2.4,4.1,3.2s0.9,2.2,0.9,4
		c0,1.4-0.2,2.3-0.5,3s-0.9,1.2-1.8,1.6s-2,0.7-3.2,0.7c-1.3,0-2.4-0.2-3.4-0.8s-1.5-1.1-1.8-1.9s-0.4-1.9-0.4-3.3V301h4.6v2.3
		c0,0.7,0.1,1.2,0.2,1.4s0.4,0.3,0.7,0.3s0.6-0.1,0.7-0.4s0.2-0.6,0.2-1.1c0-1.1-0.2-1.8-0.5-2.2c-0.3-0.3-1.1-0.9-2.3-1.7
		c-1.2-0.8-2-1.4-2.4-1.8s-0.7-0.9-1-1.5s-0.4-1.5-0.4-2.5c0-1.5,0.2-2.5,0.6-3.2s1-1.2,1.8-1.6s1.8-0.6,3-0.6
		c1.3,0,2.4,0.2,3.3,0.6s1.5,0.9,1.8,1.6s0.4,1.7,0.4,3.2V294.6z"/>
</g>
<polygon class="st10" points="411.5,303.5 390.7,313.8 432.3,313.8 "/>
</svg>
